<svg width="24" height="26" viewBox="0 0 24 26" fill="none" xmlns="http://www.w3.org/2000/svg">
<rect width="24" height="24" rx="12" fill="#1C1C29"/>
<mask id="mask0_3386_931" style="mask-type:alpha" maskUnits="userSpaceOnUse" x="0" y="0" width="24" height="24">
<rect width="24" height="24" rx="12" fill="#1C1C29"/>
</mask>
<g mask="url(#mask0_3386_931)">
<g style="mix-blend-mode:color-dodge" opacity="0.72" filter="url(#filter0_f_3386_931)">
<ellipse cx="48" cy="16" rx="32" ry="16" fill="#5EB851"/>
</g>
<g style="mix-blend-mode:plus-lighter" filter="url(#filter1_f_3386_931)">
<ellipse cx="32" cy="8" rx="16" ry="8" fill="#F1E6FA"/>
</g>
<g style="mix-blend-mode:plus-lighter" opacity="0.32" filter="url(#filter2_f_3386_931)">
<ellipse cx="28" cy="4" rx="12" ry="4" fill="#F1E6FA"/>
</g>
</g>
<mask id="mask1_3386_931" style="mask-type:alpha" maskUnits="userSpaceOnUse" x="0" y="0" width="24" height="24">
<rect x="0.5" y="0.5" width="23" height="23" rx="11.5" stroke="black"/>
</mask>
<g mask="url(#mask1_3386_931)">
<g style="mix-blend-mode:color-dodge" opacity="0.72" filter="url(#filter3_f_3386_931)">
<ellipse cx="48" cy="16" rx="32" ry="16" fill="#5EB851"/>
</g>
<g style="mix-blend-mode:plus-lighter" filter="url(#filter4_f_3386_931)">
<ellipse cx="32" cy="8" rx="16" ry="8" fill="#F1E6FA"/>
</g>
<g style="mix-blend-mode:plus-lighter" opacity="0.32" filter="url(#filter5_f_3386_931)">
<ellipse cx="28" cy="4" rx="12" ry="4" fill="#F1E6FA"/>
</g>
</g>
<g style="mix-blend-mode:plus-darker" opacity="0.4" filter="url(#filter6_f_3386_931)">
<path d="M9.2375 21.5V20.2C8.6375 20.15 8.08333 20.0042 7.575 19.7625C7.06667 19.5208 6.65417 19.2333 6.3375 18.9L6.9 16.6C7.175 17.1 7.57083 17.525 8.0875 17.875C8.60417 18.2167 9.15417 18.3875 9.7375 18.3875C10.2292 18.3875 10.6208 18.25 10.9125 17.975C11.2042 17.6917 11.35 17.3458 11.35 16.9375C11.35 16.6125 11.275 16.3458 11.125 16.1375C10.975 15.9292 10.8 15.7625 10.6 15.6375C10.4 15.5042 10.2292 15.4042 10.0875 15.3375L8.75 14.6625C8.40833 14.4875 8.06667 14.2792 7.725 14.0375C7.38333 13.7875 7.09583 13.4708 6.8625 13.0875C6.6375 12.6958 6.525 12.2125 6.525 11.6375C6.525 10.8292 6.76667 10.15 7.25 9.6C7.74167 9.05 8.40417 8.7125 9.2375 8.5875V7.625H10.5125V8.5625C11.0208 8.62083 11.475 8.74583 11.875 8.9375C12.2833 9.12083 12.6208 9.31667 12.8875 9.525L12.35 11.775C12.05 11.3667 11.675 11.025 11.225 10.75C10.775 10.475 10.3125 10.3375 9.8375 10.3375C9.40417 10.3375 9.06667 10.4542 8.825 10.6875C8.59167 10.9125 8.475 11.1958 8.475 11.5375C8.475 11.7625 8.525 11.9583 8.625 12.125C8.73333 12.2917 8.87083 12.4375 9.0375 12.5625C9.2125 12.6792 9.4 12.7875 9.6 12.8875L10.9625 13.5625C11.1708 13.6625 11.4042 13.7958 11.6625 13.9625C11.9292 14.1292 12.1875 14.3417 12.4375 14.6C12.6875 14.85 12.8917 15.1583 13.05 15.525C13.2167 15.8833 13.3 16.3125 13.3 16.8125C13.3 17.6458 13.05 18.3708 12.55 18.9875C12.05 19.5958 11.3708 19.9833 10.5125 20.15V21.5H9.2375Z" fill="#5EB851"/>
</g>
<path d="M11.2375 19.5V18.2C10.6375 18.15 10.0833 18.0042 9.575 17.7625C9.06667 17.5208 8.65417 17.2333 8.3375 16.9L8.9 14.6C9.175 15.1 9.57083 15.525 10.0875 15.875C10.6042 16.2167 11.1542 16.3875 11.7375 16.3875C12.2292 16.3875 12.6208 16.25 12.9125 15.975C13.2042 15.6917 13.35 15.3458 13.35 14.9375C13.35 14.6125 13.275 14.3458 13.125 14.1375C12.975 13.9292 12.8 13.7625 12.6 13.6375C12.4 13.5042 12.2292 13.4042 12.0875 13.3375L10.75 12.6625C10.4083 12.4875 10.0667 12.2792 9.725 12.0375C9.38333 11.7875 9.09583 11.4708 8.8625 11.0875C8.6375 10.6958 8.525 10.2125 8.525 9.6375C8.525 8.82917 8.76667 8.15 9.25 7.6C9.74167 7.05 10.4042 6.7125 11.2375 6.5875V5.625H12.5125V6.5625C13.0208 6.62083 13.475 6.74583 13.875 6.9375C14.2833 7.12083 14.6208 7.31667 14.8875 7.525L14.35 9.775C14.05 9.36667 13.675 9.025 13.225 8.75C12.775 8.475 12.3125 8.3375 11.8375 8.3375C11.4042 8.3375 11.0667 8.45417 10.825 8.6875C10.5917 8.9125 10.475 9.19583 10.475 9.5375C10.475 9.7625 10.525 9.95833 10.625 10.125C10.7333 10.2917 10.8708 10.4375 11.0375 10.5625C11.2125 10.6792 11.4 10.7875 11.6 10.8875L12.9625 11.5625C13.1708 11.6625 13.4042 11.7958 13.6625 11.9625C13.9292 12.1292 14.1875 12.3417 14.4375 12.6C14.6875 12.85 14.8917 13.1583 15.05 13.525C15.2167 13.8833 15.3 14.3125 15.3 14.8125C15.3 15.6458 15.05 16.3708 14.55 16.9875C14.05 17.5958 13.3708 17.9833 12.5125 18.15V19.5H11.2375Z" fill="#5EB851"/>
<g style="mix-blend-mode:plus-lighter">
<path d="M11.2375 19.5V18.2C10.6375 18.15 10.0833 18.0042 9.575 17.7625C9.06667 17.5208 8.65417 17.2333 8.3375 16.9L8.9 14.6C9.175 15.1 9.57083 15.525 10.0875 15.875C10.6042 16.2167 11.1542 16.3875 11.7375 16.3875C12.2292 16.3875 12.6208 16.25 12.9125 15.975C13.2042 15.6917 13.35 15.3458 13.35 14.9375C13.35 14.6125 13.275 14.3458 13.125 14.1375C12.975 13.9292 12.8 13.7625 12.6 13.6375C12.4 13.5042 12.2292 13.4042 12.0875 13.3375L10.75 12.6625C10.4083 12.4875 10.0667 12.2792 9.725 12.0375C9.38333 11.7875 9.09583 11.4708 8.8625 11.0875C8.6375 10.6958 8.525 10.2125 8.525 9.6375C8.525 8.82917 8.76667 8.15 9.25 7.6C9.74167 7.05 10.4042 6.7125 11.2375 6.5875V5.625H12.5125V6.5625C13.0208 6.62083 13.475 6.74583 13.875 6.9375C14.2833 7.12083 14.6208 7.31667 14.8875 7.525L14.35 9.775C14.05 9.36667 13.675 9.025 13.225 8.75C12.775 8.475 12.3125 8.3375 11.8375 8.3375C11.4042 8.3375 11.0667 8.45417 10.825 8.6875C10.5917 8.9125 10.475 9.19583 10.475 9.5375C10.475 9.7625 10.525 9.95833 10.625 10.125C10.7333 10.2917 10.8708 10.4375 11.0375 10.5625C11.2125 10.6792 11.4 10.7875 11.6 10.8875L12.9625 11.5625C13.1708 11.6625 13.4042 11.7958 13.6625 11.9625C13.9292 12.1292 14.1875 12.3417 14.4375 12.6C14.6875 12.85 14.8917 13.1583 15.05 13.525C15.2167 13.8833 15.3 14.3125 15.3 14.8125C15.3 15.6458 15.05 16.3708 14.55 16.9875C14.05 17.5958 13.3708 17.9833 12.5125 18.15V19.5H11.2375Z" fill="url(#paint0_radial_3386_931)"/>
</g>
<defs>
<filter id="filter0_f_3386_931" x="-4" y="-20" width="104" height="72" filterUnits="userSpaceOnUse" color-interpolation-filters="sRGB">
<feFlood flood-opacity="0" result="BackgroundImageFix"/>
<feBlend mode="normal" in="SourceGraphic" in2="BackgroundImageFix" result="shape"/>
<feGaussianBlur stdDeviation="10" result="effect1_foregroundBlur_3386_931"/>
</filter>
<filter id="filter1_f_3386_931" x="4" y="-12" width="56" height="40" filterUnits="userSpaceOnUse" color-interpolation-filters="sRGB">
<feFlood flood-opacity="0" result="BackgroundImageFix"/>
<feBlend mode="normal" in="SourceGraphic" in2="BackgroundImageFix" result="shape"/>
<feGaussianBlur stdDeviation="6" result="effect1_foregroundBlur_3386_931"/>
</filter>
<filter id="filter2_f_3386_931" x="10" y="-6" width="36" height="20" filterUnits="userSpaceOnUse" color-interpolation-filters="sRGB">
<feFlood flood-opacity="0" result="BackgroundImageFix"/>
<feBlend mode="normal" in="SourceGraphic" in2="BackgroundImageFix" result="shape"/>
<feGaussianBlur stdDeviation="3" result="effect1_foregroundBlur_3386_931"/>
</filter>
<filter id="filter3_f_3386_931" x="-4" y="-20" width="104" height="72" filterUnits="userSpaceOnUse" color-interpolation-filters="sRGB">
<feFlood flood-opacity="0" result="BackgroundImageFix"/>
<feBlend mode="normal" in="SourceGraphic" in2="BackgroundImageFix" result="shape"/>
<feGaussianBlur stdDeviation="10" result="effect1_foregroundBlur_3386_931"/>
</filter>
<filter id="filter4_f_3386_931" x="4" y="-12" width="56" height="40" filterUnits="userSpaceOnUse" color-interpolation-filters="sRGB">
<feFlood flood-opacity="0" result="BackgroundImageFix"/>
<feBlend mode="normal" in="SourceGraphic" in2="BackgroundImageFix" result="shape"/>
<feGaussianBlur stdDeviation="6" result="effect1_foregroundBlur_3386_931"/>
</filter>
<filter id="filter5_f_3386_931" x="10" y="-6" width="36" height="20" filterUnits="userSpaceOnUse" color-interpolation-filters="sRGB">
<feFlood flood-opacity="0" result="BackgroundImageFix"/>
<feBlend mode="normal" in="SourceGraphic" in2="BackgroundImageFix" result="shape"/>
<feGaussianBlur stdDeviation="3" result="effect1_foregroundBlur_3386_931"/>
</filter>
<filter id="filter6_f_3386_931" x="3.3374" y="4.625" width="12.9624" height="19.875" filterUnits="userSpaceOnUse" color-interpolation-filters="sRGB">
<feFlood flood-opacity="0" result="BackgroundImageFix"/>
<feBlend mode="normal" in="SourceGraphic" in2="BackgroundImageFix" result="shape"/>
<feGaussianBlur stdDeviation="1.5" result="effect1_foregroundBlur_3386_931"/>
</filter>
<radialGradient id="paint0_radial_3386_931" cx="0" cy="0" r="1" gradientUnits="userSpaceOnUse" gradientTransform="translate(17 5.14286) rotate(115.925) scale(11.4366 7.61965)">
<stop stop-color="#F1E6FA"/>
<stop offset="1" stop-color="#FFBC70" stop-opacity="0"/>
</radialGradient>
</defs>
</svg>
