<svg width="122" height="88" viewBox="0 0 122 88" fill="none" xmlns="http://www.w3.org/2000/svg">
<g opacity="0.64">
<g style="mix-blend-mode:color-dodge" opacity="0.72" filter="url(#filter0_f_8935_570)">
<ellipse cx="62" cy="44" rx="32" ry="16" fill="#5858F5"/>
</g>
<g style="mix-blend-mode:plus-lighter" filter="url(#filter1_f_8935_570)">
<ellipse cx="54" cy="32" rx="16" ry="8" fill="#C95CFF"/>
</g>
<g style="mix-blend-mode:plus-lighter" opacity="0.57" filter="url(#filter2_f_8935_570)">
<ellipse cx="50" cy="28" rx="12" ry="4" fill="#F1E6FA"/>
</g>
</g>
<mask id="mask0_8935_570" style="mask-type:alpha" maskUnits="userSpaceOnUse" x="8" y="20" width="48" height="48">
<rect x="8.5" y="20.5" width="47" height="47" rx="23.5" stroke="#262638"/>
</mask>
<g mask="url(#mask0_8935_570)">
<g style="mix-blend-mode:color-dodge" opacity="0.72" filter="url(#filter3_f_8935_570)">
<ellipse cx="52" cy="44" rx="32" ry="16" fill="#5858F5"/>
</g>
<g style="mix-blend-mode:plus-lighter" filter="url(#filter4_f_8935_570)">
<ellipse cx="44" cy="32" rx="16" ry="8" fill="#C95CFF"/>
</g>
<g style="mix-blend-mode:plus-lighter" opacity="0.57" filter="url(#filter5_f_8935_570)">
<ellipse cx="40" cy="28" rx="12" ry="4" fill="#F1E6FA"/>
</g>
</g>
<g opacity="0.4">
<mask id="mask1_8935_570" style="mask-type:alpha" maskUnits="userSpaceOnUse" x="8" y="20" width="48" height="48">
<rect x="8.5" y="20.5" width="47" height="47" rx="23.5" stroke="#262638"/>
</mask>
<g mask="url(#mask1_8935_570)">
<g style="mix-blend-mode:color-dodge" opacity="0.72" filter="url(#filter6_f_8935_570)">
<ellipse cx="52" cy="44" rx="32" ry="16" fill="#5858F5"/>
</g>
<g style="mix-blend-mode:plus-lighter" filter="url(#filter7_f_8935_570)">
<ellipse cx="44" cy="32" rx="16" ry="8" fill="#C95CFF"/>
</g>
<g style="mix-blend-mode:plus-lighter" opacity="0.57" filter="url(#filter8_f_8935_570)">
<ellipse cx="40" cy="28" rx="12" ry="4" fill="#F1E6FA"/>
</g>
</g>
</g>
<mask id="mask2_8935_570" style="mask-type:alpha" maskUnits="userSpaceOnUse" x="4" y="16" width="56" height="56">
<rect x="4.5" y="16.5" width="55" height="55" rx="27.5" stroke="#262638"/>
</mask>
<g mask="url(#mask2_8935_570)">
<g style="mix-blend-mode:color-dodge" opacity="0.72" filter="url(#filter9_f_8935_570)">
<ellipse cx="52" cy="44" rx="32" ry="16" fill="#5858F5"/>
</g>
<g style="mix-blend-mode:plus-lighter" filter="url(#filter10_f_8935_570)">
<ellipse cx="44" cy="32" rx="16" ry="8" fill="#C95CFF"/>
</g>
<g style="mix-blend-mode:plus-lighter" opacity="0.57" filter="url(#filter11_f_8935_570)">
<ellipse cx="40" cy="28" rx="12" ry="4" fill="#F1E6FA"/>
</g>
</g>
<g opacity="0.74">
<mask id="mask3_8935_570" style="mask-type:alpha" maskUnits="userSpaceOnUse" x="0" y="12" width="64" height="64">
<rect x="0.5" y="12.5" width="63" height="63" rx="31.5" stroke="#262638"/>
</mask>
<g mask="url(#mask3_8935_570)">
<g style="mix-blend-mode:color-dodge" opacity="0.72" filter="url(#filter12_f_8935_570)">
<ellipse cx="52" cy="44" rx="32" ry="16" fill="#5858F5"/>
</g>
<g style="mix-blend-mode:plus-lighter" filter="url(#filter13_f_8935_570)">
<ellipse cx="44" cy="32" rx="16" ry="8" fill="#C95CFF"/>
</g>
<g style="mix-blend-mode:plus-lighter" opacity="0.57" filter="url(#filter14_f_8935_570)">
<ellipse cx="40" cy="28" rx="12" ry="4" fill="#F1E6FA"/>
</g>
</g>
</g>
<rect x="12" y="24" width="40" height="40" rx="20" fill="#1C1C29"/>
<mask id="mask4_8935_570" style="mask-type:alpha" maskUnits="userSpaceOnUse" x="12" y="24" width="40" height="40">
<rect x="12" y="24" width="40" height="40" rx="20" fill="#1C1C29"/>
</mask>
<g mask="url(#mask4_8935_570)">
<g style="mix-blend-mode:color-dodge" opacity="0.72" filter="url(#filter15_f_8935_570)">
<ellipse cx="52" cy="44" rx="32" ry="16" fill="#5858F5"/>
</g>
<g style="mix-blend-mode:color-dodge" filter="url(#filter16_f_8935_570)">
<ellipse cx="44" cy="32" rx="16" ry="8" fill="#FF9D5C"/>
</g>
<g style="mix-blend-mode:plus-lighter" opacity="0.57" filter="url(#filter17_f_8935_570)">
<ellipse cx="40" cy="28" rx="12" ry="4" fill="#F1E6FA"/>
</g>
<g style="mix-blend-mode:plus-lighter">
<path d="M40 55.4317C40 55.6492 39.7414 55.763 39.5811 55.616L28.4189 45.384C28.2586 45.237 28 45.3508 28 45.5683V63.75C28 63.8881 27.8881 64 27.75 64H24.25C24.1119 64 24 63.8881 24 63.75V35.5683C24 35.3508 24.2586 35.237 24.4189 35.384L35.5811 45.616C35.7414 45.763 36 45.6492 36 45.4317V24.25C36 24.1119 36.1119 24 36.25 24H39.75C39.8881 24 40 24.1119 40 24.25L40 55.4317Z" fill="url(#paint0_linear_8935_570)"/>
</g>
<mask id="mask5_8935_570" style="mask-type:alpha" maskUnits="userSpaceOnUse" x="24" y="24" width="16" height="40">
<g style="mix-blend-mode:plus-lighter">
<path d="M40 55.4317C40 55.6492 39.7414 55.763 39.5811 55.616L28.4189 45.384C28.2586 45.237 28 45.3508 28 45.5683V63.75C28 63.8881 27.8881 64 27.75 64H24.25C24.1119 64 24 63.8881 24 63.75V35.5683C24 35.3508 24.2586 35.237 24.4189 35.384L35.5811 45.616C35.7414 45.763 36 45.6492 36 45.4317V24.25C36 24.1119 36.1119 24 36.25 24H39.75C39.8881 24 40 24.1119 40 24.25L40 55.4317Z" fill="url(#paint1_linear_8935_570)"/>
</g>
</mask>
<g mask="url(#mask5_8935_570)">
<g style="mix-blend-mode:plus-lighter">
<path d="M28 64V45.5683C28 45.3508 28.2586 45.237 28.4189 45.384L39.5811 55.616C39.7414 55.763 40 55.6492 40 55.4317L40 24" stroke="#D4C5EB"/>
</g>
<g style="mix-blend-mode:plus-lighter" opacity="0.88" filter="url(#filter18_f_8935_570)">
<path d="M28 64V45.5683C28 45.3508 28.2586 45.237 28.4189 45.384L39.5811 55.616C39.7414 55.763 40 55.6492 40 55.4317L40 24" stroke="#D4C5EB"/>
</g>
</g>
</g>
<mask id="mask6_8935_570" style="mask-type:alpha" maskUnits="userSpaceOnUse" x="12" y="24" width="40" height="40">
<rect x="12.5" y="24.5" width="39" height="39" rx="19.5" stroke="black"/>
</mask>
<g mask="url(#mask6_8935_570)">
<g style="mix-blend-mode:color-dodge" opacity="0.72" filter="url(#filter19_f_8935_570)">
<ellipse cx="52" cy="44" rx="32" ry="16" fill="#5858F5"/>
</g>
<g style="mix-blend-mode:plus-lighter" filter="url(#filter20_f_8935_570)">
<ellipse cx="44" cy="32" rx="16" ry="8" fill="#C95CFF"/>
</g>
<g style="mix-blend-mode:plus-lighter" opacity="0.57" filter="url(#filter21_f_8935_570)">
<ellipse cx="40" cy="28" rx="12" ry="4" fill="#F1E6FA"/>
</g>
</g>
<defs>
<filter id="filter0_f_8935_570" x="2" y="0" width="120" height="88" filterUnits="userSpaceOnUse" color-interpolation-filters="sRGB">
<feFlood flood-opacity="0" result="BackgroundImageFix"/>
<feBlend mode="normal" in="SourceGraphic" in2="BackgroundImageFix" result="shape"/>
<feGaussianBlur stdDeviation="14" result="effect1_foregroundBlur_8935_570"/>
</filter>
<filter id="filter1_f_8935_570" x="22" y="8" width="64" height="48" filterUnits="userSpaceOnUse" color-interpolation-filters="sRGB">
<feFlood flood-opacity="0" result="BackgroundImageFix"/>
<feBlend mode="normal" in="SourceGraphic" in2="BackgroundImageFix" result="shape"/>
<feGaussianBlur stdDeviation="8" result="effect1_foregroundBlur_8935_570"/>
</filter>
<filter id="filter2_f_8935_570" x="30" y="16" width="40" height="24" filterUnits="userSpaceOnUse" color-interpolation-filters="sRGB">
<feFlood flood-opacity="0" result="BackgroundImageFix"/>
<feBlend mode="normal" in="SourceGraphic" in2="BackgroundImageFix" result="shape"/>
<feGaussianBlur stdDeviation="4" result="effect1_foregroundBlur_8935_570"/>
</filter>
<filter id="filter3_f_8935_570" x="-8" y="0" width="120" height="88" filterUnits="userSpaceOnUse" color-interpolation-filters="sRGB">
<feFlood flood-opacity="0" result="BackgroundImageFix"/>
<feBlend mode="normal" in="SourceGraphic" in2="BackgroundImageFix" result="shape"/>
<feGaussianBlur stdDeviation="14" result="effect1_foregroundBlur_8935_570"/>
</filter>
<filter id="filter4_f_8935_570" x="12" y="8" width="64" height="48" filterUnits="userSpaceOnUse" color-interpolation-filters="sRGB">
<feFlood flood-opacity="0" result="BackgroundImageFix"/>
<feBlend mode="normal" in="SourceGraphic" in2="BackgroundImageFix" result="shape"/>
<feGaussianBlur stdDeviation="8" result="effect1_foregroundBlur_8935_570"/>
</filter>
<filter id="filter5_f_8935_570" x="20" y="16" width="40" height="24" filterUnits="userSpaceOnUse" color-interpolation-filters="sRGB">
<feFlood flood-opacity="0" result="BackgroundImageFix"/>
<feBlend mode="normal" in="SourceGraphic" in2="BackgroundImageFix" result="shape"/>
<feGaussianBlur stdDeviation="4" result="effect1_foregroundBlur_8935_570"/>
</filter>
<filter id="filter6_f_8935_570" x="-8" y="0" width="120" height="88" filterUnits="userSpaceOnUse" color-interpolation-filters="sRGB">
<feFlood flood-opacity="0" result="BackgroundImageFix"/>
<feBlend mode="normal" in="SourceGraphic" in2="BackgroundImageFix" result="shape"/>
<feGaussianBlur stdDeviation="14" result="effect1_foregroundBlur_8935_570"/>
</filter>
<filter id="filter7_f_8935_570" x="12" y="8" width="64" height="48" filterUnits="userSpaceOnUse" color-interpolation-filters="sRGB">
<feFlood flood-opacity="0" result="BackgroundImageFix"/>
<feBlend mode="normal" in="SourceGraphic" in2="BackgroundImageFix" result="shape"/>
<feGaussianBlur stdDeviation="8" result="effect1_foregroundBlur_8935_570"/>
</filter>
<filter id="filter8_f_8935_570" x="20" y="16" width="40" height="24" filterUnits="userSpaceOnUse" color-interpolation-filters="sRGB">
<feFlood flood-opacity="0" result="BackgroundImageFix"/>
<feBlend mode="normal" in="SourceGraphic" in2="BackgroundImageFix" result="shape"/>
<feGaussianBlur stdDeviation="4" result="effect1_foregroundBlur_8935_570"/>
</filter>
<filter id="filter9_f_8935_570" x="-8" y="0" width="120" height="88" filterUnits="userSpaceOnUse" color-interpolation-filters="sRGB">
<feFlood flood-opacity="0" result="BackgroundImageFix"/>
<feBlend mode="normal" in="SourceGraphic" in2="BackgroundImageFix" result="shape"/>
<feGaussianBlur stdDeviation="14" result="effect1_foregroundBlur_8935_570"/>
</filter>
<filter id="filter10_f_8935_570" x="12" y="8" width="64" height="48" filterUnits="userSpaceOnUse" color-interpolation-filters="sRGB">
<feFlood flood-opacity="0" result="BackgroundImageFix"/>
<feBlend mode="normal" in="SourceGraphic" in2="BackgroundImageFix" result="shape"/>
<feGaussianBlur stdDeviation="8" result="effect1_foregroundBlur_8935_570"/>
</filter>
<filter id="filter11_f_8935_570" x="20" y="16" width="40" height="24" filterUnits="userSpaceOnUse" color-interpolation-filters="sRGB">
<feFlood flood-opacity="0" result="BackgroundImageFix"/>
<feBlend mode="normal" in="SourceGraphic" in2="BackgroundImageFix" result="shape"/>
<feGaussianBlur stdDeviation="4" result="effect1_foregroundBlur_8935_570"/>
</filter>
<filter id="filter12_f_8935_570" x="-8" y="0" width="120" height="88" filterUnits="userSpaceOnUse" color-interpolation-filters="sRGB">
<feFlood flood-opacity="0" result="BackgroundImageFix"/>
<feBlend mode="normal" in="SourceGraphic" in2="BackgroundImageFix" result="shape"/>
<feGaussianBlur stdDeviation="14" result="effect1_foregroundBlur_8935_570"/>
</filter>
<filter id="filter13_f_8935_570" x="12" y="8" width="64" height="48" filterUnits="userSpaceOnUse" color-interpolation-filters="sRGB">
<feFlood flood-opacity="0" result="BackgroundImageFix"/>
<feBlend mode="normal" in="SourceGraphic" in2="BackgroundImageFix" result="shape"/>
<feGaussianBlur stdDeviation="8" result="effect1_foregroundBlur_8935_570"/>
</filter>
<filter id="filter14_f_8935_570" x="20" y="16" width="40" height="24" filterUnits="userSpaceOnUse" color-interpolation-filters="sRGB">
<feFlood flood-opacity="0" result="BackgroundImageFix"/>
<feBlend mode="normal" in="SourceGraphic" in2="BackgroundImageFix" result="shape"/>
<feGaussianBlur stdDeviation="4" result="effect1_foregroundBlur_8935_570"/>
</filter>
<filter id="filter15_f_8935_570" x="-8" y="0" width="120" height="88" filterUnits="userSpaceOnUse" color-interpolation-filters="sRGB">
<feFlood flood-opacity="0" result="BackgroundImageFix"/>
<feBlend mode="normal" in="SourceGraphic" in2="BackgroundImageFix" result="shape"/>
<feGaussianBlur stdDeviation="14" result="effect1_foregroundBlur_8935_570"/>
</filter>
<filter id="filter16_f_8935_570" x="12" y="8" width="64" height="48" filterUnits="userSpaceOnUse" color-interpolation-filters="sRGB">
<feFlood flood-opacity="0" result="BackgroundImageFix"/>
<feBlend mode="normal" in="SourceGraphic" in2="BackgroundImageFix" result="shape"/>
<feGaussianBlur stdDeviation="8" result="effect1_foregroundBlur_8935_570"/>
</filter>
<filter id="filter17_f_8935_570" x="20" y="16" width="40" height="24" filterUnits="userSpaceOnUse" color-interpolation-filters="sRGB">
<feFlood flood-opacity="0" result="BackgroundImageFix"/>
<feBlend mode="normal" in="SourceGraphic" in2="BackgroundImageFix" result="shape"/>
<feGaussianBlur stdDeviation="4" result="effect1_foregroundBlur_8935_570"/>
</filter>
<filter id="filter18_f_8935_570" x="25.5" y="22" width="17" height="44" filterUnits="userSpaceOnUse" color-interpolation-filters="sRGB">
<feFlood flood-opacity="0" result="BackgroundImageFix"/>
<feBlend mode="normal" in="SourceGraphic" in2="BackgroundImageFix" result="shape"/>
<feGaussianBlur stdDeviation="1" result="effect1_foregroundBlur_8935_570"/>
</filter>
<filter id="filter19_f_8935_570" x="-8" y="0" width="120" height="88" filterUnits="userSpaceOnUse" color-interpolation-filters="sRGB">
<feFlood flood-opacity="0" result="BackgroundImageFix"/>
<feBlend mode="normal" in="SourceGraphic" in2="BackgroundImageFix" result="shape"/>
<feGaussianBlur stdDeviation="14" result="effect1_foregroundBlur_8935_570"/>
</filter>
<filter id="filter20_f_8935_570" x="12" y="8" width="64" height="48" filterUnits="userSpaceOnUse" color-interpolation-filters="sRGB">
<feFlood flood-opacity="0" result="BackgroundImageFix"/>
<feBlend mode="normal" in="SourceGraphic" in2="BackgroundImageFix" result="shape"/>
<feGaussianBlur stdDeviation="8" result="effect1_foregroundBlur_8935_570"/>
</filter>
<filter id="filter21_f_8935_570" x="20" y="16" width="40" height="24" filterUnits="userSpaceOnUse" color-interpolation-filters="sRGB">
<feFlood flood-opacity="0" result="BackgroundImageFix"/>
<feBlend mode="normal" in="SourceGraphic" in2="BackgroundImageFix" result="shape"/>
<feGaussianBlur stdDeviation="4" result="effect1_foregroundBlur_8935_570"/>
</filter>
<linearGradient id="paint0_linear_8935_570" x1="52" y1="44" x2="23" y2="44" gradientUnits="userSpaceOnUse">
<stop stop-color="#F1E6FA" stop-opacity="0"/>
<stop offset="0.39869" stop-color="#B685FF"/>
<stop offset="1" stop-color="#F1E6FA" stop-opacity="0"/>
</linearGradient>
<linearGradient id="paint1_linear_8935_570" x1="52" y1="44" x2="23" y2="44" gradientUnits="userSpaceOnUse">
<stop stop-color="#F1E6FA" stop-opacity="0"/>
<stop offset="0.39869" stop-color="#B685FF"/>
<stop offset="1" stop-color="#F1E6FA" stop-opacity="0"/>
</linearGradient>
</defs>
</svg>
