<svg width="16" height="20" viewBox="0 0 16 20" fill="none" xmlns="http://www.w3.org/2000/svg">
<g style="mix-blend-mode:plus-darker" opacity="0.12" filter="url(#filter0_f_4680_2)">
<path d="M3 14L6.66173 16.7463C6.84544 16.8841 7.10717 16.8392 7.23455 16.6482L13 8" stroke="#FF7847" stroke-width="2" stroke-linecap="round"/>
</g>
<path d="M3 11L6.66173 13.7463C6.84544 13.8841 7.10717 13.8392 7.23455 13.6482L13 5" stroke="#FF7847" stroke-width="2" stroke-linecap="round"/>
<g style="mix-blend-mode:screen" opacity="0.8" filter="url(#filter1_f_4680_2)">
<path d="M3 10L6.66173 12.7463C6.84544 12.8841 7.10717 12.8392 7.23455 12.6482L13 4" stroke="#FFBC70" stroke-linecap="round"/>
</g>
<g style="mix-blend-mode:screen" opacity="0.32" filter="url(#filter2_f_4680_2)">
<path d="M3 9L6.66173 11.7463C6.84544 11.8841 7.10717 11.8392 7.23455 11.6482L13 3" stroke="#F1E6FA" stroke-width="2" stroke-linecap="round"/>
</g>
<defs>
<filter id="filter0_f_4680_2" x="0" y="5" width="16" height="14.8264" filterUnits="userSpaceOnUse" color-interpolation-filters="sRGB">
<feFlood flood-opacity="0" result="BackgroundImageFix"/>
<feBlend mode="normal" in="SourceGraphic" in2="BackgroundImageFix" result="shape"/>
<feGaussianBlur stdDeviation="1" result="effect1_foregroundBlur_4680_2"/>
</filter>
<filter id="filter1_f_4680_2" x="1.5" y="2.5" width="13" height="11.8264" filterUnits="userSpaceOnUse" color-interpolation-filters="sRGB">
<feFlood flood-opacity="0" result="BackgroundImageFix"/>
<feBlend mode="normal" in="SourceGraphic" in2="BackgroundImageFix" result="shape"/>
<feGaussianBlur stdDeviation="0.5" result="effect1_foregroundBlur_4680_2"/>
</filter>
<filter id="filter2_f_4680_2" x="0" y="0" width="16" height="14.8264" filterUnits="userSpaceOnUse" color-interpolation-filters="sRGB">
<feFlood flood-opacity="0" result="BackgroundImageFix"/>
<feBlend mode="normal" in="SourceGraphic" in2="BackgroundImageFix" result="shape"/>
<feGaussianBlur stdDeviation="1" result="effect1_foregroundBlur_4680_2"/>
</filter>
</defs>
</svg>
