<svg width="32" height="32" viewBox="0 0 32 32" fill="none" xmlns="http://www.w3.org/2000/svg">
<g id="checked-changed">
<g id="bg">
<rect id="Rectangle 53" x="32" y="32" width="32" height="32" rx="16" transform="rotate(-180 32 32)" fill="#14141F"/>
<g id="Mask group">
<mask id="mask0_7483_3302" style="mask-type:alpha" maskUnits="userSpaceOnUse" x="0" y="0" width="32" height="32">
<rect id="Rectangle 57" x="32" y="32" width="32" height="32" rx="16" transform="rotate(-180 32 32)" fill="#14141F"/>
</mask>
<g mask="url(#mask0_7483_3302)">
<g id="Rectangle 56" style="mix-blend-mode:plus-lighter" opacity="0.64" filter="url(#filter0_f_7483_3302)">
<rect x="32" y="32" width="32" height="32" rx="16" transform="rotate(-180 32 32)" fill="url(#paint0_radial_7483_3302)"/>
</g>
</g>
</g>
<g id="Rectangle 55" style="mix-blend-mode:plus-lighter">
<rect x="32" y="32" width="32" height="32" rx="16" transform="rotate(-180 32 32)" fill="url(#paint1_radial_7483_3302)" fill-opacity="0.92"/>
<rect x="31.5" y="31.5" width="31" height="31" rx="15.5" transform="rotate(-180 31.5 31.5)" stroke="url(#paint2_linear_7483_3302)" stroke-opacity="0.6"/>
</g>
<g id="Rectangle 54" style="mix-blend-mode:plus-lighter">
<rect x="32" y="32" width="32" height="32" rx="16" transform="rotate(-180 32 32)" fill="url(#paint3_radial_7483_3302)"/>
</g>
</g>
<g id="Group 10693068">
<g id="Vector" style="mix-blend-mode:plus-darker" opacity="0.12" filter="url(#filter1_f_7483_3302)">
<path d="M19.52 11L12.48 27M18.24 14.84C22.08 14.84 24 16.76 24 19C24 21.24 22.08 23.16 18.24 23.16M13.76 14.84C9.92 14.84 8 16.76 8 19C8 21.24 9.92 23.16 13.76 23.16" stroke="#FF7847" stroke-width="2" stroke-linecap="round"/>
</g>
<path id="Vector_2" d="M19.52 8L12.48 24M18.24 11.84C22.08 11.84 24 13.76 24 16C24 18.24 22.08 20.16 18.24 20.16M13.76 11.84C9.92 11.84 8 13.76 8 16C8 18.24 9.92 20.16 13.76 20.16" stroke="#FF7847" stroke-width="2" stroke-linecap="round"/>
<g id="Vector_3" style="mix-blend-mode:plus-lighter" opacity="0.8" filter="url(#filter2_f_7483_3302)">
<path d="M19.52 7L12.48 23M18.24 10.84C22.08 10.84 24 12.76 24 15C24 17.24 22.08 19.16 18.24 19.16M13.76 10.84C9.92 10.84 8 12.76 8 15C8 17.24 9.92 19.16 13.76 19.16" stroke="#FFBC70" stroke-linecap="round"/>
</g>
<g id="Vector_4" style="mix-blend-mode:plus-lighter" opacity="0.32" filter="url(#filter3_f_7483_3302)">
<path d="M19.52 6L12.48 22M18.24 9.84C22.08 9.84 24 11.76 24 14C24 16.24 22.08 18.16 18.24 18.16M13.76 9.84C9.92 9.84 8 11.76 8 14C8 16.24 9.92 18.16 13.76 18.16" stroke="#F1E6FA" stroke-width="2" stroke-linecap="round"/>
</g>
</g>
</g>
<defs>
<filter id="filter0_f_7483_3302" x="-7.99998" y="-8" width="48" height="48" filterUnits="userSpaceOnUse" color-interpolation-filters="sRGB">
<feFlood flood-opacity="0" result="BackgroundImageFix"/>
<feBlend mode="normal" in="SourceGraphic" in2="BackgroundImageFix" result="shape"/>
<feGaussianBlur stdDeviation="4" result="effect1_foregroundBlur_7483_3302"/>
</filter>
<filter id="filter1_f_7483_3302" x="5" y="7.99975" width="22" height="22.0005" filterUnits="userSpaceOnUse" color-interpolation-filters="sRGB">
<feFlood flood-opacity="0" result="BackgroundImageFix"/>
<feBlend mode="normal" in="SourceGraphic" in2="BackgroundImageFix" result="shape"/>
<feGaussianBlur stdDeviation="1" result="effect1_foregroundBlur_7483_3302"/>
</filter>
<filter id="filter2_f_7483_3302" x="6.5" y="5.49987" width="19" height="19.0002" filterUnits="userSpaceOnUse" color-interpolation-filters="sRGB">
<feFlood flood-opacity="0" result="BackgroundImageFix"/>
<feBlend mode="normal" in="SourceGraphic" in2="BackgroundImageFix" result="shape"/>
<feGaussianBlur stdDeviation="0.5" result="effect1_foregroundBlur_7483_3302"/>
</filter>
<filter id="filter3_f_7483_3302" x="5" y="2.99975" width="22" height="22.0005" filterUnits="userSpaceOnUse" color-interpolation-filters="sRGB">
<feFlood flood-opacity="0" result="BackgroundImageFix"/>
<feBlend mode="normal" in="SourceGraphic" in2="BackgroundImageFix" result="shape"/>
<feGaussianBlur stdDeviation="1" result="effect1_foregroundBlur_7483_3302"/>
</filter>
<radialGradient id="paint0_radial_7483_3302" cx="0" cy="0" r="1" gradientUnits="userSpaceOnUse" gradientTransform="translate(32 32) scale(32)">
<stop stop-color="#3333FF"/>
<stop offset="0.96" stop-color="#3333FF" stop-opacity="0"/>
</radialGradient>
<radialGradient id="paint1_radial_7483_3302" cx="0" cy="0" r="1" gradientUnits="userSpaceOnUse" gradientTransform="translate(48 64) rotate(-90) scale(16 16)">
<stop stop-color="#D4C5EB"/>
<stop offset="1" stop-color="#0C0C14" stop-opacity="0"/>
</radialGradient>
<linearGradient id="paint2_linear_7483_3302" x1="48" y1="48" x2="48" y2="64" gradientUnits="userSpaceOnUse">
<stop stop-color="#0C0C14" stop-opacity="0"/>
<stop offset="1" stop-color="#F1E6FA" stop-opacity="0.48"/>
</linearGradient>
<radialGradient id="paint3_radial_7483_3302" cx="0" cy="0" r="1" gradientUnits="userSpaceOnUse" gradientTransform="translate(48 64) rotate(-90) scale(32 20.2233)">
<stop stop-color="#FF7847"/>
<stop offset="0.96" stop-color="#3333FF" stop-opacity="0"/>
</radialGradient>
</defs>
</svg>
