<svg width="20" height="18" viewBox="0 0 20 18" fill="none" xmlns="http://www.w3.org/2000/svg">
    <path d="M13 9L12 10C10.2349 11.7651 9.35231 12.6477 8.26914 12.7453C8.09008 12.7614 7.90992 12.7614 7.73086 12.7453C6.64769 12.6477 5.76513 11.7651 4 10L3 9C2.18212 8.18212 1.77319 7.77319 1.55458 7.33205C1.13866 6.49272 1.13866 5.50728 1.55458 4.66795C1.77319 4.22681 2.18213 3.81787 3 3V3C3.81787 2.18213 4.22681 1.77319 4.66795 1.55458C5.50728 1.13866 6.49272 1.13866 7.33205 1.55458C7.77319 1.77319 8.18213 2.18213 9 3V3M7 9L8 8C9.76513 6.23487 10.6477 5.35231 11.7309 5.25474C11.9099 5.23861 12.0901 5.23861 12.2691 5.25474C13.3523 5.35231 14.2349 6.23487 16 8L17 9C17.8179 9.81788 18.2268 10.2268 18.4454 10.668C18.8613 11.5073 18.8613 12.4927 18.4454 13.332C18.2268 13.7732 17.8179 14.1821 17 15V15C16.1821 15.8179 15.7732 16.2268 15.332 16.4454C14.4927 16.8613 13.5073 16.8613 12.668 16.4454C12.2268 16.2268 11.8179 15.8179 11 15V15" stroke="url(#paint0_radial_2883_844)" stroke-width="2"/>
    <defs>
        <radialGradient id="paint0_radial_2883_844" cx="0" cy="0" r="1" gradientUnits="userSpaceOnUse" gradientTransform="translate(20) rotate(138.013) scale(26.9072 26.7586)">
            <stop offset="0.25" stop-color="#F1E6FA"/>
            <stop offset="0.4" stop-color="#D4C5EB"/>
            <stop offset="0.8" stop-color="#5858F5"/>
        </radialGradient>
    </defs>
</svg>