<svg width="11" height="13" viewBox="0 0 11 13" fill="none" xmlns="http://www.w3.org/2000/svg">
<mask id="path-1-inside-1_4238_5473" fill="white">
<path d="M10.728 10.7279C9.88888 11.567 8.81978 12.1385 7.65589 12.37C6.49201 12.6015 5.28561 12.4827 4.18925 12.0286C3.09289 11.5744 2.15582 10.8054 1.49653 9.8187C0.837246 8.83201 0.485352 7.67197 0.485352 6.48528C0.485352 5.29859 0.837246 4.13855 1.49653 3.15186C2.15582 2.16516 3.09289 1.39613 4.18925 0.942004C5.28561 0.487878 6.49201 0.369058 7.65589 0.60057C8.81978 0.832081 9.88888 1.40353 10.728 2.24264L9.87946 3.09117C9.20817 2.41988 8.35289 1.96272 7.42179 1.77751C6.49068 1.5923 5.52556 1.68736 4.64847 2.05066C3.77139 2.41396 3.02173 3.02919 2.4943 3.81854C1.96687 4.6079 1.68535 5.53593 1.68535 6.48528C1.68535 7.43463 1.96687 8.36266 2.4943 9.15202C3.02173 9.94137 3.77139 10.5566 4.64847 10.9199C5.52556 11.2832 6.49068 11.3783 7.42179 11.1931C8.35289 11.0078 9.20817 10.5507 9.87946 9.87939L10.728 10.7279Z"/>
</mask>
<path d="M10.728 10.7279C9.88888 11.567 8.81978 12.1385 7.65589 12.37C6.49201 12.6015 5.28561 12.4827 4.18925 12.0286C3.09289 11.5744 2.15582 10.8054 1.49653 9.8187C0.837246 8.83201 0.485352 7.67197 0.485352 6.48528C0.485352 5.29859 0.837246 4.13855 1.49653 3.15186C2.15582 2.16516 3.09289 1.39613 4.18925 0.942004C5.28561 0.487878 6.49201 0.369058 7.65589 0.60057C8.81978 0.832081 9.88888 1.40353 10.728 2.24264L9.87946 3.09117C9.20817 2.41988 8.35289 1.96272 7.42179 1.77751C6.49068 1.5923 5.52556 1.68736 4.64847 2.05066C3.77139 2.41396 3.02173 3.02919 2.4943 3.81854C1.96687 4.6079 1.68535 5.53593 1.68535 6.48528C1.68535 7.43463 1.96687 8.36266 2.4943 9.15202C3.02173 9.94137 3.77139 10.5566 4.64847 10.9199C5.52556 11.2832 6.49068 11.3783 7.42179 11.1931C8.35289 11.0078 9.20817 10.5507 9.87946 9.87939L10.728 10.7279Z" stroke="url(#paint0_linear_4238_5473)" stroke-width="3" mask="url(#path-1-inside-1_4238_5473)"/>
<defs>
<linearGradient id="paint0_linear_4238_5473" x1="9.31378" y1="3.65685" x2="2.24271" y2="10.7279" gradientUnits="userSpaceOnUse">
<stop stop-color="white" stop-opacity="0"/>
<stop offset="1" stop-color="#F1E6FA"/>
</linearGradient>
</defs>
</svg>
