<svg width="24" height="24" viewBox="0 0 24 24" fill="none" xmlns="http://www.w3.org/2000/svg">
<path fill-rule="evenodd" clip-rule="evenodd" d="M15.2692 3C16.0796 3 16.9358 3.29225 17.7201 3.61484L18.2941 3.85763C19.6666 4.45112 20.4378 5.69655 21.0358 7.06449C22.0064 9.28445 22.6806 12.244 22.9137 14.4943C23.0248 15.5621 23.0521 16.6367 22.8527 17.3595C22.6381 18.1317 21.9083 18.678 21.1992 19.1073L20.8485 19.313L20.4846 19.5221C20.2958 19.63 20.1052 19.7364 19.9128 19.8413L19.3442 20.1448L18.5632 20.5461L17.9347 20.8653C17.8063 20.9368 17.6653 20.9809 17.52 20.995C17.3748 21.0092 17.2283 20.9931 17.0892 20.9477C16.9501 20.9023 16.8213 20.8285 16.7103 20.7308C16.5994 20.633 16.5086 20.5133 16.4434 20.3787C16.3781 20.244 16.3398 20.0972 16.3305 19.947C16.3213 19.7968 16.3414 19.6461 16.3897 19.5041C16.438 19.362 16.5134 19.2314 16.6115 19.12C16.7096 19.0086 16.8284 18.9187 16.9608 18.8556L17.8214 18.4172L17.1896 17.7326C15.6755 18.3733 13.8923 18.7364 11.9981 18.7364C10.1038 18.7364 8.3207 18.3745 6.8066 17.7326L6.17482 18.4161L7.03862 18.8544C7.16664 18.9204 7.28082 19.0118 7.37463 19.1233C7.46844 19.2348 7.54005 19.3643 7.58537 19.5044C7.63068 19.6444 7.64882 19.7923 7.63873 19.9396C7.62865 20.087 7.59055 20.2308 7.52661 20.3629C7.46267 20.495 7.37414 20.6128 7.26607 20.7096C7.158 20.8064 7.03252 20.8803 6.89678 20.9271C6.62263 21.0215 6.32336 20.9997 6.0648 20.8664L5.47224 20.563C5.03435 20.3381 4.59537 20.1156 4.16184 19.8807L3.15099 19.313L2.80133 19.1073C2.09221 18.678 1.36131 18.1317 1.14781 17.3595C0.947381 16.6367 0.975702 15.5633 1.08572 14.4932C1.31882 12.244 1.99309 9.28445 2.96363 7.06449C3.56165 5.69655 4.33285 4.45112 5.70534 3.85763C6.61598 3.46422 7.71942 3 8.73026 3C9.3871 3 9.90342 3.62384 9.80865 4.28926C10.5337 4.17998 11.2654 4.12476 11.9981 4.12403C12.7508 4.12403 13.486 4.18023 14.1919 4.29039C14.1709 4.13076 14.183 3.96836 14.2274 3.81392C14.2718 3.65948 14.3475 3.51654 14.4494 3.39455C14.5514 3.27256 14.6773 3.1743 14.8188 3.10628C14.9603 3.03827 15.1131 3.00204 15.2692 3ZM8.45794 10.3062C7.95238 10.3062 7.46752 10.5134 7.11003 10.8823C6.75255 11.2512 6.55171 11.7515 6.55171 12.2732C6.55171 12.7949 6.75255 13.2953 7.11003 13.6642C7.46752 14.033 7.95238 14.2403 8.45794 14.2403C8.96351 14.2403 9.44837 14.033 9.80586 13.6642C10.1633 13.2953 10.3642 12.7949 10.3642 12.2732C10.3642 11.7515 10.1633 11.2512 9.80586 10.8823C9.44837 10.5134 8.96351 10.3062 8.45794 10.3062ZM15.5382 10.3062C15.0327 10.3062 14.5478 10.5134 14.1903 10.8823C13.8328 11.2512 13.632 11.7515 13.632 12.2732C13.632 12.7949 13.8328 13.2953 14.1903 13.6642C14.5478 14.033 15.0327 14.2403 15.5382 14.2403C16.0438 14.2403 16.5287 14.033 16.8862 13.6642C17.2436 13.2953 17.4445 12.7949 17.4445 12.2732C17.4445 11.7515 17.2436 11.2512 16.8862 10.8823C16.5287 10.5134 16.0438 10.3062 15.5382 10.3062Z" fill="url(#paint0_radial_12228_1435)"/>
<defs>
<radialGradient id="paint0_radial_12228_1435" cx="0" cy="0" r="1" gradientUnits="userSpaceOnUse" gradientTransform="translate(23 3) rotate(140.711) scale(28.4253 27.8625)">
<stop offset="0.25" stop-color="#F1E6FA"/>
<stop offset="0.600962" stop-color="#FFBC70"/>
<stop offset="0.884615" stop-color="#FF7847"/>
</radialGradient>
</defs>
</svg>
