<svg xmlns="http://www.w3.org/2000/svg" width="20" height="16" viewBox="0 0 20 16" fill="none">
    <path fill-rule="evenodd" clip-rule="evenodd" d="M11.9992 13L11.9933 15.003C11.9923 15.473 11.9913 15.708 11.8444 15.854C11.6976 16 11.4629 16 10.9915 16H7.98526C4.20997 16 2.32233 16 1.1488 14.828C0.339807 14.022 0.0891194 12.877 0.0102179 11.011C-0.00476339 10.641 -0.0127534 10.455 0.0561606 10.332C0.126073 10.209 0.40073 10.055 0.952042 9.746C1.26259 9.57266 1.52127 9.31942 1.70135 9.01247C1.88143 8.70552 1.97637 8.35599 1.97637 8C1.97637 7.64401 1.88143 7.29448 1.70135 6.98753C1.52127 6.68058 1.26259 6.42734 0.952042 6.254C0.40073 5.946 0.125075 5.791 0.0561606 5.668C-0.0127534 5.545 -0.00476346 5.36 0.0112166 4.989C0.0891193 3.123 0.340805 1.979 1.1488 1.172C2.32133 8.34465e-07 4.20898 1.00209e-06 7.98526 1.00209e-06H11.4909C11.5565 -0.000130451 11.6214 0.0126723 11.6821 0.0376783C11.7427 0.0626843 11.7978 0.0994036 11.8443 0.14574C11.8908 0.192077 11.9276 0.247122 11.9529 0.307735C11.9781 0.368348 11.9911 0.43334 11.9913 0.499001L11.9992 3C11.9992 3.19915 12.0576 3.38476 12.1582 3.54068C12.4575 4.00482 13 4.44772 13 5C13 5.55229 12.4575 5.99519 12.1582 6.45932C12.0576 6.61524 11.9992 6.80085 11.9992 7V9C11.9992 9.19915 12.0576 9.38476 12.1582 9.54068C12.4575 10.0048 13 10.4477 13 11C13 11.5523 12.4575 11.9952 12.1582 12.4593C12.0576 12.6152 11.9992 12.8009 11.9992 13Z" fill="url(#paint0_radial_2883_1154)"/>
    <path d="M13 11.0111C13 11.5649 13.5439 12.0088 13.8445 12.4739C13.9457 12.6303 14.0044 12.8166 14.0044 13.0166V14.998C14.0044 15.4813 14.0044 15.7229 14.1597 15.8703C14.3141 16.0187 14.5507 16.0087 15.0248 15.9887C16.8922 15.9094 18.0389 15.6568 18.8478 14.8496C19.6587 14.0414 19.9103 12.8922 19.9895 11.0211C20.0045 10.6501 20.0125 10.4646 19.9434 10.3413C19.8742 10.217 19.5976 10.0625 19.0443 9.75369C18.7326 9.57987 18.473 9.32595 18.2922 9.01816C18.1115 8.71037 18.0162 8.35989 18.0162 8.00292C18.0162 7.64596 18.1115 7.29548 18.2922 6.98769C18.473 6.6799 18.7326 6.42598 19.0443 6.25216C19.5976 5.94232 19.8742 5.7879 19.9434 5.66456C20.0135 5.54022 20.0045 5.35472 19.9895 4.98371C19.9103 3.11262 19.6587 1.96449 18.8468 1.15529C17.9677 0.277901 16.6877 0.0562981 14.5146 0.000145295C14.4481 -0.00145962 14.3821 0.0102451 14.3202 0.0345703C14.2584 0.0588955 14.202 0.0953497 14.1545 0.141787C14.107 0.188225 14.0692 0.243707 14.0434 0.304968C14.0176 0.366229 14.0043 0.432031 14.0044 0.498501V2.98928C14.0044 3.19209 13.9439 3.38198 13.8401 3.54118C13.5391 4.00271 13 4.4467 13 4.99773C13 5.54955 13.5373 5.99989 13.8402 6.46112C13.9436 6.61857 14.0044 6.80455 14.0044 7.0002V9.00565C14.0044 9.20558 13.9457 9.39189 13.8445 9.54835C13.5439 10.0134 13 10.4573 13 11.0111Z" fill="url(#paint1_radial_2883_1154)"/>
    <defs>
        <radialGradient id="paint0_radial_2883_1154" cx="0" cy="0" r="1" gradientUnits="userSpaceOnUse" gradientTransform="translate(13 1.10641e-06) rotate(129.094) scale(20.6155 16.7501)">
            <stop offset="0.25" stop-color="#F1E6FA"/>
            <stop offset="0.4" stop-color="#D4C5EB"/>
            <stop offset="0.8" stop-color="#5858F5"/>
        </radialGradient>
        <radialGradient id="paint1_radial_2883_1154" cx="0" cy="0" r="1" gradientUnits="userSpaceOnUse" gradientTransform="translate(20) rotate(113.629) scale(17.4642 7.64061)">
            <stop offset="0.25" stop-color="#F1E6FA"/>
            <stop offset="0.4" stop-color="#D4C5EB"/>
            <stop offset="0.8" stop-color="#5858F5"/>
        </radialGradient>
    </defs>
</svg>