<svg xmlns="http://www.w3.org/2000/svg" width="18" height="16" viewBox="0 0 18 16" fill="none">
  <path d="M17.3979 10.875L11.9844 1.85991C11.2738 0.676997 10.1869 0 9.00019 0C7.81346 0 6.72654 0.676997 6.01597 1.85808L0.602438 10.875C-0.117291 12.0725 -0.19604 13.3497 0.387252 14.3789C0.969628 15.409 2.10691 16 3.50608 16H14.4943C15.8935 16 17.0307 15.409 17.6131 14.3798C18.1955 13.3506 18.1177 12.0734 17.3979 10.875ZM9.00019 13.8428C8.21819 13.8428 7.58088 13.207 7.58088 12.4257C7.58088 11.6435 8.21728 11.0067 9.00019 11.0067C9.7831 11.0067 10.4195 11.6435 10.4195 12.4257C10.4195 13.207 9.78218 13.8428 9.00019 13.8428ZM10.4955 5.05089C10.4854 5.07925 9.21263 10.2236 9.21263 10.2236C9.17783 10.3096 9.09359 10.3663 9.0011 10.3663C8.90862 10.3663 8.82438 10.3096 8.78958 10.2236L7.51586 5.07834C7.43943 4.8877 7.39937 4.68446 7.39774 4.4791C7.39774 3.59626 8.11655 2.87809 9.00019 2.87809C9.25971 2.87876 9.5152 2.94232 9.74473 3.06332C9.97426 3.18432 10.171 3.35915 10.318 3.5728C10.4651 3.78646 10.558 4.03257 10.5889 4.29001C10.6199 4.54745 10.5878 4.80855 10.4955 5.05089Z" fill="url(#paint0_radial_12266_844)"/>
  <defs>
    <radialGradient id="paint0_radial_12266_844" cx="0" cy="0" r="1" gradientTransform="matrix(-18 16 -18 -16 18 -4.76837e-07)" gradientUnits="userSpaceOnUse">
      <stop offset="0.25" stop-color="#F1E6FA"/>
      <stop offset="0.600962" stop-color="#FFBC70"/>
      <stop offset="0.884615" stop-color="#FF7847"/>
    </radialGradient>
  </defs>
</svg>