<svg width="1536" height="24" viewBox="0 0 1536 24" fill="none" xmlns="http://www.w3.org/2000/svg">
<path fill-rule="evenodd" clip-rule="evenodd" d="M43.145 2.24568V17.3366C43.145 17.5268 42.992 17.6802 42.8022 17.6802H41.343C41.2389 17.6802 41.1381 17.6311 41.0738 17.5483L35.1665 9.91232V23.6565C35.1665 23.8466 35.0135 24 34.8237 24H0.342636C0.152962 24 0 23.8466 0 23.6565V0.343609C0 0.153393 0.152962 0 0.342636 0H36.7847C36.9745 0 37.1275 0.153393 37.1275 0.343609V1.90209C37.1275 2.0923 36.9745 2.24568 36.7847 2.24568H2.23938V21.7574H32.9271V6.66343C32.9271 6.47322 33.0799 6.31983 33.2697 6.31983H34.9156C35.0195 6.31983 35.1206 6.36892 35.1849 6.45175L40.9057 13.8546V0.343609C40.9057 0.153393 41.0584 0 41.2482 0H87.6574C87.847 0 88 0.153393 88 0.343609V23.6565C88 23.8466 87.847 24 87.6574 24H39.2842C39.0944 24 38.9416 23.8466 38.9416 23.6565V22.0979C38.9416 21.9078 39.0944 21.7544 39.2842 21.7544H85.7607V2.24568H43.145ZM50.5607 12.0354V12.0016V11.9955C50.5607 8.69751 53.2222 6.11434 56.621 6.11434C58.576 6.11434 59.7446 6.596 60.7604 7.34763C60.9194 7.46729 60.9469 7.69736 60.8184 7.84771L59.8303 9.01962C59.7171 9.15768 59.5152 9.18223 59.3715 9.07791C58.579 8.4981 57.7714 8.14836 56.5355 8.14836C54.5591 8.14836 52.95 9.86022 52.95 11.9648V11.9985C52.95 14.2504 54.5377 15.8825 56.7221 15.8825C57.7195 15.8825 58.6035 15.6278 59.2828 15.1493L59.3561 15.0971V12.2839C59.3561 12.0936 59.5091 11.9402 59.6987 11.9402H61.2038C61.3936 11.9402 61.5465 12.0936 61.5465 12.2839V15.95C61.5465 16.0573 61.4976 16.1586 61.415 16.223C60.0138 17.3244 58.4109 17.8827 56.6394 17.8827C53.0601 17.8827 50.5607 15.4775 50.5607 12.0354ZM7.21373 6.66345V17.3397C7.21373 17.5299 7.36668 17.6833 7.55636 17.6833H15.0729C15.2626 17.6833 15.4156 17.5299 15.4156 17.3397V16.0266C15.4156 15.8364 15.2626 15.683 15.0729 15.683H9.48676V6.66345C9.48676 6.47326 9.33378 6.31985 9.1441 6.31985H7.55331C7.36363 6.31985 7.21066 6.47326 7.21066 6.66345H7.21373ZM24.5231 6.31985H22.9354C22.746 6.31985 22.5928 6.47369 22.5928 6.66345V17.3397C22.5928 17.5294 22.746 17.6833 22.9354 17.6833H24.5231C24.7123 17.6833 24.8657 17.5294 24.8657 17.3397V6.66345C24.8657 6.47369 24.7123 6.31985 24.5231 6.31985ZM74.7871 6.11734C71.3301 6.11734 68.6257 8.7005 68.6257 11.9985V12.0322C68.6257 15.367 71.2598 17.8796 74.7534 17.8796C78.2472 17.8796 80.9148 15.2965 80.9148 11.9985V11.9647C80.9148 8.62993 78.2807 6.11734 74.7871 6.11734ZM78.5255 12.0322C78.5255 14.2073 76.9193 15.8487 74.7871 15.8487C72.6547 15.8487 71.015 14.1583 71.015 11.9985V11.9647C71.015 9.7896 72.6212 8.14827 74.7534 8.14827C76.8858 8.14827 78.5255 9.83869 78.5255 11.9985V12.0322Z" fill="#9A9AB8"/>
<path d="M1257.43 9.67917V8.25H1263.43V9.67917H1261.24V17H1259.62V9.67917H1257.43ZM1265.42 17V8.25H1269.99V9.63056H1266.96V11.1083H1269.31V12.45H1266.96V15.5708H1269.99V17H1265.42ZM1272.13 17V8.25H1274.68C1275.3 8.25 1275.82 8.37315 1276.26 8.61944C1276.7 8.85926 1277.03 9.18333 1277.27 9.59167C1277.5 9.99352 1277.62 10.4343 1277.62 10.9139C1277.62 11.3741 1277.51 11.7921 1277.29 12.1681C1277.07 12.5375 1276.77 12.8356 1276.38 13.0625L1278.85 17H1277.09L1274.93 13.5H1273.67V17H1272.13ZM1273.67 12.1681H1274.65C1274.98 12.1681 1275.25 12.1065 1275.46 11.9833C1275.67 11.8602 1275.83 11.7014 1275.94 11.5069C1276.04 11.3125 1276.09 11.1148 1276.09 10.9139C1276.09 10.5574 1275.96 10.2625 1275.69 10.0292C1275.43 9.79583 1275.08 9.67917 1274.65 9.67917H1273.67V12.1681ZM1280.39 17V7.95833L1284.52 13.2375L1288.59 7.95833V17H1287.04V14.1028C1287.04 13.8241 1287.04 13.513 1287.05 13.1694C1287.06 12.8194 1287.09 12.4241 1287.14 11.9833C1286.94 12.3204 1286.74 12.6153 1286.55 12.8681C1286.37 13.1208 1286.19 13.3542 1286.04 13.5681L1284.49 15.6778L1282.89 13.5681C1282.73 13.3671 1282.56 13.1306 1282.35 12.8583C1282.16 12.5796 1281.97 12.2782 1281.77 11.9542C1281.82 12.4144 1281.85 12.8162 1281.86 13.1597C1281.86 13.5032 1281.87 13.8176 1281.87 14.1028V17H1280.39ZM1293.31 17.175C1292.79 17.175 1292.29 17.0745 1291.82 16.8736C1291.36 16.6727 1291 16.4296 1290.73 16.1444L1291.16 14.3556C1291.38 14.7444 1291.68 15.075 1292.09 15.3472C1292.49 15.613 1292.92 15.7458 1293.37 15.7458C1293.75 15.7458 1294.06 15.6389 1294.28 15.425C1294.51 15.2046 1294.62 14.9356 1294.62 14.6181C1294.62 14.3653 1294.57 14.1579 1294.45 13.9958C1294.33 13.8338 1294.2 13.7042 1294.04 13.6069C1293.89 13.5032 1293.75 13.4255 1293.64 13.3736L1292.6 12.8486C1292.34 12.7125 1292.07 12.5505 1291.8 12.3625C1291.54 12.1681 1291.32 11.9218 1291.13 11.6236C1290.96 11.319 1290.87 10.9431 1290.87 10.4958C1290.87 10.0162 1290.98 9.59491 1291.2 9.23194C1291.42 8.86898 1291.73 8.58704 1292.13 8.38611C1292.53 8.1787 1292.99 8.075 1293.52 8.075C1294.02 8.075 1294.47 8.15926 1294.87 8.32778C1295.26 8.48981 1295.58 8.66481 1295.82 8.85278L1295.4 10.6028C1295.17 10.2852 1294.88 10.0194 1294.53 9.80556C1294.18 9.59167 1293.82 9.48472 1293.45 9.48472C1293.11 9.48472 1292.85 9.57546 1292.66 9.75694C1292.48 9.93194 1292.39 10.1523 1292.39 10.4181C1292.39 10.5931 1292.43 10.7454 1292.5 10.875C1292.59 11.0046 1292.7 11.1181 1292.83 11.2153C1292.96 11.306 1293.11 11.3903 1293.26 11.4681L1294.32 11.9931C1294.48 12.0708 1294.67 12.1745 1294.87 12.3042C1295.07 12.4338 1295.28 12.5991 1295.47 12.8C1295.66 12.9944 1295.82 13.2343 1295.95 13.5194C1296.08 13.7981 1296.14 14.1319 1296.14 14.5208C1296.14 15.0264 1296.02 15.4801 1295.78 15.8819C1295.55 16.2773 1295.22 16.5917 1294.8 16.825C1294.38 17.0583 1293.89 17.175 1293.31 17.175ZM1304.14 17.1556C1303.56 17.1556 1303.04 17.0356 1302.59 16.7958C1302.14 16.556 1301.78 16.2287 1301.52 15.8139C1301.26 15.3926 1301.13 14.9162 1301.13 14.3847C1301.13 13.9894 1301.2 13.6394 1301.34 13.3347C1301.47 13.0236 1301.66 12.7481 1301.89 12.5083C1302.13 12.262 1302.4 12.0514 1302.7 11.8764L1302.61 11.7597C1302.44 11.5264 1302.29 11.2866 1302.17 11.0403C1302.05 10.7875 1301.99 10.5023 1301.99 10.1847C1301.99 9.78287 1302.09 9.42315 1302.29 9.10556C1302.49 8.78796 1302.75 8.54167 1303.09 8.36667C1303.42 8.18518 1303.78 8.09444 1304.16 8.09444C1304.56 8.09444 1304.93 8.18518 1305.27 8.36667C1305.62 8.54815 1305.89 8.79769 1306.11 9.11528C1306.32 9.42639 1306.43 9.77963 1306.43 10.175C1306.43 10.5639 1306.34 10.8912 1306.15 11.1569C1305.96 11.4162 1305.75 11.6236 1305.51 11.7792C1305.27 11.9282 1305.09 12.0384 1304.95 12.1097L1304.74 12.2264L1306.51 14.6667C1306.87 14.2065 1307.06 13.688 1307.09 13.1111L1308.09 14.4819C1307.88 14.9616 1307.61 15.3796 1307.27 15.7361L1308.19 17H1306.38L1306.09 16.6014C1305.79 16.7894 1305.48 16.9287 1305.15 17.0194C1304.82 17.1102 1304.49 17.1556 1304.14 17.1556ZM1304.31 15.8236C1304.5 15.8236 1304.68 15.8009 1304.85 15.7556C1305.03 15.7102 1305.19 15.6486 1305.35 15.5708L1303.43 12.8972C1303.31 12.9685 1303.19 13.0657 1303.06 13.1889C1302.93 13.312 1302.83 13.4611 1302.74 13.6361C1302.67 13.8111 1302.63 14.0185 1302.63 14.2583C1302.63 14.6796 1302.77 15.0458 1303.06 15.3569C1303.35 15.6681 1303.77 15.8236 1304.31 15.8236ZM1304 11.225L1304.32 11.05C1304.39 11.0111 1304.48 10.956 1304.58 10.8847C1304.69 10.8069 1304.79 10.7065 1304.87 10.5833C1304.96 10.4537 1305.01 10.2949 1305.01 10.1069C1305.01 9.88009 1304.93 9.68565 1304.78 9.52361C1304.63 9.36157 1304.44 9.28056 1304.21 9.28056C1303.97 9.28056 1303.78 9.36157 1303.63 9.52361C1303.48 9.67917 1303.41 9.86065 1303.41 10.0681C1303.41 10.2171 1303.44 10.3565 1303.51 10.4861C1303.58 10.6157 1303.67 10.7551 1303.78 10.9042L1304 11.225ZM1317.56 17.175C1316.93 17.175 1316.33 17.0583 1315.77 16.825C1315.21 16.5852 1314.72 16.2579 1314.29 15.8431C1313.87 15.4282 1313.54 14.9454 1313.3 14.3944C1313.07 13.8435 1312.95 13.2537 1312.95 12.625C1312.95 11.9963 1313.07 11.4065 1313.3 10.8556C1313.54 10.3046 1313.87 9.82176 1314.29 9.40694C1314.72 8.99213 1315.21 8.66806 1315.77 8.43472C1316.33 8.19491 1316.93 8.075 1317.56 8.075C1318.15 8.075 1318.7 8.17546 1319.22 8.37639C1319.74 8.57083 1320.2 8.84954 1320.61 9.2125L1320.16 11.0694C1319.9 10.6481 1319.56 10.2981 1319.12 10.0194C1318.68 9.74074 1318.17 9.60139 1317.6 9.60139C1317.05 9.60139 1316.55 9.7375 1316.1 10.0097C1315.65 10.2819 1315.3 10.6449 1315.03 11.0986C1314.77 11.5523 1314.64 12.0611 1314.64 12.625C1314.64 13.1824 1314.77 13.6912 1315.03 14.1514C1315.3 14.6051 1315.65 14.9681 1316.1 15.2403C1316.55 15.5125 1317.05 15.6486 1317.6 15.6486C1318.16 15.6486 1318.67 15.5093 1319.11 15.2306C1319.55 14.9454 1319.9 14.5954 1320.16 14.1806L1320.61 16.0375C1320.2 16.394 1319.74 16.6727 1319.22 16.8736C1318.7 17.0745 1318.15 17.175 1317.56 17.175ZM1326.65 17.175C1326.02 17.175 1325.42 17.0583 1324.86 16.825C1324.31 16.5852 1323.81 16.2579 1323.39 15.8431C1322.96 15.4282 1322.63 14.9454 1322.39 14.3944C1322.16 13.8435 1322.04 13.2537 1322.04 12.625C1322.04 11.9963 1322.16 11.4065 1322.39 10.8556C1322.63 10.3046 1322.96 9.82176 1323.39 9.40694C1323.81 8.99213 1324.31 8.66806 1324.86 8.43472C1325.42 8.19491 1326.02 8.075 1326.65 8.075C1327.29 8.075 1327.89 8.19491 1328.45 8.43472C1329.01 8.66806 1329.5 8.99213 1329.92 9.40694C1330.34 9.82176 1330.67 10.3046 1330.9 10.8556C1331.14 11.4065 1331.26 11.9963 1331.26 12.625C1331.26 13.2537 1331.14 13.8435 1330.9 14.3944C1330.67 14.9454 1330.34 15.4282 1329.92 15.8431C1329.5 16.2579 1329.01 16.5852 1328.45 16.825C1327.89 17.0583 1327.29 17.175 1326.65 17.175ZM1326.65 15.6486C1327.2 15.6486 1327.7 15.5125 1328.15 15.2403C1328.6 14.9681 1328.95 14.6019 1329.21 14.1417C1329.47 13.6815 1329.61 13.1759 1329.61 12.625C1329.61 12.0611 1329.47 11.5523 1329.21 11.0986C1328.95 10.6449 1328.6 10.2819 1328.15 10.0097C1327.7 9.7375 1327.2 9.60139 1326.65 9.60139C1326.09 9.60139 1325.59 9.7375 1325.14 10.0097C1324.7 10.2819 1324.34 10.6481 1324.09 11.1083C1323.83 11.562 1323.7 12.0676 1323.7 12.625C1323.7 13.1824 1323.83 13.6912 1324.09 14.1514C1324.34 14.6051 1324.7 14.9681 1325.14 15.2403C1325.59 15.5125 1326.09 15.6486 1326.65 15.6486ZM1340.33 17.2917L1334.86 11.7208V17H1333.38V7.95833L1338.84 13.5194V8.25H1340.33V17.2917ZM1342.91 17V8.25H1345.85C1346.57 8.25 1347.22 8.36991 1347.8 8.60972C1348.37 8.84306 1348.87 9.16389 1349.28 9.57222C1349.69 9.97407 1350 10.4407 1350.22 10.9722C1350.44 11.4972 1350.55 12.0481 1350.55 12.625C1350.55 13.2019 1350.44 13.756 1350.22 14.2875C1350 14.8125 1349.69 15.2792 1349.28 15.6875C1348.87 16.0894 1348.37 16.4102 1347.8 16.65C1347.22 16.8833 1346.57 17 1345.85 17H1342.91ZM1344.44 15.5708H1345.71C1346.25 15.5708 1346.71 15.4898 1347.11 15.3278C1347.5 15.1657 1347.83 14.9486 1348.1 14.6764C1348.36 14.3977 1348.56 14.0833 1348.69 13.7333C1348.82 13.3769 1348.89 13.0074 1348.89 12.625C1348.89 12.2426 1348.82 11.8764 1348.69 11.5264C1348.56 11.1699 1348.36 10.8523 1348.1 10.5736C1347.83 10.2949 1347.5 10.0778 1347.11 9.92222C1346.71 9.76019 1346.25 9.67917 1345.71 9.67917H1344.44V15.5708ZM1352.72 17V8.25H1354.36V17H1352.72ZM1356.42 9.67917V8.25H1362.42V9.67917H1360.23V17H1358.61V9.67917H1356.42ZM1364.48 17V8.25H1366.11V17H1364.48ZM1372.9 17.175C1372.27 17.175 1371.67 17.0583 1371.11 16.825C1370.55 16.5852 1370.06 16.2579 1369.63 15.8431C1369.21 15.4282 1368.88 14.9454 1368.64 14.3944C1368.41 13.8435 1368.29 13.2537 1368.29 12.625C1368.29 11.9963 1368.41 11.4065 1368.64 10.8556C1368.88 10.3046 1369.21 9.82176 1369.63 9.40694C1370.06 8.99213 1370.55 8.66806 1371.11 8.43472C1371.67 8.19491 1372.27 8.075 1372.9 8.075C1373.54 8.075 1374.14 8.19491 1374.7 8.43472C1375.26 8.66806 1375.75 8.99213 1376.17 9.40694C1376.59 9.82176 1376.92 10.3046 1377.15 10.8556C1377.39 11.4065 1377.51 11.9963 1377.51 12.625C1377.51 13.2537 1377.39 13.8435 1377.15 14.3944C1376.92 14.9454 1376.59 15.4282 1376.17 15.8431C1375.75 16.2579 1375.26 16.5852 1374.7 16.825C1374.14 17.0583 1373.54 17.175 1372.9 17.175ZM1372.9 15.6486C1373.45 15.6486 1373.95 15.5125 1374.4 15.2403C1374.84 14.9681 1375.2 14.6019 1375.46 14.1417C1375.72 13.6815 1375.86 13.1759 1375.86 12.625C1375.86 12.0611 1375.72 11.5523 1375.46 11.0986C1375.2 10.6449 1374.84 10.2819 1374.4 10.0097C1373.95 9.7375 1373.45 9.60139 1372.9 9.60139C1372.34 9.60139 1371.84 9.7375 1371.39 10.0097C1370.95 10.2819 1370.59 10.6481 1370.33 11.1083C1370.07 11.562 1369.94 12.0676 1369.94 12.625C1369.94 13.1824 1370.07 13.6912 1370.33 14.1514C1370.59 14.6051 1370.95 14.9681 1371.39 15.2403C1371.84 15.5125 1372.34 15.6486 1372.9 15.6486ZM1386.58 17.2917L1381.11 11.7208V17H1379.63V7.95833L1385.09 13.5194V8.25H1386.58V17.2917ZM1391.3 17.175C1390.78 17.175 1390.28 17.0745 1389.82 16.8736C1389.36 16.6727 1388.99 16.4296 1388.72 16.1444L1389.16 14.3556C1389.37 14.7444 1389.68 15.075 1390.08 15.3472C1390.48 15.613 1390.91 15.7458 1391.36 15.7458C1391.75 15.7458 1392.05 15.6389 1392.28 15.425C1392.5 15.2046 1392.62 14.9356 1392.62 14.6181C1392.62 14.3653 1392.56 14.1579 1392.44 13.9958C1392.33 13.8338 1392.19 13.7042 1392.03 13.6069C1391.88 13.5032 1391.75 13.4255 1391.64 13.3736L1390.6 12.8486C1390.33 12.7125 1390.06 12.5505 1389.8 12.3625C1389.53 12.1681 1389.31 11.9218 1389.13 11.6236C1388.95 11.319 1388.86 10.9431 1388.86 10.4958C1388.86 10.0162 1388.97 9.59491 1389.2 9.23194C1389.42 8.86898 1389.72 8.58704 1390.12 8.38611C1390.52 8.1787 1390.98 8.075 1391.51 8.075C1392.01 8.075 1392.46 8.15926 1392.86 8.32778C1393.26 8.48981 1393.57 8.66481 1393.81 8.85278L1393.4 10.6028C1393.16 10.2852 1392.87 10.0194 1392.52 9.80556C1392.17 9.59167 1391.81 9.48472 1391.44 9.48472C1391.1 9.48472 1390.84 9.57546 1390.65 9.75694C1390.47 9.93194 1390.38 10.1523 1390.38 10.4181C1390.38 10.5931 1390.42 10.7454 1390.5 10.875C1390.58 11.0046 1390.69 11.1181 1390.82 11.2153C1390.95 11.306 1391.1 11.3903 1391.26 11.4681L1392.32 11.9931C1392.48 12.0708 1392.66 12.1745 1392.86 12.3042C1393.07 12.4338 1393.27 12.5991 1393.46 12.8C1393.66 12.9944 1393.82 13.2343 1393.94 13.5194C1394.07 13.7981 1394.13 14.1319 1394.13 14.5208C1394.13 15.0264 1394.01 15.4801 1393.77 15.8819C1393.54 16.2773 1393.21 16.5917 1392.79 16.825C1392.38 17.0583 1391.88 17.175 1391.3 17.175Z" fill="#9A9AB8"/>
<path d="M134.125 18.8667C133.38 18.8667 132.676 18.7273 132.015 18.4486C131.361 18.1699 130.784 17.7843 130.285 17.2917C129.792 16.7991 129.403 16.2287 129.118 15.5806C128.839 14.9324 128.7 14.2389 128.7 13.5C128.7 12.7611 128.839 12.0676 129.118 11.4194C129.403 10.7713 129.792 10.2009 130.285 9.70833C130.784 9.21574 131.361 8.83009 132.015 8.55139C132.676 8.27269 133.38 8.13333 134.125 8.13333C134.877 8.13333 135.58 8.27269 136.235 8.55139C136.889 8.83009 137.463 9.21574 137.956 9.70833C138.455 10.2009 138.844 10.7713 139.122 11.4194C139.407 12.0676 139.55 12.7611 139.55 13.5C139.55 14.2389 139.407 14.9324 139.122 15.5806C138.844 16.2287 138.455 16.7991 137.956 17.2917C137.463 17.7843 136.889 18.1699 136.235 18.4486C135.58 18.7273 134.877 18.8667 134.125 18.8667ZM134.368 16.2417C133.843 16.2417 133.363 16.1185 132.929 15.8722C132.495 15.6259 132.148 15.2954 131.889 14.8806C131.636 14.4657 131.51 14.0056 131.51 13.5C131.51 12.9944 131.636 12.5343 131.889 12.1194C132.142 11.7046 132.485 11.3741 132.919 11.1278C133.36 10.8815 133.846 10.7583 134.378 10.7583C134.734 10.7583 135.075 10.8199 135.399 10.9431C135.729 11.0597 136.024 11.2315 136.283 11.4583L135.904 12.9264C135.762 12.6801 135.561 12.4662 135.301 12.2847C135.042 12.1032 134.744 12.0125 134.407 12.0125C134.115 12.0125 133.856 12.0806 133.629 12.2167C133.402 12.3528 133.221 12.5343 133.085 12.7611C132.949 12.9815 132.881 13.2278 132.881 13.5C132.881 13.7722 132.945 14.0218 133.075 14.2486C133.211 14.469 133.393 14.6472 133.619 14.7833C133.853 14.9194 134.115 14.9875 134.407 14.9875C134.744 14.9875 135.042 14.9 135.301 14.725C135.561 14.5435 135.762 14.3296 135.904 14.0833L136.283 15.5417C136.024 15.762 135.732 15.9338 135.408 16.0569C135.084 16.1801 134.738 16.2417 134.368 16.2417ZM134.125 17.6903C134.702 17.6903 135.243 17.5801 135.749 17.3597C136.254 17.1394 136.698 16.838 137.081 16.4556C137.463 16.0731 137.764 15.6292 137.985 15.1236C138.205 14.6181 138.315 14.0769 138.315 13.5C138.315 12.9231 138.205 12.3819 137.985 11.8764C137.764 11.3708 137.463 10.9269 137.081 10.5444C136.698 10.162 136.254 9.86065 135.749 9.64028C135.243 9.41991 134.702 9.30972 134.125 9.30972C133.548 9.30972 133.007 9.41991 132.501 9.64028C131.996 9.86065 131.552 10.162 131.169 10.5444C130.787 10.9269 130.486 11.3708 130.265 11.8764C130.045 12.3819 129.935 12.9231 129.935 13.5C129.935 14.0769 130.045 14.6181 130.265 15.1236C130.486 15.6292 130.787 16.0731 131.169 16.4556C131.552 16.838 131.996 17.1394 132.501 17.3597C133.007 17.5801 133.548 17.6903 134.125 17.6903ZM144.916 17L148.465 11.7792C148.62 11.5458 148.724 11.3514 148.776 11.1958C148.828 11.0403 148.853 10.8977 148.853 10.7681C148.853 10.4181 148.727 10.1199 148.474 9.87361C148.228 9.62731 147.923 9.50417 147.56 9.50417C147.197 9.50417 146.893 9.62731 146.647 9.87361C146.4 10.1199 146.277 10.4181 146.277 10.7681C146.277 11.2153 146.468 11.6009 146.851 11.925H145.091C144.89 11.5556 144.79 11.1667 144.79 10.7583C144.79 10.2722 144.913 9.82824 145.159 9.42639C145.405 9.01806 145.739 8.69074 146.16 8.44444C146.582 8.19815 147.052 8.075 147.57 8.075C148.082 8.075 148.552 8.19815 148.98 8.44444C149.408 8.68426 149.748 9.00833 150.001 9.41667C150.26 9.81852 150.39 10.269 150.39 10.7681C150.39 11.0727 150.335 11.3644 150.224 11.6431C150.114 11.9218 149.939 12.2296 149.699 12.5667L147.59 15.5708H150.506V17H144.916ZM155.355 17.175C154.804 17.175 154.328 17.0454 153.926 16.7861C153.531 16.5204 153.2 16.1671 152.934 15.7264C152.675 15.2856 152.481 14.7963 152.351 14.2583C152.228 13.7204 152.166 13.1759 152.166 12.625C152.166 12.0741 152.228 11.5296 152.351 10.9917C152.481 10.4537 152.675 9.96435 152.934 9.52361C153.2 9.08287 153.531 8.73287 153.926 8.47361C154.328 8.20787 154.804 8.075 155.355 8.075C155.906 8.075 156.379 8.20787 156.774 8.47361C157.176 8.73287 157.507 9.08287 157.766 9.52361C158.032 9.96435 158.226 10.4537 158.349 10.9917C158.479 11.5296 158.544 12.0741 158.544 12.625C158.544 13.1759 158.479 13.7204 158.349 14.2583C158.226 14.7963 158.032 15.2856 157.766 15.7264C157.507 16.1671 157.176 16.5204 156.774 16.7861C156.379 17.0454 155.906 17.175 155.355 17.175ZM155.355 15.7458C155.647 15.7458 155.893 15.6519 156.094 15.4639C156.301 15.2759 156.467 15.0296 156.59 14.725C156.719 14.4139 156.813 14.0769 156.872 13.7139C156.93 13.3444 156.959 12.9815 156.959 12.625C156.959 12.262 156.93 11.8991 156.872 11.5361C156.813 11.1731 156.719 10.8394 156.59 10.5347C156.467 10.2236 156.301 9.97407 156.094 9.78611C155.893 9.59815 155.647 9.50417 155.355 9.50417C155.063 9.50417 154.814 9.59815 154.606 9.78611C154.406 9.97407 154.24 10.2236 154.111 10.5347C153.987 10.8394 153.897 11.1731 153.838 11.5361C153.78 11.8991 153.751 12.262 153.751 12.625C153.751 12.9815 153.78 13.3444 153.838 13.7139C153.897 14.0769 153.987 14.4139 154.111 14.725C154.24 15.0296 154.406 15.2759 154.606 15.4639C154.814 15.6519 155.063 15.7458 155.355 15.7458ZM160.33 17L163.879 11.7792C164.034 11.5458 164.138 11.3514 164.19 11.1958C164.242 11.0403 164.268 10.8977 164.268 10.7681C164.268 10.4181 164.141 10.1199 163.889 9.87361C163.642 9.62731 163.338 9.50417 162.975 9.50417C162.612 9.50417 162.307 9.62731 162.061 9.87361C161.814 10.1199 161.691 10.4181 161.691 10.7681C161.691 11.2153 161.883 11.6009 162.265 11.925H160.505C160.304 11.5556 160.204 11.1667 160.204 10.7583C160.204 10.2722 160.327 9.82824 160.573 9.42639C160.82 9.01806 161.153 8.69074 161.575 8.44444C161.996 8.19815 162.466 8.075 162.984 8.075C163.496 8.075 163.966 8.19815 164.394 8.44444C164.822 8.68426 165.162 9.00833 165.415 9.41667C165.674 9.81852 165.804 10.269 165.804 10.7681C165.804 11.0727 165.749 11.3644 165.639 11.6431C165.528 11.9218 165.353 12.2296 165.114 12.5667L163.004 15.5708H165.92V17H160.33ZM170.828 17.175C170.244 17.175 169.713 17.0421 169.233 16.7764C168.754 16.5042 168.374 16.1412 168.096 15.6875C167.817 15.2273 167.678 14.712 167.678 14.1417C167.678 13.8759 167.713 13.6199 167.785 13.3736C167.856 13.1273 167.953 12.881 168.076 12.6347L170.38 8.25H172.023L170.39 11.2542C170.487 11.2088 170.588 11.1796 170.691 11.1667C170.795 11.1472 170.899 11.1375 171.003 11.1375C171.547 11.1375 172.043 11.2704 172.49 11.5361C172.944 11.8019 173.304 12.1616 173.569 12.6153C173.841 13.0625 173.978 13.5681 173.978 14.1319C173.978 14.7023 173.838 15.2176 173.56 15.6778C173.281 16.138 172.902 16.5042 172.422 16.7764C171.949 17.0421 171.417 17.175 170.828 17.175ZM170.828 15.7458C171.139 15.7458 171.417 15.6713 171.664 15.5222C171.91 15.3731 172.108 15.1755 172.257 14.9292C172.406 14.6829 172.48 14.4074 172.48 14.1028C172.48 13.8046 172.406 13.5324 172.257 13.2861C172.114 13.0333 171.916 12.8324 171.664 12.6833C171.417 12.5343 171.139 12.4597 170.828 12.4597C170.523 12.4597 170.244 12.5343 169.991 12.6833C169.745 12.8324 169.548 13.0333 169.398 13.2861C169.256 13.5324 169.185 13.8046 169.185 14.1028C169.185 14.4074 169.256 14.6829 169.398 14.9292C169.548 15.1755 169.745 15.3731 169.991 15.5222C170.244 15.6713 170.523 15.7458 170.828 15.7458ZM179.174 17V8.25H180.797V15.5708H183.529V17H179.174ZM185.15 17V11.1667H186.676V17H185.15ZM185.918 10.2722C185.678 10.2722 185.474 10.1912 185.305 10.0292C185.143 9.86065 185.062 9.65648 185.062 9.41667C185.062 9.17037 185.143 8.9662 185.305 8.80417C185.474 8.64213 185.678 8.56111 185.918 8.56111C186.164 8.56111 186.368 8.64213 186.53 8.80417C186.692 8.9662 186.773 9.17037 186.773 9.41667C186.773 9.65648 186.692 9.86065 186.53 10.0292C186.368 10.1912 186.164 10.2722 185.918 10.2722ZM188.54 17V11.1667H189.911V11.8861C190.125 11.5944 190.388 11.3741 190.699 11.225C191.01 11.0694 191.347 10.9917 191.71 10.9917C192.125 10.9917 192.51 11.0921 192.867 11.2931C193.23 11.494 193.521 11.7856 193.742 12.1681C193.962 12.544 194.072 13.0042 194.072 13.5486V17H192.546V13.7528C192.546 13.3898 192.439 13.069 192.225 12.7903C192.011 12.5116 191.707 12.3722 191.311 12.3722C190.987 12.3722 190.699 12.4856 190.446 12.7125C190.193 12.9329 190.067 13.2699 190.067 13.7236V17H188.54ZM198.309 20.0917C197.855 20.0917 197.427 20.0236 197.025 19.8875C196.63 19.7579 196.283 19.5796 195.985 19.3528L196.364 17.8069C196.572 18.0856 196.841 18.3125 197.171 18.4875C197.508 18.669 197.887 18.7597 198.309 18.7597C198.918 18.7597 199.398 18.5815 199.748 18.225C200.098 17.875 200.273 17.4213 200.273 16.8639V16.3778C200.039 16.6111 199.764 16.7958 199.446 16.9319C199.129 17.0681 198.779 17.1361 198.396 17.1361C197.865 17.1361 197.379 17 196.938 16.7278C196.497 16.4491 196.144 16.0796 195.878 15.6194C195.619 15.1528 195.489 14.6407 195.489 14.0833C195.489 13.5259 195.619 13.0171 195.878 12.5569C196.144 12.0903 196.497 11.7208 196.938 11.4486C197.379 11.1699 197.865 11.0306 198.396 11.0306C198.779 11.0306 199.132 11.0986 199.456 11.2347C199.78 11.3708 200.055 11.562 200.282 11.8083V11.1667H201.614V17.0583C201.614 17.6935 201.462 18.238 201.157 18.6917C200.853 19.1454 200.448 19.4921 199.942 19.7319C199.436 19.9718 198.892 20.0917 198.309 20.0917ZM198.581 15.7847C198.892 15.7847 199.171 15.7069 199.417 15.5514C199.67 15.3958 199.871 15.1917 200.02 14.9389C200.169 14.6796 200.243 14.3944 200.243 14.0833C200.243 13.7722 200.169 13.4903 200.02 13.2375C199.871 12.9782 199.67 12.7708 199.417 12.6153C199.171 12.4597 198.895 12.3819 198.591 12.3819C198.28 12.3819 197.998 12.4597 197.745 12.6153C197.498 12.7708 197.301 12.9782 197.152 13.2375C197.003 13.4903 196.928 13.7722 196.928 14.0833C196.928 14.3944 197.003 14.6796 197.152 14.9389C197.301 15.1917 197.498 15.3958 197.745 15.5514C197.998 15.7069 198.276 15.7847 198.581 15.7847ZM206.286 17.175C205.709 17.175 205.181 17.0356 204.701 16.7569C204.228 16.4782 203.852 16.1056 203.573 15.6389C203.295 15.1722 203.155 14.6537 203.155 14.0833C203.155 13.513 203.295 12.9944 203.573 12.5278C203.852 12.0611 204.228 11.6884 204.701 11.4097C205.181 11.131 205.706 10.9917 206.276 10.9917C206.859 10.9917 207.388 11.131 207.861 11.4097C208.334 11.6884 208.71 12.0611 208.989 12.5278C209.274 12.988 209.416 13.5065 209.416 14.0833C209.416 14.6472 209.274 15.1657 208.989 15.6389C208.71 16.1056 208.334 16.4782 207.861 16.7569C207.388 17.0356 206.863 17.175 206.286 17.175ZM206.276 15.7944C206.594 15.7944 206.879 15.7167 207.132 15.5611C207.384 15.4056 207.585 15.1981 207.734 14.9389C207.884 14.6796 207.958 14.3944 207.958 14.0833C207.958 13.7657 207.884 13.4806 207.734 13.2278C207.585 12.9685 207.384 12.7611 207.132 12.6056C206.879 12.45 206.594 12.3722 206.276 12.3722C205.965 12.3722 205.683 12.45 205.43 12.6056C205.178 12.7611 204.977 12.9685 204.828 13.2278C204.678 13.4806 204.604 13.7657 204.604 14.0833C204.604 14.3944 204.678 14.6796 204.828 14.9389C204.977 15.1981 205.178 15.4056 205.43 15.5611C205.683 15.7167 205.965 15.7944 206.276 15.7944ZM211.651 17.175C211.372 17.175 211.139 17.081 210.951 16.8931C210.769 16.7051 210.679 16.4718 210.679 16.1931C210.679 15.9208 210.773 15.6907 210.961 15.5028C211.149 15.3148 211.379 15.2208 211.651 15.2208C211.936 15.2208 212.169 15.3148 212.351 15.5028C212.539 15.6907 212.633 15.9241 212.633 16.2028C212.633 16.475 212.539 16.7051 212.351 16.8931C212.169 17.081 211.936 17.175 211.651 17.175ZM216.963 17L220.774 7.94861H220.794L224.615 17H223.011L222.262 15.1819H219.258L218.509 17H216.963ZM219.793 13.8986H221.727L221.27 12.8C221.173 12.5667 221.082 12.3398 220.998 12.1194C220.914 11.8926 220.833 11.6301 220.755 11.3319C220.677 11.6301 220.596 11.8894 220.512 12.1097C220.434 12.3301 220.347 12.5602 220.249 12.8L219.793 13.8986ZM225.906 17V7.66667H227.433V17H225.906ZM229.307 17V7.66667H230.833V17H229.307ZM236.029 17V11.1667H237.4V12.1875C237.608 11.8505 237.867 11.588 238.178 11.4C238.496 11.2056 238.872 11.1083 239.306 11.1083L239.646 12.4889C239.523 12.45 239.384 12.4306 239.228 12.4306C238.722 12.4306 238.317 12.5926 238.013 12.9167C237.708 13.2407 237.556 13.7009 237.556 14.2972V17H236.029ZM240.903 17V11.1667H242.429V17H240.903ZM241.671 10.2722C241.431 10.2722 241.227 10.1912 241.058 10.0292C240.896 9.86065 240.815 9.65648 240.815 9.41667C240.815 9.17037 240.896 8.9662 241.058 8.80417C241.227 8.64213 241.431 8.56111 241.671 8.56111C241.917 8.56111 242.121 8.64213 242.283 8.80417C242.445 8.9662 242.526 9.17037 242.526 9.41667C242.526 9.65648 242.445 9.86065 242.283 10.0292C242.121 10.1912 241.917 10.2722 241.671 10.2722ZM246.792 20.0917C246.338 20.0917 245.91 20.0236 245.509 19.8875C245.113 19.7579 244.766 19.5796 244.468 19.3528L244.847 17.8069C245.055 18.0856 245.324 18.3125 245.654 18.4875C245.991 18.669 246.371 18.7597 246.792 18.7597C247.401 18.7597 247.881 18.5815 248.231 18.225C248.581 17.875 248.756 17.4213 248.756 16.8639V16.3778C248.522 16.6111 248.247 16.7958 247.929 16.9319C247.612 17.0681 247.262 17.1361 246.879 17.1361C246.348 17.1361 245.862 17 245.421 16.7278C244.98 16.4491 244.627 16.0796 244.361 15.6194C244.102 15.1528 243.972 14.6407 243.972 14.0833C243.972 13.5259 244.102 13.0171 244.361 12.5569C244.627 12.0903 244.98 11.7208 245.421 11.4486C245.862 11.1699 246.348 11.0306 246.879 11.0306C247.262 11.0306 247.615 11.0986 247.939 11.2347C248.263 11.3708 248.539 11.562 248.765 11.8083V11.1667H250.097V17.0583C250.097 17.6935 249.945 18.238 249.64 18.6917C249.336 19.1454 248.931 19.4921 248.425 19.7319C247.92 19.9718 247.375 20.0917 246.792 20.0917ZM247.064 15.7847C247.375 15.7847 247.654 15.7069 247.9 15.5514C248.153 15.3958 248.354 15.1917 248.503 14.9389C248.652 14.6796 248.727 14.3944 248.727 14.0833C248.727 13.7722 248.652 13.4903 248.503 13.2375C248.354 12.9782 248.153 12.7708 247.9 12.6153C247.654 12.4597 247.378 12.3819 247.074 12.3819C246.763 12.3819 246.481 12.4597 246.228 12.6153C245.982 12.7708 245.784 12.9782 245.635 13.2375C245.486 13.4903 245.411 13.7722 245.411 14.0833C245.411 14.3944 245.486 14.6796 245.635 14.9389C245.784 15.1917 245.982 15.3958 246.228 15.5514C246.481 15.7069 246.759 15.7847 247.064 15.7847ZM251.959 17V7.66667H253.486V11.7014C253.693 11.4681 253.939 11.2931 254.225 11.1764C254.51 11.0532 254.811 10.9917 255.129 10.9917C255.544 10.9917 255.929 11.0921 256.286 11.2931C256.649 11.494 256.94 11.7856 257.161 12.1681C257.381 12.544 257.491 13.0042 257.491 13.5486V17H255.965V13.7528C255.965 13.3898 255.858 13.069 255.644 12.7903C255.43 12.5116 255.126 12.3722 254.73 12.3722C254.406 12.3722 254.118 12.4856 253.865 12.7125C253.612 12.9329 253.486 13.2699 253.486 13.7236V17H251.959ZM259.718 17V12.3917H258.571V11.1667H259.747V9.22222H261.215V11.1667H262.44V12.3917H261.245V17H259.718ZM265.641 17.175C265.271 17.175 264.892 17.1134 264.503 16.9903C264.115 16.8606 263.803 16.6792 263.57 16.4458L263.959 14.9681C264.147 15.2403 264.4 15.4736 264.717 15.6681C265.041 15.856 265.375 15.95 265.719 15.95C265.978 15.95 266.166 15.8981 266.283 15.7944C266.406 15.6843 266.467 15.5514 266.467 15.3958C266.467 15.2208 266.406 15.0944 266.283 15.0167C266.159 14.9324 266.036 14.8676 265.913 14.8222L265.106 14.5208C264.938 14.4495 264.74 14.3556 264.513 14.2389C264.286 14.1157 264.089 13.944 263.92 13.7236C263.758 13.4968 263.677 13.2019 263.677 12.8389C263.677 12.5083 263.758 12.2037 263.92 11.925C264.082 11.6463 264.315 11.4227 264.62 11.2542C264.931 11.0792 265.304 10.9917 265.738 10.9917C266.127 10.9917 266.496 11.0597 266.846 11.1958C267.203 11.3255 267.472 11.4875 267.653 11.6819L267.294 13.1208C267.086 12.8356 266.837 12.6153 266.545 12.4597C266.253 12.2977 265.971 12.2167 265.699 12.2167C265.472 12.2167 265.304 12.2685 265.194 12.3722C265.083 12.4694 265.028 12.5861 265.028 12.7222C265.028 12.8259 265.067 12.9231 265.145 13.0139C265.223 13.1046 265.349 13.1824 265.524 13.2472L266.283 13.5389C266.483 13.6102 266.704 13.7106 266.944 13.8403C267.183 13.9634 267.388 14.1384 267.556 14.3653C267.731 14.5921 267.819 14.9032 267.819 15.2986C267.819 15.856 267.615 16.3097 267.206 16.6597C266.804 17.0032 266.283 17.175 265.641 17.175ZM272.684 17V11.1667H274.055V12.1875C274.263 11.8505 274.522 11.588 274.833 11.4C275.15 11.2056 275.526 11.1083 275.961 11.1083L276.301 12.4889C276.178 12.45 276.038 12.4306 275.883 12.4306C275.377 12.4306 274.972 12.5926 274.668 12.9167C274.363 13.2407 274.211 13.7009 274.211 14.2972V17H272.684ZM280.312 17.175C279.67 17.175 279.1 17.0389 278.601 16.7667C278.108 16.4944 277.722 16.1218 277.444 15.6486C277.172 15.169 277.035 14.6278 277.035 14.025C277.035 13.4481 277.168 12.9329 277.434 12.4792C277.706 12.019 278.072 11.656 278.533 11.3903C278.993 11.1245 279.502 10.9917 280.059 10.9917C280.629 10.9917 281.138 11.1245 281.585 11.3903C282.039 11.6495 282.399 12.0028 282.665 12.45C282.93 12.8972 283.063 13.406 283.063 13.9764V14.5306H279.437C279.275 14.5306 279.116 14.5208 278.96 14.5014C278.805 14.4819 278.649 14.4593 278.494 14.4333C278.572 14.8546 278.776 15.2014 279.106 15.4736C279.437 15.7458 279.852 15.8819 280.351 15.8819C280.72 15.8819 281.054 15.8042 281.352 15.6486C281.65 15.4931 281.897 15.2986 282.091 15.0653L282.441 16.4944C282.149 16.7213 281.822 16.8898 281.459 17C281.096 17.1167 280.714 17.175 280.312 17.175ZM278.455 13.4903C278.785 13.4255 279.113 13.3931 279.437 13.3931H280.691C280.866 13.3931 281.031 13.3995 281.187 13.4125C281.342 13.4255 281.491 13.4449 281.634 13.4708C281.537 13.0949 281.346 12.7935 281.06 12.5667C280.782 12.3398 280.445 12.2264 280.049 12.2264C279.66 12.2264 279.323 12.3431 279.038 12.5764C278.753 12.8097 278.559 13.1144 278.455 13.4903ZM286.338 17.175C285.969 17.175 285.59 17.1134 285.201 16.9903C284.812 16.8606 284.501 16.6792 284.268 16.4458L284.657 14.9681C284.844 15.2403 285.097 15.4736 285.415 15.6681C285.739 15.856 286.073 15.95 286.416 15.95C286.676 15.95 286.863 15.8981 286.98 15.7944C287.103 15.6843 287.165 15.5514 287.165 15.3958C287.165 15.2208 287.103 15.0944 286.98 15.0167C286.857 14.9324 286.734 14.8676 286.611 14.8222L285.804 14.5208C285.635 14.4495 285.438 14.3556 285.211 14.2389C284.984 14.1157 284.786 13.944 284.618 13.7236C284.456 13.4968 284.375 13.2019 284.375 12.8389C284.375 12.5083 284.456 12.2037 284.618 11.925C284.78 11.6463 285.013 11.4227 285.318 11.2542C285.629 11.0792 286.001 10.9917 286.436 10.9917C286.825 10.9917 287.194 11.0597 287.544 11.1958C287.901 11.3255 288.169 11.4875 288.351 11.6819L287.991 13.1208C287.784 12.8356 287.534 12.6153 287.243 12.4597C286.951 12.2977 286.669 12.2167 286.397 12.2167C286.17 12.2167 286.001 12.2685 285.891 12.3722C285.781 12.4694 285.726 12.5861 285.726 12.7222C285.726 12.8259 285.765 12.9231 285.843 13.0139C285.92 13.1046 286.047 13.1824 286.222 13.2472L286.98 13.5389C287.181 13.6102 287.401 13.7106 287.641 13.8403C287.881 13.9634 288.085 14.1384 288.254 14.3653C288.429 14.5921 288.516 14.9032 288.516 15.2986C288.516 15.856 288.312 16.3097 287.904 16.6597C287.502 17.0032 286.98 17.175 286.338 17.175ZM293.005 17.175C292.364 17.175 291.793 17.0389 291.294 16.7667C290.802 16.4944 290.416 16.1218 290.137 15.6486C289.865 15.169 289.729 14.6278 289.729 14.025C289.729 13.4481 289.862 12.9329 290.128 12.4792C290.4 12.019 290.766 11.656 291.226 11.3903C291.686 11.1245 292.195 10.9917 292.753 10.9917C293.323 10.9917 293.832 11.1245 294.279 11.3903C294.733 11.6495 295.092 12.0028 295.358 12.45C295.624 12.8972 295.757 13.406 295.757 13.9764V14.5306H292.13C291.968 14.5306 291.809 14.5208 291.654 14.5014C291.498 14.4819 291.343 14.4593 291.187 14.4333C291.265 14.8546 291.469 15.2014 291.8 15.4736C292.13 15.7458 292.545 15.8819 293.044 15.8819C293.414 15.8819 293.747 15.8042 294.046 15.6486C294.344 15.4931 294.59 15.2986 294.784 15.0653L295.134 16.4944C294.843 16.7213 294.515 16.8898 294.153 17C293.79 17.1167 293.407 17.175 293.005 17.175ZM291.148 13.4903C291.479 13.4255 291.806 13.3931 292.13 13.3931H293.384C293.559 13.3931 293.725 13.3995 293.88 13.4125C294.036 13.4255 294.185 13.4449 294.328 13.4708C294.23 13.0949 294.039 12.7935 293.754 12.5667C293.475 12.3398 293.138 12.2264 292.743 12.2264C292.354 12.2264 292.017 12.3431 291.732 12.5764C291.447 12.8097 291.252 13.1144 291.148 13.4903ZM297.224 17V11.1667H298.594V12.1875C298.802 11.8505 299.061 11.588 299.372 11.4C299.69 11.2056 300.066 11.1083 300.5 11.1083L300.84 12.4889C300.717 12.45 300.578 12.4306 300.422 12.4306C299.917 12.4306 299.512 12.5926 299.207 12.9167C298.902 13.2407 298.75 13.7009 298.75 14.2972V17H297.224ZM304.576 17.2917L301.445 11.1667H303.147L304.129 13.2083C304.219 13.3833 304.304 13.5583 304.381 13.7333C304.459 13.9083 304.537 14.1125 304.615 14.3458C304.693 14.1125 304.77 13.9083 304.848 13.7333C304.926 13.5583 305.01 13.3833 305.101 13.2083L306.083 11.1667H307.706L304.576 17.2917ZM311.588 17.175C310.946 17.175 310.376 17.0389 309.876 16.7667C309.384 16.4944 308.998 16.1218 308.72 15.6486C308.447 15.169 308.311 14.6278 308.311 14.025C308.311 13.4481 308.444 12.9329 308.71 12.4792C308.982 12.019 309.348 11.656 309.808 11.3903C310.269 11.1245 310.777 10.9917 311.335 10.9917C311.905 10.9917 312.414 11.1245 312.861 11.3903C313.315 11.6495 313.675 12.0028 313.94 12.45C314.206 12.8972 314.339 13.406 314.339 13.9764V14.5306H310.713C310.551 14.5306 310.392 14.5208 310.236 14.5014C310.081 14.4819 309.925 14.4593 309.77 14.4333C309.847 14.8546 310.051 15.2014 310.382 15.4736C310.713 15.7458 311.127 15.8819 311.626 15.8819C311.996 15.8819 312.33 15.8042 312.628 15.6486C312.926 15.4931 313.172 15.2986 313.367 15.0653L313.717 16.4944C313.425 16.7213 313.098 16.8898 312.735 17C312.372 17.1167 311.989 17.175 311.588 17.175ZM309.731 13.4903C310.061 13.4255 310.389 13.3931 310.713 13.3931H311.967C312.142 13.3931 312.307 13.3995 312.463 13.4125C312.618 13.4255 312.767 13.4449 312.91 13.4708C312.813 13.0949 312.621 12.7935 312.336 12.5667C312.057 12.3398 311.72 12.2264 311.325 12.2264C310.936 12.2264 310.599 12.3431 310.314 12.5764C310.029 12.8097 309.834 13.1144 309.731 13.4903ZM318.402 17.1361C317.864 17.1361 317.374 17 316.934 16.7278C316.493 16.4491 316.14 16.0796 315.874 15.6194C315.615 15.1528 315.485 14.6407 315.485 14.0833C315.485 13.5259 315.615 13.0171 315.874 12.5569C316.14 12.0903 316.493 11.7208 316.934 11.4486C317.374 11.1699 317.864 11.0306 318.402 11.0306C318.732 11.0306 319.037 11.0824 319.316 11.1861C319.601 11.2898 319.857 11.4324 320.084 11.6139V7.66667H321.61V17H320.278V16.3778C320.051 16.6111 319.776 16.7958 319.452 16.9319C319.128 17.0681 318.778 17.1361 318.402 17.1361ZM318.577 15.7847C318.888 15.7847 319.167 15.7069 319.413 15.5514C319.666 15.3958 319.867 15.1917 320.016 14.9389C320.165 14.6796 320.239 14.3944 320.239 14.0833C320.239 13.7722 320.165 13.4903 320.016 13.2375C319.867 12.9782 319.666 12.7708 319.413 12.6153C319.167 12.4597 318.891 12.3819 318.586 12.3819C318.275 12.3819 317.993 12.4597 317.741 12.6153C317.494 12.7708 317.297 12.9782 317.148 13.2375C316.999 13.4903 316.924 13.7722 316.924 14.0833C316.924 14.3944 316.999 14.6796 317.148 14.9389C317.297 15.1917 317.494 15.3958 317.741 15.5514C317.993 15.7069 318.272 15.7847 318.577 15.7847ZM324.172 17.175C323.893 17.175 323.66 17.081 323.472 16.8931C323.291 16.7051 323.2 16.4718 323.2 16.1931C323.2 15.9208 323.294 15.6907 323.482 15.5028C323.67 15.3148 323.9 15.2208 324.172 15.2208C324.457 15.2208 324.691 15.3148 324.872 15.5028C325.06 15.6907 325.154 15.9241 325.154 16.2028C325.154 16.475 325.06 16.7051 324.872 16.8931C324.691 17.081 324.457 17.175 324.172 17.175Z" fill="#6D6D8F"/>
<path d="M1436.01 17V8.25H1438.53C1439.13 8.25 1439.64 8.34074 1440.06 8.52222C1440.48 8.69722 1440.81 8.9338 1441.07 9.23194C1441.33 9.52361 1441.51 9.8412 1441.63 10.1847C1441.75 10.5218 1441.81 10.8588 1441.81 11.1958C1441.81 11.5199 1441.75 11.8537 1441.63 12.1972C1441.52 12.5343 1441.34 12.8519 1441.08 13.15C1440.82 13.4417 1440.48 13.6782 1440.07 13.8597C1439.65 14.0347 1439.14 14.1222 1438.53 14.1222H1437.55V17H1436.01ZM1437.55 12.7417H1438.44C1438.89 12.7417 1439.24 12.6639 1439.49 12.5083C1439.75 12.3528 1439.94 12.1583 1440.05 11.925C1440.16 11.6852 1440.22 11.4389 1440.22 11.1861C1440.22 10.9463 1440.17 10.7065 1440.06 10.4667C1439.95 10.2269 1439.77 10.0292 1439.51 9.87361C1439.25 9.71157 1438.9 9.63056 1438.44 9.63056H1437.55V12.7417ZM1443.75 17V8.25H1446.3C1446.91 8.25 1447.44 8.37315 1447.87 8.61944C1448.31 8.85926 1448.65 9.18333 1448.88 9.59167C1449.12 9.99352 1449.23 10.4343 1449.23 10.9139C1449.23 11.3741 1449.12 11.7921 1448.9 12.1681C1448.69 12.5375 1448.39 12.8356 1448 13.0625L1450.47 17H1448.71L1446.55 13.5H1445.29V17H1443.75ZM1445.29 12.1681H1446.27C1446.6 12.1681 1446.87 12.1065 1447.08 11.9833C1447.29 11.8602 1447.45 11.7014 1447.55 11.5069C1447.66 11.3125 1447.71 11.1148 1447.71 10.9139C1447.71 10.5574 1447.57 10.2625 1447.31 10.0292C1447.04 9.79583 1446.7 9.67917 1446.27 9.67917H1445.29V12.1681ZM1452.07 17V8.25H1453.71V17H1452.07ZM1459.05 17.2917L1455.42 8.25H1457.09L1458.68 12.2653C1458.75 12.4597 1458.83 12.6477 1458.9 12.8292C1458.97 13.0106 1459.04 13.2148 1459.1 13.4417C1459.17 13.2213 1459.23 13.0236 1459.3 12.8486C1459.37 12.6671 1459.44 12.4727 1459.52 12.2653L1461.12 8.25H1462.7L1459.07 17.2917H1459.05ZM1462.6 17L1466.41 7.94861H1466.43L1470.25 17H1468.65L1467.9 15.1819H1464.9L1464.15 17H1462.6ZM1465.43 13.8986H1467.36L1466.91 12.8C1466.81 12.5667 1466.72 12.3398 1466.64 12.1194C1466.55 11.8926 1466.47 11.6301 1466.39 11.3319C1466.31 11.6301 1466.23 11.8894 1466.15 12.1097C1466.07 12.3301 1465.98 12.5602 1465.89 12.8L1465.43 13.8986ZM1475.82 17.175C1475.18 17.175 1474.59 17.0583 1474.03 16.825C1473.47 16.5852 1472.98 16.2579 1472.55 15.8431C1472.13 15.4282 1471.8 14.9454 1471.56 14.3944C1471.33 13.8435 1471.21 13.2537 1471.21 12.625C1471.21 11.9963 1471.33 11.4065 1471.56 10.8556C1471.8 10.3046 1472.13 9.82176 1472.55 9.40694C1472.98 8.99213 1473.47 8.66806 1474.03 8.43472C1474.59 8.19491 1475.18 8.075 1475.82 8.075C1476.41 8.075 1476.96 8.17546 1477.48 8.37639C1478 8.57083 1478.46 8.84954 1478.87 9.2125L1478.42 11.0694C1478.16 10.6481 1477.82 10.2981 1477.38 10.0194C1476.93 9.74074 1476.43 9.60139 1475.86 9.60139C1475.31 9.60139 1474.81 9.7375 1474.36 10.0097C1473.91 10.2819 1473.56 10.6449 1473.29 11.0986C1473.03 11.5523 1472.9 12.0611 1472.9 12.625C1472.9 13.1824 1473.03 13.6912 1473.29 14.1514C1473.56 14.6051 1473.91 14.9681 1474.36 15.2403C1474.81 15.5125 1475.31 15.6486 1475.86 15.6486C1476.42 15.6486 1476.93 15.5093 1477.37 15.2306C1477.81 14.9454 1478.16 14.5954 1478.42 14.1806L1478.87 16.0375C1478.46 16.394 1478 16.6727 1477.48 16.8736C1476.96 17.0745 1476.41 17.175 1475.82 17.175ZM1482.39 17V12.8389L1479.85 8.25H1481.63L1482.77 10.3597C1482.85 10.5088 1482.93 10.6579 1483.01 10.8069C1483.08 10.956 1483.16 11.131 1483.23 11.3319C1483.31 11.131 1483.39 10.956 1483.46 10.8069C1483.54 10.6579 1483.62 10.5088 1483.71 10.3597L1484.85 8.25H1486.53L1483.98 12.8389V17H1482.39ZM1491.65 17V8.25H1494.17C1494.77 8.25 1495.28 8.34074 1495.7 8.52222C1496.12 8.69722 1496.45 8.9338 1496.71 9.23194C1496.97 9.52361 1497.15 9.8412 1497.27 10.1847C1497.39 10.5218 1497.45 10.8588 1497.45 11.1958C1497.45 11.5199 1497.39 11.8537 1497.27 12.1972C1497.16 12.5343 1496.98 12.8519 1496.72 13.15C1496.46 13.4417 1496.12 13.6782 1495.71 13.8597C1495.29 14.0347 1494.78 14.1222 1494.17 14.1222H1493.19V17H1491.65ZM1493.19 12.7417H1494.08C1494.53 12.7417 1494.88 12.6639 1495.13 12.5083C1495.39 12.3528 1495.58 12.1583 1495.69 11.925C1495.8 11.6852 1495.86 11.4389 1495.86 11.1861C1495.86 10.9463 1495.81 10.7065 1495.7 10.4667C1495.59 10.2269 1495.41 10.0292 1495.15 9.87361C1494.89 9.71157 1494.54 9.63056 1494.08 9.63056H1493.19V12.7417ZM1503.5 17.175C1502.87 17.175 1502.27 17.0583 1501.71 16.825C1501.16 16.5852 1500.66 16.2579 1500.24 15.8431C1499.82 15.4282 1499.48 14.9454 1499.24 14.3944C1499.01 13.8435 1498.89 13.2537 1498.89 12.625C1498.89 11.9963 1499.01 11.4065 1499.24 10.8556C1499.48 10.3046 1499.82 9.82176 1500.24 9.40694C1500.66 8.99213 1501.16 8.66806 1501.71 8.43472C1502.27 8.19491 1502.87 8.075 1503.5 8.075C1504.14 8.075 1504.74 8.19491 1505.3 8.43472C1505.86 8.66806 1506.35 8.99213 1506.77 9.40694C1507.19 9.82176 1507.52 10.3046 1507.75 10.8556C1507.99 11.4065 1508.11 11.9963 1508.11 12.625C1508.11 13.2537 1507.99 13.8435 1507.75 14.3944C1507.52 14.9454 1507.19 15.4282 1506.77 15.8431C1506.35 16.2579 1505.86 16.5852 1505.3 16.825C1504.74 17.0583 1504.14 17.175 1503.5 17.175ZM1503.5 15.6486C1504.05 15.6486 1504.55 15.5125 1505 15.2403C1505.45 14.9681 1505.8 14.6019 1506.06 14.1417C1506.33 13.6815 1506.46 13.1759 1506.46 12.625C1506.46 12.0611 1506.33 11.5523 1506.06 11.0986C1505.8 10.6449 1505.45 10.2819 1505 10.0097C1504.55 9.7375 1504.05 9.60139 1503.5 9.60139C1502.95 9.60139 1502.44 9.7375 1502 10.0097C1501.55 10.2819 1501.2 10.6481 1500.94 11.1083C1500.68 11.562 1500.55 12.0676 1500.55 12.625C1500.55 13.1824 1500.68 13.6912 1500.94 14.1514C1501.2 14.6051 1501.55 14.9681 1502 15.2403C1502.44 15.5125 1502.95 15.6486 1503.5 15.6486ZM1510.23 17V8.25H1511.85V15.5708H1514.59V17H1510.23ZM1516.7 17V8.25H1518.33V17H1516.7ZM1525.12 17.175C1524.48 17.175 1523.89 17.0583 1523.33 16.825C1522.77 16.5852 1522.28 16.2579 1521.85 15.8431C1521.43 15.4282 1521.1 14.9454 1520.86 14.3944C1520.63 13.8435 1520.51 13.2537 1520.51 12.625C1520.51 11.9963 1520.63 11.4065 1520.86 10.8556C1521.1 10.3046 1521.43 9.82176 1521.85 9.40694C1522.28 8.99213 1522.77 8.66806 1523.33 8.43472C1523.89 8.19491 1524.48 8.075 1525.12 8.075C1525.71 8.075 1526.26 8.17546 1526.78 8.37639C1527.3 8.57083 1527.76 8.84954 1528.17 9.2125L1527.71 11.0694C1527.46 10.6481 1527.11 10.2981 1526.67 10.0194C1526.23 9.74074 1525.73 9.60139 1525.16 9.60139C1524.6 9.60139 1524.11 9.7375 1523.66 10.0097C1523.21 10.2819 1522.85 10.6449 1522.59 11.0986C1522.33 11.5523 1522.2 12.0611 1522.2 12.625C1522.2 13.1824 1522.33 13.6912 1522.59 14.1514C1522.85 14.6051 1523.21 14.9681 1523.66 15.2403C1524.11 15.5125 1524.6 15.6486 1525.16 15.6486C1525.72 15.6486 1526.22 15.5093 1526.66 15.2306C1527.11 14.9454 1527.46 14.5954 1527.71 14.1806L1528.17 16.0375C1527.76 16.394 1527.3 16.6727 1526.78 16.8736C1526.26 17.0745 1525.71 17.175 1525.12 17.175ZM1531.69 17V12.8389L1529.14 8.25H1530.93L1532.07 10.3597C1532.15 10.5088 1532.22 10.6579 1532.3 10.8069C1532.38 10.956 1532.45 11.131 1532.53 11.3319C1532.61 11.131 1532.69 10.956 1532.76 10.8069C1532.84 10.6579 1532.92 10.5088 1533 10.3597L1534.15 8.25H1535.82L1533.27 12.8389V17H1531.69Z" fill="#9A9AB8"/>
</svg>
