<svg width="764" height="192" viewBox="0 0 764 192" fill="none" xmlns="http://www.w3.org/2000/svg">
<rect x="4.5" y="4.5" width="759" height="183" rx="31.5" stroke="#262638"/>
<rect x="565" y="68" width="167" height="56" rx="28" fill="#0C0C14"/>
<mask id="mask0_21833_412" style="mask-type:alpha" maskUnits="userSpaceOnUse" x="565" y="68" width="167" height="56">
<rect x="565" y="68" width="167" height="56" rx="28" fill="#1C1C29"/>
</mask>
<g mask="url(#mask0_21833_412)">
<g filter="url(#filter0_f_21833_412)">
<ellipse cx="52" cy="16" rx="52" ry="16" transform="matrix(-1 -1.74846e-07 -1.74846e-07 1 661 52)" fill="#3333FF"/>
</g>
<g filter="url(#filter1_f_21833_412)" style="mix-blend-mode:plus-lighter">
<ellipse cx="32" cy="16" rx="32" ry="16" transform="matrix(-1 -1.74846e-07 -1.74846e-07 1 621 52)" fill="#C95CFF"/>
</g>
<g filter="url(#filter2_f_21833_412)" style="mix-blend-mode:plus-lighter">
<ellipse cx="20" cy="12" rx="20" ry="12" transform="matrix(-1 -1.74846e-07 -1.74846e-07 1 597 56)" fill="#C95CFF"/>
</g>
<g filter="url(#filter3_f_21833_412)" style="mix-blend-mode:plus-lighter">
<ellipse cx="12" cy="4" rx="12" ry="4" transform="matrix(-1 -1.74846e-07 -1.74846e-07 1 581 64)" fill="white"/>
</g>
<g filter="url(#filter4_f_21833_412)">
<ellipse cx="688" cy="124" rx="52" ry="16" fill="#3333FF"/>
</g>
<g filter="url(#filter5_f_21833_412)" style="mix-blend-mode:plus-lighter">
<ellipse cx="708" cy="124" rx="32" ry="16" fill="#C95CFF"/>
</g>
<g filter="url(#filter6_f_21833_412)" style="mix-blend-mode:plus-lighter">
<ellipse cx="720" cy="124" rx="20" ry="12" fill="#C95CFF"/>
</g>
<g filter="url(#filter7_f_21833_412)" style="mix-blend-mode:plus-lighter">
<ellipse cx="728" cy="124" rx="12" ry="4" fill="white"/>
</g>
</g>
<mask id="mask1_21833_412" style="mask-type:alpha" maskUnits="userSpaceOnUse" x="565" y="68" width="167" height="56">
<rect x="565.5" y="68.5" width="166" height="55" rx="27.5" stroke="#1C1C29"/>
</mask>
<g mask="url(#mask1_21833_412)">
<g filter="url(#filter8_f_21833_412)">
<ellipse cx="52" cy="16" rx="52" ry="16" transform="matrix(-1 -1.74846e-07 -1.74846e-07 1 661 52)" fill="#3333FF"/>
</g>
<g filter="url(#filter9_f_21833_412)" style="mix-blend-mode:plus-lighter">
<ellipse cx="32" cy="16" rx="32" ry="16" transform="matrix(-1 -1.74846e-07 -1.74846e-07 1 621 52)" fill="#C95CFF"/>
</g>
<g filter="url(#filter10_f_21833_412)" style="mix-blend-mode:plus-lighter">
<ellipse cx="20" cy="12" rx="20" ry="12" transform="matrix(-1 -1.74846e-07 -1.74846e-07 1 597 56)" fill="#C95CFF"/>
</g>
<g filter="url(#filter11_f_21833_412)" style="mix-blend-mode:plus-lighter">
<ellipse cx="12" cy="4" rx="12" ry="4" transform="matrix(-1 -1.74846e-07 -1.74846e-07 1 581 64)" fill="white"/>
</g>
<g filter="url(#filter12_f_21833_412)">
<ellipse cx="688" cy="124" rx="52" ry="16" fill="#3333FF"/>
</g>
<g filter="url(#filter13_f_21833_412)" style="mix-blend-mode:plus-lighter">
<ellipse cx="708" cy="124" rx="32" ry="16" fill="#C95CFF"/>
</g>
<g filter="url(#filter14_f_21833_412)" style="mix-blend-mode:plus-lighter">
<ellipse cx="720" cy="124" rx="20" ry="12" fill="#C95CFF"/>
</g>
<g filter="url(#filter15_f_21833_412)" style="mix-blend-mode:plus-lighter">
<ellipse cx="728" cy="124" rx="12" ry="4" fill="white"/>
</g>
</g>
<path d="M616.16 101.175C615.635 101.175 615.139 101.075 614.672 100.874C614.212 100.673 613.846 100.43 613.574 100.144L614.011 98.3556C614.225 98.7444 614.533 99.075 614.935 99.3472C615.337 99.613 615.764 99.7458 616.218 99.7458C616.6 99.7458 616.905 99.6389 617.132 99.425C617.359 99.2046 617.472 98.9356 617.472 98.6181C617.472 98.3653 617.414 98.1579 617.297 97.9958C617.181 97.8338 617.044 97.7042 616.889 97.6069C616.733 97.5032 616.6 97.4255 616.49 97.3736L615.45 96.8486C615.184 96.7125 614.919 96.5505 614.653 96.3625C614.387 96.1681 614.163 95.9218 613.982 95.6236C613.807 95.319 613.719 94.9431 613.719 94.4958C613.719 94.0162 613.83 93.5949 614.05 93.2319C614.27 92.869 614.578 92.587 614.974 92.3861C615.375 92.1787 615.839 92.075 616.364 92.075C616.869 92.075 617.32 92.1593 617.715 92.3278C618.111 92.4898 618.428 92.6648 618.668 92.8528L618.25 94.6028C618.017 94.2852 617.725 94.0194 617.375 93.8056C617.025 93.5917 616.665 93.4847 616.296 93.4847C615.959 93.4847 615.696 93.5755 615.508 93.7569C615.327 93.9319 615.236 94.1523 615.236 94.4181C615.236 94.5931 615.275 94.7454 615.353 94.875C615.437 95.0046 615.544 95.1181 615.674 95.2153C615.81 95.306 615.956 95.3903 616.111 95.4681L617.171 95.9931C617.333 96.0708 617.514 96.1745 617.715 96.3042C617.923 96.4338 618.124 96.5991 618.318 96.8C618.513 96.9944 618.671 97.2343 618.794 97.5194C618.924 97.7981 618.989 98.1319 618.989 98.5208C618.989 99.0264 618.869 99.4801 618.629 99.8819C618.396 100.277 618.069 100.592 617.647 100.825C617.232 101.058 616.737 101.175 616.16 101.175ZM621.232 101V96.3917H620.085V95.1667H621.261V93.2222H622.729V95.1667H623.954V96.3917H622.758V101H621.232ZM627.646 101.136C627.114 101.136 626.628 101 626.187 100.728C625.746 100.449 625.393 100.08 625.128 99.6194C624.868 99.1528 624.739 98.6407 624.739 98.0833C624.739 97.5259 624.868 97.0171 625.128 96.5569C625.393 96.0903 625.746 95.7208 626.187 95.4486C626.628 95.1699 627.114 95.0306 627.646 95.0306C628.028 95.0306 628.381 95.0986 628.705 95.2347C629.029 95.3708 629.305 95.562 629.532 95.8083V95.1667H630.864V101H629.532V100.358C629.305 100.598 629.029 100.789 628.705 100.932C628.381 101.068 628.028 101.136 627.646 101.136ZM627.83 99.7847C628.141 99.7847 628.42 99.7069 628.666 99.5514C628.919 99.3958 629.12 99.1917 629.269 98.9389C629.418 98.6796 629.493 98.3944 629.493 98.0833C629.493 97.7722 629.418 97.4903 629.269 97.2375C629.12 96.9782 628.919 96.7708 628.666 96.6153C628.42 96.4597 628.145 96.3819 627.84 96.3819C627.529 96.3819 627.247 96.4597 626.994 96.6153C626.748 96.7708 626.55 96.9782 626.401 97.2375C626.252 97.4903 626.178 97.7722 626.178 98.0833C626.178 98.3944 626.252 98.6796 626.401 98.9389C626.55 99.1917 626.748 99.3958 626.994 99.5514C627.247 99.7069 627.526 99.7847 627.83 99.7847ZM636.585 101L634.174 97.7917L636.157 95.1667H637.82L635.876 97.6653L638.403 101H636.585ZM632.726 101V91.6667H634.252V101H632.726ZM642.13 101.175C641.489 101.175 640.918 101.039 640.419 100.767C639.927 100.494 639.541 100.122 639.262 99.6486C638.99 99.169 638.854 98.6278 638.854 98.025C638.854 97.4481 638.987 96.9329 639.253 96.4792C639.525 96.019 639.891 95.656 640.351 95.3903C640.811 95.1245 641.32 94.9917 641.878 94.9917C642.448 94.9917 642.957 95.1245 643.404 95.3903C643.858 95.6495 644.217 96.0028 644.483 96.45C644.749 96.8972 644.882 97.406 644.882 97.9764V98.5306H641.255C641.093 98.5306 640.935 98.5208 640.779 98.5014C640.623 98.4819 640.468 98.4593 640.312 98.4333C640.39 98.8546 640.594 99.2014 640.925 99.4736C641.255 99.7458 641.67 99.8819 642.169 99.8819C642.539 99.8819 642.873 99.8042 643.171 99.6486C643.469 99.4931 643.715 99.2986 643.91 99.0653L644.26 100.494C643.968 100.721 643.641 100.89 643.278 101C642.915 101.117 642.532 101.175 642.13 101.175ZM640.273 97.4903C640.604 97.4255 640.931 97.3931 641.255 97.3931H642.51C642.685 97.3931 642.85 97.3995 643.005 97.4125C643.161 97.4255 643.31 97.4449 643.453 97.4708C643.355 97.0949 643.164 96.7935 642.879 96.5667C642.6 96.3398 642.263 96.2264 641.868 96.2264C641.479 96.2264 641.142 96.3431 640.857 96.5764C640.572 96.8097 640.377 97.1144 640.273 97.4903ZM649.973 101V91.9583L654.104 97.2375L658.168 91.9583V101H656.623V98.1028C656.623 97.8241 656.626 97.513 656.632 97.1694C656.639 96.8194 656.668 96.4241 656.72 95.9833C656.519 96.3204 656.324 96.6153 656.136 96.8681C655.948 97.1208 655.777 97.3542 655.621 97.5681L654.075 99.6778L652.471 97.5681C652.316 97.3671 652.137 97.1306 651.936 96.8583C651.742 96.5796 651.548 96.2782 651.353 95.9542C651.405 96.4144 651.434 96.8162 651.441 97.1597C651.447 97.5032 651.45 97.8176 651.45 98.1028V101H649.973ZM663.123 101.175C662.547 101.175 662.018 101.036 661.539 100.757C661.066 100.478 660.69 100.106 660.411 99.6389C660.132 99.1722 659.993 98.6537 659.993 98.0833C659.993 97.513 660.132 96.9944 660.411 96.5278C660.69 96.0611 661.066 95.6884 661.539 95.4097C662.018 95.131 662.543 94.9917 663.114 94.9917C663.697 94.9917 664.225 95.131 664.698 95.4097C665.172 95.6884 665.548 96.0611 665.826 96.5278C666.111 96.988 666.254 97.5065 666.254 98.0833C666.254 98.6472 666.111 99.1657 665.826 99.6389C665.548 100.106 665.172 100.478 664.698 100.757C664.225 101.036 663.7 101.175 663.123 101.175ZM663.114 99.7944C663.431 99.7944 663.717 99.7167 663.969 99.5611C664.222 99.4056 664.423 99.1981 664.572 98.9389C664.721 98.6796 664.796 98.3944 664.796 98.0833C664.796 97.7657 664.721 97.4806 664.572 97.2278C664.423 96.9685 664.222 96.7611 663.969 96.6056C663.717 96.45 663.431 96.3722 663.114 96.3722C662.803 96.3722 662.521 96.45 662.268 96.6056C662.015 96.7611 661.814 96.9685 661.665 97.2278C661.516 97.4806 661.442 97.7657 661.442 98.0833C661.442 98.3944 661.516 98.6796 661.665 98.9389C661.814 99.1981 662.015 99.4056 662.268 99.5611C662.521 99.7167 662.803 99.7944 663.114 99.7944ZM667.788 101V95.1667H669.159V96.1875C669.367 95.8505 669.626 95.588 669.937 95.4C670.255 95.2056 670.631 95.1083 671.065 95.1083L671.405 96.4889C671.282 96.45 671.143 96.4306 670.987 96.4306C670.481 96.4306 670.076 96.5926 669.772 96.9167C669.467 97.2407 669.315 97.7009 669.315 98.2972V101H667.788ZM675.416 101.175C674.774 101.175 674.204 101.039 673.705 100.767C673.212 100.494 672.827 100.122 672.548 99.6486C672.276 99.169 672.14 98.6278 672.14 98.025C672.14 97.4481 672.272 96.9329 672.538 96.4792C672.81 96.019 673.177 95.656 673.637 95.3903C674.097 95.1245 674.606 94.9917 675.163 94.9917C675.734 94.9917 676.242 95.1245 676.69 95.3903C677.143 95.6495 677.503 96.0028 677.769 96.45C678.034 96.8972 678.167 97.406 678.167 97.9764V98.5306H674.541C674.379 98.5306 674.22 98.5208 674.065 98.5014C673.909 98.4819 673.753 98.4593 673.598 98.4333C673.676 98.8546 673.88 99.2014 674.21 99.4736C674.541 99.7458 674.956 99.8819 675.455 99.8819C675.824 99.8819 676.158 99.8042 676.456 99.6486C676.754 99.4931 677.001 99.2986 677.195 99.0653L677.545 100.494C677.253 100.721 676.926 100.89 676.563 101C676.2 101.117 675.818 101.175 675.416 101.175ZM673.559 97.4903C673.89 97.4255 674.217 97.3931 674.541 97.3931H675.795C675.97 97.3931 676.135 97.3995 676.291 97.4125C676.446 97.4255 676.596 97.4449 676.738 97.4708C676.641 97.0949 676.45 96.7935 676.165 96.5667C675.886 96.3398 675.549 96.2264 675.153 96.2264C674.765 96.2264 674.428 96.3431 674.142 96.5764C673.857 96.8097 673.663 97.1144 673.559 97.4903ZM680.655 97.8694L680.373 92.25H682.123L681.841 97.8694H680.655ZM681.248 101.175C680.982 101.175 680.759 101.084 680.577 100.903C680.396 100.715 680.305 100.491 680.305 100.232C680.305 99.9662 680.396 99.7426 680.577 99.5611C680.759 99.3731 680.982 99.2792 681.248 99.2792C681.514 99.2792 681.738 99.3731 681.919 99.5611C682.1 99.7426 682.191 99.9662 682.191 100.232C682.191 100.491 682.1 100.715 681.919 100.903C681.738 101.084 681.514 101.175 681.248 101.175Z" fill="#F1E6FA"/>
<path d="M208.5 59.2222C207.75 59.2222 207.051 59.0787 206.403 58.7917C205.764 58.5046 205.255 58.1528 204.875 57.7361L205.444 55.3889C205.741 55.9259 206.167 56.3935 206.722 56.7917C207.278 57.1898 207.894 57.3889 208.569 57.3889C209.144 57.3889 209.611 57.2176 209.972 56.875C210.333 56.5231 210.514 56.0972 210.514 55.5972C210.514 55.2083 210.421 54.8889 210.236 54.6389C210.06 54.3889 209.852 54.1898 209.611 54.0417C209.37 53.8843 209.171 53.7685 209.014 53.6944L207.514 52.9444C207.181 52.7685 206.829 52.5509 206.458 52.2917C206.088 52.0324 205.773 51.6944 205.514 51.2778C205.255 50.8519 205.125 50.3148 205.125 49.6667C205.125 49 205.278 48.412 205.583 47.9028C205.889 47.3935 206.319 46.9954 206.875 46.7083C207.431 46.4213 208.074 46.2778 208.806 46.2778C209.509 46.2778 210.134 46.3981 210.681 46.6389C211.227 46.8704 211.662 47.1157 211.986 47.375L211.431 49.6944C211.134 49.2593 210.741 48.8843 210.25 48.5694C209.769 48.2454 209.255 48.0833 208.708 48.0833C208.208 48.0833 207.815 48.2269 207.528 48.5139C207.241 48.7917 207.097 49.1343 207.097 49.5417C207.097 49.8287 207.162 50.0741 207.292 50.2778C207.431 50.4815 207.597 50.6528 207.792 50.7917C207.995 50.9213 208.194 51.037 208.389 51.1389L209.917 51.9028C210.13 52.0046 210.38 52.1481 210.667 52.3333C210.963 52.5093 211.25 52.7361 211.528 53.0139C211.806 53.2917 212.032 53.6296 212.208 54.0278C212.394 54.4259 212.486 54.9028 212.486 55.4583C212.486 56.1806 212.315 56.8287 211.972 57.4028C211.639 57.9676 211.176 58.412 210.583 58.7361C209.991 59.0602 209.296 59.2222 208.5 59.2222ZM214.657 59V52.25H212.935V50.6667H214.699V47.8889H216.574V50.6667H218.435V52.25H216.616V59H214.657ZM222.578 59.1667C221.819 59.1667 221.124 58.9722 220.494 58.5833C219.865 58.1944 219.36 57.6713 218.981 57.0139C218.61 56.3565 218.425 55.6296 218.425 54.8333C218.425 54.037 218.61 53.3102 218.981 52.6528C219.36 51.9954 219.865 51.4722 220.494 51.0833C221.124 50.6944 221.819 50.5 222.578 50.5C223.133 50.5 223.647 50.6019 224.119 50.8056C224.601 51 225.013 51.2778 225.356 51.6389V50.6667H227.092V59H225.356V58.0278C225.013 58.3796 224.601 58.6574 224.119 58.8611C223.647 59.0648 223.133 59.1667 222.578 59.1667ZM222.828 57.4167C223.291 57.4167 223.712 57.3009 224.092 57.0694C224.481 56.838 224.786 56.5278 225.008 56.1389C225.24 55.75 225.356 55.3148 225.356 54.8333C225.356 54.3611 225.24 53.9306 225.008 53.5417C224.786 53.1435 224.485 52.8287 224.106 52.5972C223.726 52.3657 223.3 52.25 222.828 52.25C222.365 52.25 221.939 52.3657 221.55 52.5972C221.17 52.8287 220.865 53.1389 220.633 53.5278C220.411 53.9167 220.3 54.3519 220.3 54.8333C220.3 55.3056 220.411 55.7407 220.633 56.1389C220.865 56.5278 221.17 56.838 221.55 57.0694C221.93 57.3009 222.356 57.4167 222.828 57.4167ZM234.221 59L230.68 54.4167L233.596 50.6667H235.763L232.902 54.25L236.596 59H234.221ZM228.735 59V45.6667H230.693V59H228.735ZM237.172 59V50.6667H239.131V59H237.172ZM238.159 49.3194C237.835 49.3194 237.561 49.2083 237.339 48.9861C237.117 48.7546 237.006 48.4815 237.006 48.1667C237.006 47.8333 237.117 47.5602 237.339 47.3472C237.571 47.125 237.844 47.0139 238.159 47.0139C238.492 47.0139 238.765 47.125 238.978 47.3472C239.2 47.5694 239.311 47.8426 239.311 48.1667C239.311 48.4907 239.2 48.7639 238.978 48.9861C238.756 49.2083 238.483 49.3194 238.159 49.3194ZM240.797 59V50.6667H242.575V51.7917C242.88 51.3565 243.26 51.0231 243.714 50.7917C244.177 50.5602 244.677 50.4444 245.214 50.4444C245.806 50.4444 246.357 50.588 246.866 50.875C247.376 51.162 247.788 51.5787 248.102 52.125C248.417 52.6713 248.575 53.3333 248.575 54.1111V59H246.616V54.375C246.616 53.8194 246.445 53.3241 246.102 52.8889C245.769 52.4537 245.297 52.2361 244.686 52.2361C244.186 52.2361 243.737 52.412 243.339 52.7639C242.95 53.1157 242.755 53.6389 242.755 54.3333V59H240.797ZM253.56 63.3889C252.921 63.3889 252.324 63.2963 251.768 63.1111C251.213 62.9259 250.727 62.6713 250.31 62.3472L250.81 60.2917C251.097 60.6898 251.477 61.0139 251.949 61.2639C252.421 61.5231 252.958 61.6528 253.56 61.6528C254.449 61.6528 255.157 61.3889 255.685 60.8611C256.213 60.3426 256.477 59.6667 256.477 58.8333V58.0417C256.134 58.3935 255.727 58.6713 255.255 58.875C254.782 59.0694 254.268 59.1667 253.713 59.1667C252.954 59.1667 252.259 58.9722 251.63 58.5833C251 58.1944 250.495 57.6713 250.116 57.0139C249.745 56.3565 249.56 55.6296 249.56 54.8333C249.56 54.037 249.745 53.3102 250.116 52.6528C250.495 51.9954 251 51.4722 251.63 51.0833C252.259 50.6944 252.954 50.5 253.713 50.5C254.268 50.5 254.782 50.6019 255.255 50.8056C255.736 51 256.148 51.2778 256.491 51.6389V50.6667H258.227V59.0556C258.227 59.963 258.009 60.7407 257.574 61.3889C257.148 62.037 256.579 62.5324 255.866 62.875C255.153 63.2176 254.384 63.3889 253.56 63.3889ZM253.963 57.4167C254.426 57.4167 254.847 57.3009 255.227 57.0694C255.616 56.838 255.921 56.5278 256.143 56.1389C256.375 55.75 256.491 55.3148 256.491 54.8333C256.491 54.3611 256.375 53.9306 256.143 53.5417C255.921 53.1435 255.62 52.8287 255.241 52.5972C254.861 52.3657 254.435 52.25 253.963 52.25C253.5 52.25 253.074 52.3657 252.685 52.5972C252.306 52.8287 252 53.1389 251.768 53.5278C251.546 53.9167 251.435 54.3519 251.435 54.8333C251.435 55.3056 251.546 55.7407 251.768 56.1389C252 56.5278 252.306 56.838 252.685 57.0694C253.065 57.3009 253.491 57.4167 253.963 57.4167Z" fill="#F1E6FA"/>
<path d="M220.467 134.333V129.533C218.274 129.415 216.289 128.896 214.511 127.978C212.733 127.03 211.311 125.919 210.244 124.644L211.711 118.511C212.541 120.17 213.785 121.667 215.444 123C217.104 124.333 219.089 125 221.4 125C223.504 125 225.237 124.333 226.6 123C227.993 121.667 228.689 120.022 228.689 118.067C228.689 116.644 228.348 115.474 227.667 114.556C226.985 113.637 226.215 112.911 225.356 112.378C224.496 111.844 223.815 111.459 223.311 111.222L218.422 108.733C217.652 108.319 216.689 107.741 215.533 107C214.407 106.259 213.415 105.237 212.556 103.933C211.696 102.63 211.267 100.941 211.267 98.8667C211.267 96.1407 212.111 93.8444 213.8 91.9778C215.489 90.1111 217.711 88.9852 220.467 88.6V85H224.2V88.6C225.889 88.8074 227.385 89.2519 228.689 89.9333C229.993 90.5852 231.03 91.2519 231.8 91.9333L230.333 98.0667C229.593 96.8222 228.496 95.6519 227.044 94.5556C225.593 93.4593 223.948 92.9111 222.111 92.9111C220.333 92.9111 218.911 93.4444 217.844 94.5111C216.778 95.5481 216.244 96.837 216.244 98.3778C216.244 99.563 216.511 100.541 217.044 101.311C217.607 102.081 218.23 102.689 218.911 103.133C219.622 103.578 220.2 103.919 220.644 104.156L225.622 106.644C226.215 106.941 226.956 107.356 227.844 107.889C228.763 108.422 229.667 109.133 230.556 110.022C231.444 110.881 232.185 111.948 232.778 113.222C233.37 114.467 233.667 115.978 233.667 117.756C233.667 120.689 232.793 123.193 231.044 125.267C229.296 127.311 227.015 128.63 224.2 129.222V134.333H220.467ZM251.794 129L267.838 105.133C268.579 104.007 269.083 103.03 269.349 102.2C269.646 101.37 269.794 100.6 269.794 99.8889C269.794 97.963 269.112 96.3333 267.749 95C266.386 93.6667 264.727 93 262.772 93C260.816 93 259.157 93.6667 257.794 95C256.461 96.3333 255.794 97.963 255.794 99.8889C255.794 102.022 256.698 103.815 258.505 105.267H252.416C251.468 103.459 250.994 101.667 250.994 99.8889C250.994 97.7259 251.527 95.7852 252.594 94.0667C253.661 92.3481 255.083 90.9852 256.861 89.9778C258.668 88.9704 260.653 88.4667 262.816 88.4667C264.979 88.4667 266.949 88.9704 268.727 89.9778C270.505 90.9852 271.927 92.3481 272.994 94.0667C274.061 95.7852 274.594 97.7259 274.594 99.8889C274.594 101.163 274.386 102.422 273.972 103.667C273.557 104.881 272.831 106.23 271.794 107.711L260.238 124.467H275.349V129H251.794ZM277.524 135.667C278.857 134.007 279.924 132.081 280.724 129.889C281.554 127.696 281.969 125.178 281.969 122.333H286.769C286.769 124.852 286.413 127.222 285.702 129.444C285.02 131.696 284.072 133.77 282.857 135.667H277.524ZM301.898 129.533C299.349 129.533 297.009 128.941 294.875 127.756C292.772 126.57 291.112 124.941 289.898 122.867L292.831 117.044C293.157 119.326 294.164 121.222 295.853 122.733C297.572 124.244 299.586 125 301.898 125C303.557 125 305.068 124.6 306.431 123.8C307.823 122.97 308.92 121.874 309.72 120.511C310.549 119.148 310.964 117.637 310.964 115.978C310.964 114.319 310.549 112.807 309.72 111.444C308.89 110.081 307.779 109 306.386 108.2C305.023 107.37 303.483 106.956 301.764 106.956C300.283 106.956 298.89 107.296 297.586 107.978C296.312 108.63 295.26 109.519 294.431 110.644V89H312.475V93.5333H298.786V103.4C299.379 103.133 299.986 102.956 300.609 102.867C301.26 102.748 301.883 102.689 302.475 102.689C304.875 102.689 307.083 103.267 309.098 104.422C311.112 105.578 312.727 107.163 313.942 109.178C315.157 111.163 315.764 113.43 315.764 115.978C315.764 118.526 315.127 120.822 313.853 122.867C312.579 124.911 310.89 126.541 308.786 127.756C306.712 128.941 304.416 129.533 301.898 129.533ZM334.117 129.533C331.776 129.533 329.731 128.956 327.983 127.8C326.235 126.615 324.769 125.044 323.583 123.089C322.428 121.104 321.554 118.896 320.961 116.467C320.398 114.007 320.117 111.519 320.117 109C320.117 106.481 320.398 104.007 320.961 101.578C321.554 99.1185 322.428 96.9111 323.583 94.9556C324.769 92.9704 326.235 91.4 327.983 90.2444C329.731 89.0593 331.776 88.4667 334.117 88.4667C336.457 88.4667 338.502 89.0593 340.25 90.2444C341.998 91.4 343.45 92.9704 344.606 94.9556C345.791 96.9111 346.665 99.1185 347.228 101.578C347.82 104.007 348.117 106.481 348.117 109C348.117 111.519 347.82 114.007 347.228 116.467C346.665 118.896 345.791 121.104 344.606 123.089C343.45 125.044 341.998 126.615 340.25 127.8C338.502 128.956 336.457 129.533 334.117 129.533ZM334.117 125C335.687 125 337.035 124.526 338.161 123.578C339.287 122.63 340.206 121.37 340.917 119.8C341.628 118.23 342.161 116.511 342.517 114.644C342.872 112.748 343.05 110.867 343.05 109C343.05 107.133 342.872 105.267 342.517 103.4C342.161 101.504 341.628 99.7704 340.917 98.2C340.206 96.6296 339.287 95.3704 338.161 94.4222C337.035 93.4741 335.687 93 334.117 93C332.576 93 331.228 93.4741 330.072 94.4222C328.946 95.3704 328.028 96.6296 327.317 98.2C326.606 99.7704 326.072 101.504 325.717 103.4C325.361 105.267 325.183 107.133 325.183 109C325.183 110.867 325.361 112.748 325.717 114.644C326.072 116.511 326.606 118.23 327.317 119.8C328.028 121.37 328.946 122.63 330.072 123.578C331.228 124.526 332.576 125 334.117 125ZM364.869 129.533C362.528 129.533 360.484 128.956 358.736 127.8C356.988 126.615 355.521 125.044 354.336 123.089C353.18 121.104 352.306 118.896 351.714 116.467C351.151 114.007 350.869 111.519 350.869 109C350.869 106.481 351.151 104.007 351.714 101.578C352.306 99.1185 353.18 96.9111 354.336 94.9556C355.521 92.9704 356.988 91.4 358.736 90.2444C360.484 89.0593 362.528 88.4667 364.869 88.4667C367.21 88.4667 369.254 89.0593 371.003 90.2444C372.751 91.4 374.202 92.9704 375.358 94.9556C376.543 96.9111 377.417 99.1185 377.98 101.578C378.573 104.007 378.869 106.481 378.869 109C378.869 111.519 378.573 114.007 377.98 116.467C377.417 118.896 376.543 121.104 375.358 123.089C374.202 125.044 372.751 126.615 371.003 127.8C369.254 128.956 367.21 129.533 364.869 129.533ZM364.869 125C366.44 125 367.788 124.526 368.914 123.578C370.04 122.63 370.958 121.37 371.669 119.8C372.38 118.23 372.914 116.511 373.269 114.644C373.625 112.748 373.802 110.867 373.802 109C373.802 107.133 373.625 105.267 373.269 103.4C372.914 101.504 372.38 99.7704 371.669 98.2C370.958 96.6296 370.04 95.3704 368.914 94.4222C367.788 93.4741 366.44 93 364.869 93C363.328 93 361.98 93.4741 360.825 94.4222C359.699 95.3704 358.78 96.6296 358.069 98.2C357.358 99.7704 356.825 101.504 356.469 103.4C356.114 105.267 355.936 107.133 355.936 109C355.936 110.867 356.114 112.748 356.469 114.644C356.825 116.511 357.358 118.23 358.069 119.8C358.78 121.37 359.699 122.63 360.825 123.578C361.98 124.526 363.328 125 364.869 125Z" fill="#F1E6FA"/>
<path d="M207.6 153.178C207 153.178 206.441 153.063 205.922 152.833C205.411 152.604 205.004 152.322 204.7 151.989L205.156 150.111C205.393 150.541 205.733 150.915 206.178 151.233C206.622 151.552 207.115 151.711 207.656 151.711C208.115 151.711 208.489 151.574 208.778 151.3C209.067 151.019 209.211 150.678 209.211 150.278C209.211 149.967 209.137 149.711 208.989 149.511C208.848 149.311 208.681 149.152 208.489 149.033C208.296 148.907 208.137 148.815 208.011 148.756L206.811 148.156C206.544 148.015 206.263 147.841 205.967 147.633C205.67 147.426 205.419 147.156 205.211 146.822C205.004 146.481 204.9 146.052 204.9 145.533C204.9 145 205.022 144.53 205.267 144.122C205.511 143.715 205.856 143.396 206.3 143.167C206.744 142.937 207.259 142.822 207.844 142.822C208.407 142.822 208.907 142.919 209.344 143.111C209.781 143.296 210.13 143.493 210.389 143.7L209.944 145.556C209.707 145.207 209.393 144.907 209 144.656C208.615 144.396 208.204 144.267 207.767 144.267C207.367 144.267 207.052 144.381 206.822 144.611C206.593 144.833 206.478 145.107 206.478 145.433C206.478 145.663 206.53 145.859 206.633 146.022C206.744 146.185 206.878 146.322 207.033 146.433C207.196 146.537 207.356 146.63 207.511 146.711L208.733 147.322C208.904 147.404 209.104 147.519 209.333 147.667C209.57 147.807 209.8 147.989 210.022 148.211C210.244 148.433 210.426 148.704 210.567 149.022C210.715 149.341 210.789 149.722 210.789 150.167C210.789 150.744 210.652 151.263 210.378 151.722C210.111 152.174 209.741 152.53 209.267 152.789C208.793 153.048 208.237 153.178 207.6 153.178ZM212.686 153V147.6H211.308V146.333H212.719V144.111H214.219V146.333H215.708V147.6H214.253V153H212.686ZM219.182 153.133C218.575 153.133 218.019 152.978 217.516 152.667C217.012 152.356 216.608 151.937 216.304 151.411C216.008 150.885 215.86 150.304 215.86 149.667C215.86 149.03 216.008 148.448 216.304 147.922C216.608 147.396 217.012 146.978 217.516 146.667C218.019 146.356 218.575 146.2 219.182 146.2C219.627 146.2 220.038 146.281 220.416 146.444C220.801 146.6 221.13 146.822 221.404 147.111V146.333H222.793V153H221.404V152.222C221.13 152.504 220.801 152.726 220.416 152.889C220.038 153.052 219.627 153.133 219.182 153.133ZM219.382 151.733C219.753 151.733 220.09 151.641 220.393 151.456C220.704 151.27 220.949 151.022 221.127 150.711C221.312 150.4 221.404 150.052 221.404 149.667C221.404 149.289 221.312 148.944 221.127 148.633C220.949 148.315 220.708 148.063 220.404 147.878C220.101 147.693 219.76 147.6 219.382 147.6C219.012 147.6 218.671 147.693 218.36 147.878C218.056 148.063 217.812 148.311 217.627 148.622C217.449 148.933 217.36 149.281 217.36 149.667C217.36 150.044 217.449 150.393 217.627 150.711C217.812 151.022 218.056 151.27 218.36 151.456C218.664 151.641 219.004 151.733 219.382 151.733ZM228.657 153L225.824 149.333L228.157 146.333H229.89L227.601 149.2L230.557 153H228.657ZM224.268 153V142.333H225.835V153H224.268ZM234.04 153.178C233.322 153.178 232.681 153.022 232.118 152.711C231.555 152.4 231.115 151.974 230.796 151.433C230.485 150.893 230.329 150.281 230.329 149.6C230.329 148.948 230.481 148.363 230.785 147.844C231.096 147.326 231.511 146.915 232.029 146.611C232.555 146.307 233.133 146.156 233.763 146.156C234.4 146.156 234.974 146.304 235.485 146.6C236.003 146.896 236.415 147.3 236.718 147.811C237.022 148.315 237.174 148.889 237.174 149.533V150.122H232.963C232.778 150.122 232.592 150.115 232.407 150.1C232.222 150.078 232.037 150.052 231.852 150.022C231.94 150.533 232.185 150.959 232.585 151.3C232.992 151.641 233.489 151.811 234.074 151.811C234.496 151.811 234.881 151.722 235.229 151.544C235.578 151.359 235.863 151.122 236.085 150.833L236.463 152.389C236.137 152.648 235.766 152.844 235.352 152.978C234.937 153.111 234.5 153.178 234.04 153.178ZM231.818 149.022C232.203 148.948 232.585 148.911 232.963 148.911H234.652C234.837 148.911 235.015 148.919 235.185 148.933C235.363 148.948 235.533 148.967 235.696 148.989C235.585 148.537 235.352 148.17 234.996 147.889C234.648 147.6 234.233 147.456 233.752 147.456C233.285 147.456 232.874 147.604 232.518 147.9C232.163 148.196 231.929 148.57 231.818 149.022ZM241.124 153.133C240.509 153.133 239.95 152.978 239.446 152.667C238.942 152.356 238.539 151.937 238.235 151.411C237.939 150.885 237.791 150.304 237.791 149.667C237.791 149.03 237.939 148.448 238.235 147.922C238.539 147.396 238.942 146.978 239.446 146.667C239.95 146.356 240.509 146.2 241.124 146.2C241.517 146.2 241.883 146.267 242.224 146.4C242.572 146.526 242.883 146.704 243.157 146.933V142.333H244.724V153H243.335V152.233C243.061 152.515 242.731 152.737 242.346 152.9C241.968 153.056 241.561 153.133 241.124 153.133ZM241.313 151.733C241.683 151.733 242.02 151.641 242.324 151.456C242.635 151.27 242.88 151.022 243.057 150.711C243.242 150.4 243.335 150.052 243.335 149.667C243.335 149.289 243.242 148.944 243.057 148.633C242.88 148.315 242.639 148.063 242.335 147.878C242.031 147.693 241.691 147.6 241.313 147.6C240.942 147.6 240.602 147.693 240.291 147.878C239.987 148.063 239.742 148.311 239.557 148.622C239.38 148.933 239.291 149.281 239.291 149.667C239.291 150.044 239.38 150.393 239.557 150.711C239.742 151.022 239.987 151.27 240.291 151.456C240.594 151.641 240.935 151.733 241.313 151.733Z" fill="#9A9AB8"/>
<path d="M296.242 57.175C295.588 57.175 294.975 57.0616 294.405 56.8347C293.841 56.6079 293.345 56.2903 292.917 55.8819C292.489 55.4671 292.156 54.9843 291.916 54.4333C291.682 53.8824 291.566 53.2829 291.566 52.6347C291.566 51.9931 291.682 51.3968 291.916 50.8458C292.156 50.2884 292.489 49.8056 292.917 49.3972C293.345 48.9824 293.841 48.6583 294.405 48.425C294.969 48.1917 295.578 48.075 296.232 48.075C296.835 48.075 297.399 48.1755 297.924 48.3764C298.449 48.5708 298.916 48.8495 299.324 49.2125L298.867 51.0403C298.608 50.619 298.251 50.269 297.798 49.9903C297.35 49.7116 296.829 49.5722 296.232 49.5722C295.656 49.5722 295.14 49.7083 294.687 49.9806C294.233 50.2463 293.873 50.6125 293.607 51.0792C293.348 51.5394 293.219 52.0579 293.219 52.6347C293.219 53.2245 293.348 53.7495 293.607 54.2097C293.873 54.6699 294.233 55.0361 294.687 55.3083C295.14 55.5741 295.652 55.7069 296.223 55.7069C296.514 55.7069 296.787 55.6778 297.039 55.6194C297.292 55.5546 297.519 55.4639 297.72 55.3472V53.5H295.785V52.1583H299.178V56.3097C298.783 56.5819 298.332 56.7958 297.827 56.9514C297.328 57.1005 296.8 57.175 296.242 57.175ZM304.107 57.175C303.53 57.175 303.001 57.0356 302.522 56.7569C302.049 56.4782 301.673 56.1056 301.394 55.6389C301.115 55.1722 300.976 54.6537 300.976 54.0833C300.976 53.513 301.115 52.9944 301.394 52.5278C301.673 52.0611 302.049 51.6884 302.522 51.4097C303.001 51.131 303.526 50.9917 304.097 50.9917C304.68 50.9917 305.208 51.131 305.682 51.4097C306.155 51.6884 306.531 52.0611 306.809 52.5278C307.095 52.988 307.237 53.5065 307.237 54.0833C307.237 54.6472 307.095 55.1657 306.809 55.6389C306.531 56.1056 306.155 56.4782 305.682 56.7569C305.208 57.0356 304.683 57.175 304.107 57.175ZM304.097 55.7944C304.414 55.7944 304.7 55.7167 304.952 55.5611C305.205 55.4056 305.406 55.1981 305.555 54.9389C305.704 54.6796 305.779 54.3944 305.779 54.0833C305.779 53.7657 305.704 53.4806 305.555 53.2278C305.406 52.9685 305.205 52.7611 304.952 52.6056C304.7 52.45 304.414 52.3722 304.097 52.3722C303.786 52.3722 303.504 52.45 303.251 52.6056C302.998 52.7611 302.797 52.9685 302.648 53.2278C302.499 53.4806 302.425 53.7657 302.425 54.0833C302.425 54.3944 302.499 54.6796 302.648 54.9389C302.797 55.1981 302.998 55.4056 303.251 55.5611C303.504 55.7167 303.786 55.7944 304.097 55.7944ZM308.921 57V47.6667H310.448V57H308.921ZM315.048 57.1361C314.51 57.1361 314.021 57 313.58 56.7278C313.139 56.4491 312.786 56.0796 312.52 55.6194C312.261 55.1528 312.131 54.6407 312.131 54.0833C312.131 53.5259 312.261 53.0171 312.52 52.5569C312.786 52.0903 313.139 51.7208 313.58 51.4486C314.021 51.1699 314.51 51.0306 315.048 51.0306C315.378 51.0306 315.683 51.0824 315.962 51.1861C316.247 51.2898 316.503 51.4324 316.73 51.6139V47.6667H318.256V57H316.924V56.3778C316.697 56.6111 316.422 56.7958 316.098 56.9319C315.774 57.0681 315.424 57.1361 315.048 57.1361ZM315.223 55.7847C315.534 55.7847 315.813 55.7069 316.059 55.5514C316.312 55.3958 316.513 55.1917 316.662 54.9389C316.811 54.6796 316.885 54.3944 316.885 54.0833C316.885 53.7722 316.811 53.4903 316.662 53.2375C316.513 52.9782 316.312 52.7708 316.059 52.6153C315.813 52.4597 315.537 52.3819 315.233 52.3819C314.921 52.3819 314.64 52.4597 314.387 52.6153C314.14 52.7708 313.943 52.9782 313.794 53.2375C313.645 53.4903 313.57 53.7722 313.57 54.0833C313.57 54.3944 313.645 54.6796 313.794 54.9389C313.943 55.1917 314.14 55.3958 314.387 55.5514C314.64 55.7069 314.918 55.7847 315.223 55.7847Z" fill="#FFBC70"/>
<rect opacity="0.32" x="268.5" y="36.5" width="74" height="31" rx="15.5" stroke="#FF9D5C"/>
<path d="M20 84C20 53.8301 20 38.7452 29.3726 29.3726C38.7452 20 53.8301 20 84 20H108C138.17 20 153.255 20 162.627 29.3726C172 38.7452 172 53.8301 172 84V108C172 138.17 172 153.255 162.627 162.627C153.255 172 138.17 172 108 172H84C53.8301 172 38.7452 172 29.3726 162.627C20 153.255 20 138.17 20 108V84Z" fill="#0C0C14"/>
<g filter="url(#filter16_f_21833_412)">
<mask id="mask2_21833_412" style="mask-type:alpha" maskUnits="userSpaceOnUse" x="16" y="16" width="160" height="160">
<rect x="20" y="20" width="152" height="152" rx="32" stroke="#1C1C29" stroke-width="8"/>
</mask>
<g mask="url(#mask2_21833_412)">
<g filter="url(#filter17_f_21833_412)">
<ellipse cx="52" cy="16" rx="52" ry="16" transform="matrix(-1 -1.74846e-07 -1.74846e-07 1 116 4)" fill="#C95CFF"/>
</g>
<g filter="url(#filter18_f_21833_412)" style="mix-blend-mode:plus-lighter">
<ellipse cx="32" cy="16" rx="32" ry="16" transform="matrix(-1 -1.74846e-07 -1.74846e-07 1 76 4)" fill="#FF7847"/>
</g>
<g filter="url(#filter19_f_21833_412)" style="mix-blend-mode:plus-lighter">
<ellipse cx="20" cy="12" rx="20" ry="12" transform="matrix(-1 -1.74846e-07 -1.74846e-07 1 52 8)" fill="#FF7847"/>
</g>
<g filter="url(#filter20_f_21833_412)" style="mix-blend-mode:plus-lighter">
<ellipse cx="12" cy="4" rx="12" ry="4" transform="matrix(-1 -1.74846e-07 -1.74846e-07 1 36 16)" fill="white"/>
</g>
<g filter="url(#filter21_f_21833_412)">
<ellipse cx="128" cy="172" rx="52" ry="16" fill="#C95CFF"/>
</g>
<g filter="url(#filter22_f_21833_412)" style="mix-blend-mode:plus-lighter">
<ellipse cx="148" cy="172" rx="32" ry="16" fill="#FF7847"/>
</g>
<g filter="url(#filter23_f_21833_412)" style="mix-blend-mode:plus-lighter">
<ellipse cx="160" cy="172" rx="20" ry="12" fill="#FF7847"/>
</g>
<g filter="url(#filter24_f_21833_412)" style="mix-blend-mode:plus-lighter">
<ellipse cx="168" cy="172" rx="12" ry="4" fill="white"/>
</g>
</g>
</g>
<mask id="mask3_21833_412" style="mask-type:alpha" maskUnits="userSpaceOnUse" x="20" y="20" width="152" height="152">
<rect x="20" y="20" width="152" height="152" rx="32" fill="#1C1C29"/>
</mask>
<g mask="url(#mask3_21833_412)">
<g filter="url(#filter25_f_21833_412)">
<ellipse cx="52" cy="16" rx="52" ry="16" transform="matrix(-1 -1.74846e-07 -1.74846e-07 1 116 4)" fill="#C95CFF"/>
</g>
<g filter="url(#filter26_f_21833_412)" style="mix-blend-mode:plus-lighter">
<ellipse cx="32" cy="16" rx="32" ry="16" transform="matrix(-1 -1.74846e-07 -1.74846e-07 1 76 4)" fill="#FF7847"/>
</g>
<g filter="url(#filter27_f_21833_412)" style="mix-blend-mode:plus-lighter">
<ellipse cx="20" cy="12" rx="20" ry="12" transform="matrix(-1 -1.74846e-07 -1.74846e-07 1 52 8)" fill="#FF7847"/>
</g>
<g filter="url(#filter28_f_21833_412)" style="mix-blend-mode:plus-lighter">
<ellipse cx="12" cy="4" rx="12" ry="4" transform="matrix(-1 -1.74846e-07 -1.74846e-07 1 36 16)" fill="white"/>
</g>
<g filter="url(#filter29_f_21833_412)">
<ellipse cx="128" cy="172" rx="52" ry="16" fill="#C95CFF"/>
</g>
<g filter="url(#filter30_f_21833_412)" style="mix-blend-mode:plus-lighter">
<ellipse cx="148" cy="172" rx="32" ry="16" fill="#FF7847"/>
</g>
<g filter="url(#filter31_f_21833_412)" style="mix-blend-mode:plus-lighter">
<ellipse cx="160" cy="172" rx="20" ry="12" fill="#FF7847"/>
</g>
<g filter="url(#filter32_f_21833_412)" style="mix-blend-mode:plus-lighter">
<ellipse cx="168" cy="172" rx="12" ry="4" fill="white"/>
</g>
</g>
<mask id="mask4_21833_412" style="mask-type:alpha" maskUnits="userSpaceOnUse" x="20" y="20" width="152" height="152">
<rect x="20.5" y="20.5" width="151" height="151" rx="31.5" stroke="#1C1C29"/>
</mask>
<g mask="url(#mask4_21833_412)">
<g filter="url(#filter33_f_21833_412)">
<ellipse cx="52" cy="16" rx="52" ry="16" transform="matrix(-1 -1.74846e-07 -1.74846e-07 1 116 4)" fill="#C95CFF"/>
</g>
<g filter="url(#filter34_f_21833_412)" style="mix-blend-mode:plus-lighter">
<ellipse cx="32" cy="16" rx="32" ry="16" transform="matrix(-1 -1.74846e-07 -1.74846e-07 1 76 4)" fill="#FF7847"/>
</g>
<g filter="url(#filter35_f_21833_412)" style="mix-blend-mode:plus-lighter">
<ellipse cx="20" cy="12" rx="20" ry="12" transform="matrix(-1 -1.74846e-07 -1.74846e-07 1 52 8)" fill="#FF7847"/>
</g>
<g filter="url(#filter36_f_21833_412)" style="mix-blend-mode:plus-lighter">
<ellipse cx="12" cy="4" rx="12" ry="4" transform="matrix(-1 -1.74846e-07 -1.74846e-07 1 36 16)" fill="white"/>
</g>
<g filter="url(#filter37_f_21833_412)">
<ellipse cx="128" cy="172" rx="52" ry="16" fill="#C95CFF"/>
</g>
<g filter="url(#filter38_f_21833_412)" style="mix-blend-mode:plus-lighter">
<ellipse cx="148" cy="172" rx="32" ry="16" fill="#FF7847"/>
</g>
<g filter="url(#filter39_f_21833_412)" style="mix-blend-mode:plus-lighter">
<ellipse cx="160" cy="172" rx="20" ry="12" fill="#FF7847"/>
</g>
<g filter="url(#filter40_f_21833_412)" style="mix-blend-mode:plus-lighter">
<ellipse cx="168" cy="172" rx="12" ry="4" fill="white"/>
</g>
</g>
<path d="M68.8034 100.4C66.8923 100.4 65.1368 99.9556 63.5368 99.0667C61.959 98.1778 60.7145 96.9556 59.8034 95.4L62.0034 91.0333C62.2479 92.7444 63.0034 94.1667 64.2701 95.3C65.559 96.4333 67.0701 97 68.8034 97C70.0701 97 71.2146 96.7 72.2368 96.1C73.2812 95.4778 74.1034 94.6556 74.7034 93.6333C75.3034 92.6111 75.6034 91.4667 75.6034 90.2C75.6034 88.9556 75.2923 87.8222 74.6701 86.8C74.0701 85.7556 73.259 84.9333 72.2368 84.3333C71.2146 83.7111 70.0701 83.4 68.8034 83.4C68.1812 83.4 67.5923 83.4778 67.0368 83.6333C66.5034 83.7889 66.0145 83.9889 65.5701 84.2333L71.2701 73.2H62.0034V70H76.8034L71.1701 80.5C72.659 80.7889 74.0034 81.3889 75.2034 82.3C76.4257 83.2111 77.3923 84.3444 78.1034 85.7C78.8368 87.0333 79.2034 88.5333 79.2034 90.2C79.2034 92.1111 78.7368 93.8444 77.8034 95.4C76.8701 96.9333 75.6146 98.1556 74.0368 99.0667C72.459 99.9556 70.7146 100.4 68.8034 100.4ZM91.8678 100.4C89.9567 100.4 88.2011 99.9556 86.6011 99.0667C85.0234 98.1778 83.7789 96.9556 82.8678 95.4L85.0678 91.0333C85.3123 92.7444 86.0678 94.1667 87.3345 95.3C88.6234 96.4333 90.1345 97 91.8678 97C93.1345 97 94.2789 96.7 95.3011 96.1C96.3456 95.4778 97.1678 94.6556 97.7678 93.6333C98.3678 92.6111 98.6678 91.4667 98.6678 90.2C98.6678 88.9556 98.3567 87.8222 97.7345 86.8C97.1345 85.7556 96.3234 84.9333 95.3011 84.3333C94.2789 83.7111 93.1345 83.4 91.8678 83.4C91.2456 83.4 90.6567 83.4778 90.1011 83.6333C89.5678 83.7889 89.0789 83.9889 88.6345 84.2333L94.3345 73.2H85.0678V70H99.8678L94.2345 80.5C95.7234 80.7889 97.0678 81.3889 98.2678 82.3C99.49 83.2111 100.457 84.3444 101.168 85.7C101.901 87.0333 102.268 88.5333 102.268 90.2C102.268 92.1111 101.801 93.8444 100.868 95.4C99.9345 96.9333 98.6789 98.1556 97.1011 99.0667C95.5234 99.9556 93.7789 100.4 91.8678 100.4ZM108.032 100.4C107.299 100.4 106.677 100.156 106.166 99.6667C105.677 99.1556 105.432 98.5333 105.432 97.8C105.432 97.0667 105.677 96.4556 106.166 95.9667C106.677 95.4556 107.299 95.2 108.032 95.2C108.788 95.2 109.41 95.4556 109.899 95.9667C110.388 96.4556 110.632 97.0667 110.632 97.8C110.632 98.5333 110.388 99.1556 109.899 99.6667C109.41 100.156 108.788 100.4 108.032 100.4ZM123.312 100.4C121.357 100.4 119.579 99.9556 117.979 99.0667C116.401 98.1556 115.146 96.9333 114.212 95.4C113.279 93.8667 112.812 92.1444 112.812 90.2333C112.812 89.3667 112.923 88.5222 113.146 87.7C113.368 86.8556 113.668 86.0667 114.046 85.3333L122.079 70H126.212L120.012 81.4333C120.634 80.9444 121.268 80.6222 121.912 80.4667C122.557 80.2889 123.212 80.2 123.879 80.2C125.701 80.2 127.357 80.6333 128.846 81.5C130.357 82.3667 131.557 83.5556 132.446 85.0667C133.357 86.5778 133.812 88.2889 133.812 90.2C133.812 92.1111 133.346 93.8444 132.412 95.4C131.479 96.9333 130.212 98.1556 128.612 99.0667C127.034 99.9556 125.268 100.4 123.312 100.4ZM123.346 97C124.634 97 125.79 96.7 126.812 96.1C127.857 95.4778 128.679 94.6556 129.279 93.6333C129.901 92.5889 130.212 91.4333 130.212 90.1667C130.212 88.9222 129.901 87.7889 129.279 86.7667C128.679 85.7222 127.857 84.8889 126.812 84.2667C125.79 83.6444 124.634 83.3333 123.346 83.3333C122.079 83.3333 120.923 83.6444 119.879 84.2667C118.834 84.8889 118.001 85.7222 117.379 86.7667C116.779 87.7889 116.479 88.9222 116.479 90.1667C116.479 91.4333 116.779 92.5889 117.379 93.6333C118.001 94.6556 118.834 95.4778 119.879 96.1C120.923 96.7 122.079 97 123.346 97Z" fill="#FFBC70"/>
<path d="M79.0332 124.467C78.5443 124.467 78.1332 124.333 77.7999 124.067C77.474 123.793 77.2295 123.441 77.0666 123.011C76.911 122.581 76.8332 122.133 76.8332 121.667C76.8332 121.193 76.911 120.744 77.0666 120.322C77.2295 119.893 77.474 119.544 77.7999 119.278C78.1332 119.004 78.5443 118.867 79.0332 118.867C79.5295 118.867 79.9406 119.004 80.2666 119.278C80.5925 119.544 80.8332 119.893 80.9888 120.322C81.1517 120.744 81.2332 121.193 81.2332 121.667C81.2332 122.133 81.1517 122.581 80.9888 123.011C80.8332 123.441 80.5925 123.793 80.2666 124.067C79.9406 124.333 79.5295 124.467 79.0332 124.467ZM79.0332 123.356C79.2703 123.356 79.4555 123.274 79.5888 123.111C79.7295 122.941 79.8332 122.726 79.8999 122.467C79.9666 122.207 79.9999 121.941 79.9999 121.667C79.9999 121.385 79.9666 121.119 79.8999 120.867C79.8332 120.607 79.7295 120.396 79.5888 120.233C79.4555 120.063 79.2703 119.978 79.0332 119.978C78.8036 119.978 78.6184 120.063 78.4777 120.233C78.3369 120.396 78.2332 120.607 78.1666 120.867C78.0999 121.119 78.0666 121.385 78.0666 121.667C78.0666 121.941 78.0999 122.207 78.1666 122.467C78.2332 122.726 78.3369 122.941 78.4777 123.111C78.6184 123.274 78.8036 123.356 79.0332 123.356ZM78.4555 129L85.3221 119H86.611L79.7443 129H78.4555ZM86.0332 129.133C85.5443 129.133 85.1332 129 84.7999 128.733C84.474 128.459 84.2295 128.107 84.0666 127.678C83.911 127.248 83.8332 126.8 83.8332 126.333C83.8332 125.859 83.911 125.411 84.0666 124.989C84.2295 124.559 84.474 124.211 84.7999 123.944C85.1332 123.67 85.5443 123.533 86.0332 123.533C86.5295 123.533 86.9406 123.67 87.2666 123.944C87.5925 124.211 87.8332 124.559 87.9888 124.989C88.1517 125.411 88.2332 125.859 88.2332 126.333C88.2332 126.8 88.1517 127.248 87.9888 127.678C87.8332 128.107 87.5925 128.459 87.2666 128.733C86.9406 129 86.5295 129.133 86.0332 129.133ZM86.0332 128.022C86.2703 128.022 86.4555 127.941 86.5888 127.778C86.7295 127.607 86.8332 127.393 86.8999 127.133C86.9666 126.874 86.9999 126.607 86.9999 126.333C86.9999 126.052 86.9666 125.785 86.8999 125.533C86.8332 125.274 86.7295 125.063 86.5888 124.9C86.4555 124.73 86.2703 124.644 86.0332 124.644C85.8036 124.644 85.6184 124.73 85.4777 124.9C85.3369 125.063 85.2332 125.274 85.1666 125.533C85.0999 125.785 85.0666 126.052 85.0666 126.333C85.0666 126.607 85.0999 126.874 85.1666 127.133C85.2332 127.393 85.3369 127.607 85.4777 127.778C85.6184 127.941 85.8036 128.022 86.0332 128.022ZM91.5495 129L95.8717 118.656H95.8939L100.216 129H98.5384L97.5828 126.633H94.1273L93.1606 129H91.5495ZM94.6717 125.3H97.0273L96.4273 123.8C96.3161 123.541 96.2124 123.285 96.1161 123.033C96.0273 122.781 95.9384 122.485 95.8495 122.144C95.7606 122.485 95.6717 122.781 95.5828 123.033C95.4939 123.278 95.3939 123.533 95.2828 123.8L94.6717 125.3ZM101.296 129V119H104.052C104.726 119 105.296 119.104 105.763 119.311C106.237 119.511 106.618 119.778 106.907 120.111C107.196 120.437 107.407 120.796 107.541 121.189C107.674 121.574 107.741 121.952 107.741 122.322C107.741 122.693 107.674 123.07 107.541 123.456C107.415 123.841 107.207 124.2 106.918 124.533C106.629 124.867 106.248 125.137 105.774 125.344C105.307 125.544 104.733 125.644 104.052 125.644H102.896V129H101.296ZM102.896 124.2H103.963C104.496 124.2 104.918 124.107 105.229 123.922C105.541 123.73 105.763 123.493 105.896 123.211C106.037 122.922 106.107 122.626 106.107 122.322C106.107 122.033 106.041 121.744 105.907 121.456C105.781 121.159 105.559 120.915 105.241 120.722C104.929 120.53 104.504 120.433 103.963 120.433H102.896V124.2ZM110.919 129V124.222L107.986 119H109.841L111.252 121.578C111.348 121.748 111.441 121.922 111.53 122.1C111.619 122.27 111.708 122.474 111.797 122.711C111.893 122.474 111.986 122.27 112.074 122.1C112.163 121.922 112.256 121.748 112.352 121.578L113.774 119H115.497L112.563 124.222V129H110.919Z" fill="#F1E6FA"/>
<defs>
<filter id="filter0_f_21833_412" x="477" y="-28" width="264" height="192" filterUnits="userSpaceOnUse" color-interpolation-filters="sRGB">
<feFlood flood-opacity="0" result="BackgroundImageFix"/>
<feBlend mode="normal" in="SourceGraphic" in2="BackgroundImageFix" result="shape"/>
<feGaussianBlur stdDeviation="40" result="effect1_foregroundBlur_21833_412"/>
</filter>
<filter id="filter1_f_21833_412" x="501" y="-4" width="176" height="144" filterUnits="userSpaceOnUse" color-interpolation-filters="sRGB">
<feFlood flood-opacity="0" result="BackgroundImageFix"/>
<feBlend mode="normal" in="SourceGraphic" in2="BackgroundImageFix" result="shape"/>
<feGaussianBlur stdDeviation="28" result="effect1_foregroundBlur_21833_412"/>
</filter>
<filter id="filter2_f_21833_412" x="525" y="24" width="104" height="88" filterUnits="userSpaceOnUse" color-interpolation-filters="sRGB">
<feFlood flood-opacity="0" result="BackgroundImageFix"/>
<feBlend mode="normal" in="SourceGraphic" in2="BackgroundImageFix" result="shape"/>
<feGaussianBlur stdDeviation="16" result="effect1_foregroundBlur_21833_412"/>
</filter>
<filter id="filter3_f_21833_412" x="543" y="50" width="52" height="36" filterUnits="userSpaceOnUse" color-interpolation-filters="sRGB">
<feFlood flood-opacity="0" result="BackgroundImageFix"/>
<feBlend mode="normal" in="SourceGraphic" in2="BackgroundImageFix" result="shape"/>
<feGaussianBlur stdDeviation="7" result="effect1_foregroundBlur_21833_412"/>
</filter>
<filter id="filter4_f_21833_412" x="556" y="28" width="264" height="192" filterUnits="userSpaceOnUse" color-interpolation-filters="sRGB">
<feFlood flood-opacity="0" result="BackgroundImageFix"/>
<feBlend mode="normal" in="SourceGraphic" in2="BackgroundImageFix" result="shape"/>
<feGaussianBlur stdDeviation="40" result="effect1_foregroundBlur_21833_412"/>
</filter>
<filter id="filter5_f_21833_412" x="620" y="52" width="176" height="144" filterUnits="userSpaceOnUse" color-interpolation-filters="sRGB">
<feFlood flood-opacity="0" result="BackgroundImageFix"/>
<feBlend mode="normal" in="SourceGraphic" in2="BackgroundImageFix" result="shape"/>
<feGaussianBlur stdDeviation="28" result="effect1_foregroundBlur_21833_412"/>
</filter>
<filter id="filter6_f_21833_412" x="668" y="80" width="104" height="88" filterUnits="userSpaceOnUse" color-interpolation-filters="sRGB">
<feFlood flood-opacity="0" result="BackgroundImageFix"/>
<feBlend mode="normal" in="SourceGraphic" in2="BackgroundImageFix" result="shape"/>
<feGaussianBlur stdDeviation="16" result="effect1_foregroundBlur_21833_412"/>
</filter>
<filter id="filter7_f_21833_412" x="702" y="106" width="52" height="36" filterUnits="userSpaceOnUse" color-interpolation-filters="sRGB">
<feFlood flood-opacity="0" result="BackgroundImageFix"/>
<feBlend mode="normal" in="SourceGraphic" in2="BackgroundImageFix" result="shape"/>
<feGaussianBlur stdDeviation="7" result="effect1_foregroundBlur_21833_412"/>
</filter>
<filter id="filter8_f_21833_412" x="477" y="-28" width="264" height="192" filterUnits="userSpaceOnUse" color-interpolation-filters="sRGB">
<feFlood flood-opacity="0" result="BackgroundImageFix"/>
<feBlend mode="normal" in="SourceGraphic" in2="BackgroundImageFix" result="shape"/>
<feGaussianBlur stdDeviation="40" result="effect1_foregroundBlur_21833_412"/>
</filter>
<filter id="filter9_f_21833_412" x="501" y="-4" width="176" height="144" filterUnits="userSpaceOnUse" color-interpolation-filters="sRGB">
<feFlood flood-opacity="0" result="BackgroundImageFix"/>
<feBlend mode="normal" in="SourceGraphic" in2="BackgroundImageFix" result="shape"/>
<feGaussianBlur stdDeviation="28" result="effect1_foregroundBlur_21833_412"/>
</filter>
<filter id="filter10_f_21833_412" x="525" y="24" width="104" height="88" filterUnits="userSpaceOnUse" color-interpolation-filters="sRGB">
<feFlood flood-opacity="0" result="BackgroundImageFix"/>
<feBlend mode="normal" in="SourceGraphic" in2="BackgroundImageFix" result="shape"/>
<feGaussianBlur stdDeviation="16" result="effect1_foregroundBlur_21833_412"/>
</filter>
<filter id="filter11_f_21833_412" x="543" y="50" width="52" height="36" filterUnits="userSpaceOnUse" color-interpolation-filters="sRGB">
<feFlood flood-opacity="0" result="BackgroundImageFix"/>
<feBlend mode="normal" in="SourceGraphic" in2="BackgroundImageFix" result="shape"/>
<feGaussianBlur stdDeviation="7" result="effect1_foregroundBlur_21833_412"/>
</filter>
<filter id="filter12_f_21833_412" x="556" y="28" width="264" height="192" filterUnits="userSpaceOnUse" color-interpolation-filters="sRGB">
<feFlood flood-opacity="0" result="BackgroundImageFix"/>
<feBlend mode="normal" in="SourceGraphic" in2="BackgroundImageFix" result="shape"/>
<feGaussianBlur stdDeviation="40" result="effect1_foregroundBlur_21833_412"/>
</filter>
<filter id="filter13_f_21833_412" x="620" y="52" width="176" height="144" filterUnits="userSpaceOnUse" color-interpolation-filters="sRGB">
<feFlood flood-opacity="0" result="BackgroundImageFix"/>
<feBlend mode="normal" in="SourceGraphic" in2="BackgroundImageFix" result="shape"/>
<feGaussianBlur stdDeviation="28" result="effect1_foregroundBlur_21833_412"/>
</filter>
<filter id="filter14_f_21833_412" x="668" y="80" width="104" height="88" filterUnits="userSpaceOnUse" color-interpolation-filters="sRGB">
<feFlood flood-opacity="0" result="BackgroundImageFix"/>
<feBlend mode="normal" in="SourceGraphic" in2="BackgroundImageFix" result="shape"/>
<feGaussianBlur stdDeviation="16" result="effect1_foregroundBlur_21833_412"/>
</filter>
<filter id="filter15_f_21833_412" x="702" y="106" width="52" height="36" filterUnits="userSpaceOnUse" color-interpolation-filters="sRGB">
<feFlood flood-opacity="0" result="BackgroundImageFix"/>
<feBlend mode="normal" in="SourceGraphic" in2="BackgroundImageFix" result="shape"/>
<feGaussianBlur stdDeviation="7" result="effect1_foregroundBlur_21833_412"/>
</filter>
<filter id="filter16_f_21833_412" x="0" y="0" width="192" height="192" filterUnits="userSpaceOnUse" color-interpolation-filters="sRGB">
<feFlood flood-opacity="0" result="BackgroundImageFix"/>
<feBlend mode="normal" in="SourceGraphic" in2="BackgroundImageFix" result="shape"/>
<feGaussianBlur stdDeviation="8" result="effect1_foregroundBlur_21833_412"/>
</filter>
<filter id="filter17_f_21833_412" x="-68" y="-76" width="264" height="192" filterUnits="userSpaceOnUse" color-interpolation-filters="sRGB">
<feFlood flood-opacity="0" result="BackgroundImageFix"/>
<feBlend mode="normal" in="SourceGraphic" in2="BackgroundImageFix" result="shape"/>
<feGaussianBlur stdDeviation="40" result="effect1_foregroundBlur_21833_412"/>
</filter>
<filter id="filter18_f_21833_412" x="-44" y="-52" width="176" height="144" filterUnits="userSpaceOnUse" color-interpolation-filters="sRGB">
<feFlood flood-opacity="0" result="BackgroundImageFix"/>
<feBlend mode="normal" in="SourceGraphic" in2="BackgroundImageFix" result="shape"/>
<feGaussianBlur stdDeviation="28" result="effect1_foregroundBlur_21833_412"/>
</filter>
<filter id="filter19_f_21833_412" x="-20" y="-24" width="104" height="88" filterUnits="userSpaceOnUse" color-interpolation-filters="sRGB">
<feFlood flood-opacity="0" result="BackgroundImageFix"/>
<feBlend mode="normal" in="SourceGraphic" in2="BackgroundImageFix" result="shape"/>
<feGaussianBlur stdDeviation="16" result="effect1_foregroundBlur_21833_412"/>
</filter>
<filter id="filter20_f_21833_412" x="-2" y="2" width="52" height="36" filterUnits="userSpaceOnUse" color-interpolation-filters="sRGB">
<feFlood flood-opacity="0" result="BackgroundImageFix"/>
<feBlend mode="normal" in="SourceGraphic" in2="BackgroundImageFix" result="shape"/>
<feGaussianBlur stdDeviation="7" result="effect1_foregroundBlur_21833_412"/>
</filter>
<filter id="filter21_f_21833_412" x="-4" y="76" width="264" height="192" filterUnits="userSpaceOnUse" color-interpolation-filters="sRGB">
<feFlood flood-opacity="0" result="BackgroundImageFix"/>
<feBlend mode="normal" in="SourceGraphic" in2="BackgroundImageFix" result="shape"/>
<feGaussianBlur stdDeviation="40" result="effect1_foregroundBlur_21833_412"/>
</filter>
<filter id="filter22_f_21833_412" x="60" y="100" width="176" height="144" filterUnits="userSpaceOnUse" color-interpolation-filters="sRGB">
<feFlood flood-opacity="0" result="BackgroundImageFix"/>
<feBlend mode="normal" in="SourceGraphic" in2="BackgroundImageFix" result="shape"/>
<feGaussianBlur stdDeviation="28" result="effect1_foregroundBlur_21833_412"/>
</filter>
<filter id="filter23_f_21833_412" x="108" y="128" width="104" height="88" filterUnits="userSpaceOnUse" color-interpolation-filters="sRGB">
<feFlood flood-opacity="0" result="BackgroundImageFix"/>
<feBlend mode="normal" in="SourceGraphic" in2="BackgroundImageFix" result="shape"/>
<feGaussianBlur stdDeviation="16" result="effect1_foregroundBlur_21833_412"/>
</filter>
<filter id="filter24_f_21833_412" x="142" y="154" width="52" height="36" filterUnits="userSpaceOnUse" color-interpolation-filters="sRGB">
<feFlood flood-opacity="0" result="BackgroundImageFix"/>
<feBlend mode="normal" in="SourceGraphic" in2="BackgroundImageFix" result="shape"/>
<feGaussianBlur stdDeviation="7" result="effect1_foregroundBlur_21833_412"/>
</filter>
<filter id="filter25_f_21833_412" x="-68" y="-76" width="264" height="192" filterUnits="userSpaceOnUse" color-interpolation-filters="sRGB">
<feFlood flood-opacity="0" result="BackgroundImageFix"/>
<feBlend mode="normal" in="SourceGraphic" in2="BackgroundImageFix" result="shape"/>
<feGaussianBlur stdDeviation="40" result="effect1_foregroundBlur_21833_412"/>
</filter>
<filter id="filter26_f_21833_412" x="-44" y="-52" width="176" height="144" filterUnits="userSpaceOnUse" color-interpolation-filters="sRGB">
<feFlood flood-opacity="0" result="BackgroundImageFix"/>
<feBlend mode="normal" in="SourceGraphic" in2="BackgroundImageFix" result="shape"/>
<feGaussianBlur stdDeviation="28" result="effect1_foregroundBlur_21833_412"/>
</filter>
<filter id="filter27_f_21833_412" x="-20" y="-24" width="104" height="88" filterUnits="userSpaceOnUse" color-interpolation-filters="sRGB">
<feFlood flood-opacity="0" result="BackgroundImageFix"/>
<feBlend mode="normal" in="SourceGraphic" in2="BackgroundImageFix" result="shape"/>
<feGaussianBlur stdDeviation="16" result="effect1_foregroundBlur_21833_412"/>
</filter>
<filter id="filter28_f_21833_412" x="-2" y="2" width="52" height="36" filterUnits="userSpaceOnUse" color-interpolation-filters="sRGB">
<feFlood flood-opacity="0" result="BackgroundImageFix"/>
<feBlend mode="normal" in="SourceGraphic" in2="BackgroundImageFix" result="shape"/>
<feGaussianBlur stdDeviation="7" result="effect1_foregroundBlur_21833_412"/>
</filter>
<filter id="filter29_f_21833_412" x="-4" y="76" width="264" height="192" filterUnits="userSpaceOnUse" color-interpolation-filters="sRGB">
<feFlood flood-opacity="0" result="BackgroundImageFix"/>
<feBlend mode="normal" in="SourceGraphic" in2="BackgroundImageFix" result="shape"/>
<feGaussianBlur stdDeviation="40" result="effect1_foregroundBlur_21833_412"/>
</filter>
<filter id="filter30_f_21833_412" x="60" y="100" width="176" height="144" filterUnits="userSpaceOnUse" color-interpolation-filters="sRGB">
<feFlood flood-opacity="0" result="BackgroundImageFix"/>
<feBlend mode="normal" in="SourceGraphic" in2="BackgroundImageFix" result="shape"/>
<feGaussianBlur stdDeviation="28" result="effect1_foregroundBlur_21833_412"/>
</filter>
<filter id="filter31_f_21833_412" x="108" y="128" width="104" height="88" filterUnits="userSpaceOnUse" color-interpolation-filters="sRGB">
<feFlood flood-opacity="0" result="BackgroundImageFix"/>
<feBlend mode="normal" in="SourceGraphic" in2="BackgroundImageFix" result="shape"/>
<feGaussianBlur stdDeviation="16" result="effect1_foregroundBlur_21833_412"/>
</filter>
<filter id="filter32_f_21833_412" x="142" y="154" width="52" height="36" filterUnits="userSpaceOnUse" color-interpolation-filters="sRGB">
<feFlood flood-opacity="0" result="BackgroundImageFix"/>
<feBlend mode="normal" in="SourceGraphic" in2="BackgroundImageFix" result="shape"/>
<feGaussianBlur stdDeviation="7" result="effect1_foregroundBlur_21833_412"/>
</filter>
<filter id="filter33_f_21833_412" x="-68" y="-76" width="264" height="192" filterUnits="userSpaceOnUse" color-interpolation-filters="sRGB">
<feFlood flood-opacity="0" result="BackgroundImageFix"/>
<feBlend mode="normal" in="SourceGraphic" in2="BackgroundImageFix" result="shape"/>
<feGaussianBlur stdDeviation="40" result="effect1_foregroundBlur_21833_412"/>
</filter>
<filter id="filter34_f_21833_412" x="-44" y="-52" width="176" height="144" filterUnits="userSpaceOnUse" color-interpolation-filters="sRGB">
<feFlood flood-opacity="0" result="BackgroundImageFix"/>
<feBlend mode="normal" in="SourceGraphic" in2="BackgroundImageFix" result="shape"/>
<feGaussianBlur stdDeviation="28" result="effect1_foregroundBlur_21833_412"/>
</filter>
<filter id="filter35_f_21833_412" x="-20" y="-24" width="104" height="88" filterUnits="userSpaceOnUse" color-interpolation-filters="sRGB">
<feFlood flood-opacity="0" result="BackgroundImageFix"/>
<feBlend mode="normal" in="SourceGraphic" in2="BackgroundImageFix" result="shape"/>
<feGaussianBlur stdDeviation="16" result="effect1_foregroundBlur_21833_412"/>
</filter>
<filter id="filter36_f_21833_412" x="-2" y="2" width="52" height="36" filterUnits="userSpaceOnUse" color-interpolation-filters="sRGB">
<feFlood flood-opacity="0" result="BackgroundImageFix"/>
<feBlend mode="normal" in="SourceGraphic" in2="BackgroundImageFix" result="shape"/>
<feGaussianBlur stdDeviation="7" result="effect1_foregroundBlur_21833_412"/>
</filter>
<filter id="filter37_f_21833_412" x="-4" y="76" width="264" height="192" filterUnits="userSpaceOnUse" color-interpolation-filters="sRGB">
<feFlood flood-opacity="0" result="BackgroundImageFix"/>
<feBlend mode="normal" in="SourceGraphic" in2="BackgroundImageFix" result="shape"/>
<feGaussianBlur stdDeviation="40" result="effect1_foregroundBlur_21833_412"/>
</filter>
<filter id="filter38_f_21833_412" x="60" y="100" width="176" height="144" filterUnits="userSpaceOnUse" color-interpolation-filters="sRGB">
<feFlood flood-opacity="0" result="BackgroundImageFix"/>
<feBlend mode="normal" in="SourceGraphic" in2="BackgroundImageFix" result="shape"/>
<feGaussianBlur stdDeviation="28" result="effect1_foregroundBlur_21833_412"/>
</filter>
<filter id="filter39_f_21833_412" x="108" y="128" width="104" height="88" filterUnits="userSpaceOnUse" color-interpolation-filters="sRGB">
<feFlood flood-opacity="0" result="BackgroundImageFix"/>
<feBlend mode="normal" in="SourceGraphic" in2="BackgroundImageFix" result="shape"/>
<feGaussianBlur stdDeviation="16" result="effect1_foregroundBlur_21833_412"/>
</filter>
<filter id="filter40_f_21833_412" x="142" y="154" width="52" height="36" filterUnits="userSpaceOnUse" color-interpolation-filters="sRGB">
<feFlood flood-opacity="0" result="BackgroundImageFix"/>
<feBlend mode="normal" in="SourceGraphic" in2="BackgroundImageFix" result="shape"/>
<feGaussianBlur stdDeviation="7" result="effect1_foregroundBlur_21833_412"/>
</filter>
</defs>
</svg>
