<svg width="760" height="280" viewBox="0 0 760 280" fill="none" xmlns="http://www.w3.org/2000/svg">
<rect x="0.5" y="0.5" width="759" height="279" rx="31.5" stroke="#262638"/>
<rect x="259" y="80" width="242" height="192" rx="32" fill="#14141F"/>
<rect x="430" y="96" width="56" height="56" rx="28" fill="#262638"/>
<path d="M288.289 213L304.333 189.133C305.074 188.007 305.578 187.03 305.844 186.2C306.141 185.37 306.289 184.6 306.289 183.889C306.289 181.963 305.607 180.333 304.244 179C302.881 177.667 301.222 177 299.267 177C297.311 177 295.652 177.667 294.289 179C292.956 180.333 292.289 181.963 292.289 183.889C292.289 186.022 293.193 187.815 295 189.267H288.911C287.963 187.459 287.489 185.667 287.489 183.889C287.489 181.726 288.022 179.785 289.089 178.067C290.156 176.348 291.578 174.985 293.356 173.978C295.163 172.97 297.148 172.467 299.311 172.467C301.474 172.467 303.444 172.97 305.222 173.978C307 174.985 308.422 176.348 309.489 178.067C310.556 179.785 311.089 181.726 311.089 183.889C311.089 185.163 310.881 186.422 310.467 187.667C310.052 188.881 309.326 190.23 308.289 191.711L296.733 208.467H311.844V213H288.289ZM328.953 213.533C326.404 213.533 324.064 212.941 321.93 211.756C319.827 210.57 318.167 208.941 316.953 206.867L319.886 201.044C320.212 203.326 321.219 205.222 322.908 206.733C324.627 208.244 326.641 209 328.953 209C330.612 209 332.123 208.6 333.486 207.8C334.878 206.97 335.975 205.874 336.775 204.511C337.604 203.148 338.019 201.637 338.019 199.978C338.019 198.319 337.604 196.807 336.775 195.444C335.945 194.081 334.834 193 333.441 192.2C332.078 191.37 330.538 190.956 328.819 190.956C327.338 190.956 325.945 191.296 324.641 191.978C323.367 192.63 322.315 193.519 321.486 194.644V173H339.53V177.533H325.841V187.4C326.434 187.133 327.041 186.956 327.664 186.867C328.315 186.748 328.938 186.689 329.53 186.689C331.93 186.689 334.138 187.267 336.153 188.422C338.167 189.578 339.782 191.163 340.997 193.178C342.212 195.163 342.819 197.43 342.819 199.978C342.819 202.526 342.182 204.822 340.908 206.867C339.634 208.911 337.945 210.541 335.841 211.756C333.767 212.941 331.471 213.533 328.953 213.533ZM355.172 194.867C353.275 194.867 351.69 194.319 350.416 193.222C349.142 192.126 348.194 190.719 347.572 189C346.949 187.281 346.638 185.504 346.638 183.667C346.638 181.83 346.949 180.052 347.572 178.333C348.194 176.615 349.142 175.207 350.416 174.111C351.69 173.015 353.275 172.467 355.172 172.467C357.098 172.467 358.683 173.015 359.927 174.111C361.201 175.207 362.149 176.615 362.772 178.333C363.394 180.052 363.705 181.83 363.705 183.667C363.705 185.504 363.394 187.281 362.772 189C362.149 190.719 361.201 192.126 359.927 193.222C358.683 194.319 357.098 194.867 355.172 194.867ZM355.172 191.311C356.268 191.311 357.142 190.926 357.794 190.156C358.446 189.385 358.92 188.407 359.216 187.222C359.542 186.037 359.705 184.852 359.705 183.667C359.705 182.452 359.542 181.267 359.216 180.111C358.92 178.926 358.446 177.948 357.794 177.178C357.142 176.407 356.268 176.022 355.172 176.022C354.105 176.022 353.231 176.407 352.549 177.178C351.898 177.948 351.409 178.926 351.083 180.111C350.786 181.267 350.638 182.452 350.638 183.667C350.638 184.852 350.786 186.037 351.083 187.222C351.409 188.407 351.898 189.385 352.549 190.156C353.231 190.926 354.105 191.311 355.172 191.311ZM352.772 213L380.238 173H384.238L356.772 213H352.772ZM381.838 213.533C379.942 213.533 378.357 212.985 377.083 211.889C375.809 210.793 374.861 209.385 374.238 207.667C373.616 205.948 373.305 204.17 373.305 202.333C373.305 200.496 373.616 198.719 374.238 197C374.861 195.281 375.809 193.874 377.083 192.778C378.357 191.681 379.942 191.133 381.838 191.133C383.764 191.133 385.349 191.681 386.594 192.778C387.868 193.874 388.816 195.281 389.438 197C390.061 198.719 390.372 200.496 390.372 202.333C390.372 204.17 390.061 205.948 389.438 207.667C388.816 209.385 387.868 210.793 386.594 211.889C385.349 212.985 383.764 213.533 381.838 213.533ZM381.838 209.978C382.935 209.978 383.809 209.593 384.461 208.822C385.112 208.052 385.586 207.074 385.883 205.889C386.209 204.704 386.372 203.519 386.372 202.333C386.372 201.119 386.209 199.933 385.883 198.778C385.586 197.593 385.112 196.615 384.461 195.844C383.809 195.074 382.935 194.689 381.838 194.689C380.772 194.689 379.898 195.074 379.216 195.844C378.564 196.615 378.075 197.593 377.749 198.778C377.453 199.933 377.305 201.119 377.305 202.333C377.305 203.519 377.453 204.704 377.749 205.889C378.075 207.074 378.564 208.052 379.216 208.822C379.898 209.593 380.772 209.978 381.838 209.978Z" fill="#F1E6FA"/>
<path d="M284.267 237V227H287.056C287.73 227 288.307 227.137 288.789 227.411C289.278 227.678 289.652 228.033 289.911 228.478C290.17 228.922 290.3 229.411 290.3 229.944C290.3 230.478 290.167 230.959 289.9 231.389C289.633 231.819 289.259 232.152 288.778 232.389L291.778 237H289.944L287.244 232.8H285.867V237H284.267ZM285.867 231.433H287.033C287.426 231.433 287.744 231.359 287.989 231.211C288.241 231.063 288.426 230.874 288.544 230.644C288.67 230.415 288.733 230.181 288.733 229.944C288.733 229.515 288.578 229.163 288.267 228.889C287.956 228.607 287.544 228.467 287.033 228.467H285.867V231.433ZM294.846 237.133C294.239 237.133 293.683 236.978 293.179 236.667C292.676 236.356 292.272 235.937 291.968 235.411C291.672 234.885 291.524 234.304 291.524 233.667C291.524 233.03 291.672 232.448 291.968 231.922C292.272 231.396 292.676 230.978 293.179 230.667C293.683 230.356 294.239 230.2 294.846 230.2C295.29 230.2 295.702 230.281 296.079 230.444C296.464 230.6 296.794 230.822 297.068 231.111V230.333H298.457V237H297.068V236.222C296.794 236.504 296.464 236.726 296.079 236.889C295.702 237.052 295.29 237.133 294.846 237.133ZM295.046 235.733C295.416 235.733 295.753 235.641 296.057 235.456C296.368 235.27 296.613 235.022 296.79 234.711C296.976 234.4 297.068 234.052 297.068 233.667C297.068 233.289 296.976 232.944 296.79 232.633C296.613 232.315 296.372 232.063 296.068 231.878C295.764 231.693 295.424 231.6 295.046 231.6C294.676 231.6 294.335 231.693 294.024 231.878C293.72 232.063 293.476 232.311 293.29 232.622C293.113 232.933 293.024 233.281 293.024 233.667C293.024 234.044 293.113 234.393 293.29 234.711C293.476 235.022 293.72 235.27 294.024 235.456C294.327 235.641 294.668 235.733 295.046 235.733ZM300.71 237V231.6H299.332V230.333H300.743V229.1C300.743 228.507 300.876 227.996 301.143 227.567C301.41 227.13 301.773 226.793 302.232 226.556C302.691 226.319 303.202 226.2 303.765 226.2C304.136 226.2 304.487 226.252 304.821 226.356C305.162 226.452 305.469 226.596 305.743 226.789C305.95 226.596 306.191 226.452 306.465 226.356C306.747 226.252 307.047 226.2 307.365 226.2C307.61 226.2 307.847 226.23 308.076 226.289C308.313 226.341 308.524 226.426 308.71 226.544L308.376 227.911C308.11 227.607 307.802 227.456 307.454 227.456C307.21 227.456 307.002 227.537 306.832 227.7C306.662 227.863 306.576 228.137 306.576 228.522V230.333H309.387V226.333H310.954V237H309.387V231.6H306.61V237H305.043V231.6H302.276V237H300.71ZM302.243 230.333H305.076V228.5C305.076 228.411 305.08 228.322 305.087 228.233C305.095 228.144 305.106 228.044 305.121 227.933C304.78 227.615 304.358 227.456 303.854 227.456C303.38 227.456 302.991 227.604 302.687 227.9C302.391 228.196 302.243 228.611 302.243 229.144V230.333ZM315.751 237.178C315.033 237.178 314.392 237.022 313.829 236.711C313.266 236.4 312.825 235.974 312.507 235.433C312.196 234.893 312.04 234.281 312.04 233.6C312.04 232.948 312.192 232.363 312.496 231.844C312.807 231.326 313.221 230.915 313.74 230.611C314.266 230.307 314.844 230.156 315.473 230.156C316.11 230.156 316.684 230.304 317.196 230.6C317.714 230.896 318.125 231.3 318.429 231.811C318.733 232.315 318.884 232.889 318.884 233.533V234.122H314.673C314.488 234.122 314.303 234.115 314.118 234.1C313.933 234.078 313.747 234.052 313.562 234.022C313.651 234.533 313.896 234.959 314.296 235.3C314.703 235.641 315.199 235.811 315.784 235.811C316.207 235.811 316.592 235.722 316.94 235.544C317.288 235.359 317.573 235.122 317.796 234.833L318.173 236.389C317.847 236.648 317.477 236.844 317.062 236.978C316.647 237.111 316.21 237.178 315.751 237.178ZM313.529 233.022C313.914 232.948 314.296 232.911 314.673 232.911H316.362C316.547 232.911 316.725 232.919 316.896 232.933C317.073 232.948 317.244 232.967 317.407 232.989C317.296 232.537 317.062 232.17 316.707 231.889C316.359 231.6 315.944 231.456 315.462 231.456C314.996 231.456 314.584 231.604 314.229 231.9C313.873 232.196 313.64 232.57 313.529 233.022Z" fill="#9A9AB8"/>
<rect x="509" y="80" width="243" height="192" rx="32" fill="#14141F"/>
<rect x="680" y="96" width="56" height="56" rx="28" fill="#262638"/>
<path d="M538.289 213L554.333 189.133C555.074 188.007 555.578 187.03 555.844 186.2C556.141 185.37 556.289 184.6 556.289 183.889C556.289 181.963 555.607 180.333 554.244 179C552.881 177.667 551.222 177 549.267 177C547.311 177 545.652 177.667 544.289 179C542.956 180.333 542.289 181.963 542.289 183.889C542.289 186.022 543.193 187.815 545 189.267H538.911C537.963 187.459 537.489 185.667 537.489 183.889C537.489 181.726 538.022 179.785 539.089 178.067C540.156 176.348 541.578 174.985 543.356 173.978C545.163 172.97 547.148 172.467 549.311 172.467C551.474 172.467 553.444 172.97 555.222 173.978C557 174.985 558.422 176.348 559.489 178.067C560.556 179.785 561.089 181.726 561.089 183.889C561.089 185.163 560.881 186.422 560.467 187.667C560.052 188.881 559.326 190.23 558.289 191.711L546.733 208.467H561.844V213H538.289ZM564.819 213L574.197 198.867L565.841 186.333H571.441L574.019 190.422C574.582 191.281 575.13 192.185 575.664 193.133C576.227 194.052 576.715 195 577.13 195.978C577.575 195 578.064 194.052 578.597 193.133C579.16 192.215 579.723 191.311 580.286 190.422L582.819 186.333H588.33L579.975 198.867L589.353 213H583.664L580.019 207.178C579.486 206.319 578.953 205.459 578.419 204.6C577.886 203.711 577.412 202.793 576.997 201.844C576.582 202.793 576.108 203.711 575.575 204.6C575.041 205.459 574.508 206.319 573.975 207.178L570.33 213H564.819Z" fill="#F1E6FA"/>
<path d="M534.233 237V227H539.367V228.433H535.833V230.267H538.589V231.667H535.833V235.533H539.367V237H534.233ZM540.58 237V230.333H542.002V231.233C542.247 230.885 542.55 230.619 542.913 230.433C543.284 230.248 543.684 230.156 544.113 230.156C544.587 230.156 545.028 230.27 545.436 230.5C545.843 230.73 546.173 231.063 546.424 231.5C546.676 231.937 546.802 232.467 546.802 233.089V237H545.236V233.3C545.236 232.856 545.099 232.459 544.824 232.111C544.558 231.763 544.18 231.589 543.691 231.589C543.291 231.589 542.932 231.73 542.613 232.011C542.302 232.293 542.147 232.711 542.147 233.267V237H540.58ZM548.71 237V231.6H547.332V230.333H548.743V228.111H550.243V230.333H551.732V231.6H550.276V237H548.71ZM552.612 237V230.333H554.034V231.511C554.271 231.126 554.575 230.822 554.945 230.6C555.316 230.378 555.756 230.267 556.267 230.267L556.623 231.722C556.482 231.678 556.323 231.656 556.145 231.656C555.553 231.656 555.075 231.844 554.712 232.222C554.356 232.6 554.179 233.141 554.179 233.844V237H552.612ZM557.365 237V230.333H558.932V237H557.365ZM558.154 229.256C557.895 229.256 557.677 229.167 557.499 228.989C557.321 228.804 557.232 228.585 557.232 228.333C557.232 228.067 557.321 227.848 557.499 227.678C557.684 227.5 557.903 227.411 558.154 227.411C558.421 227.411 558.64 227.5 558.81 227.678C558.988 227.856 559.077 228.074 559.077 228.333C559.077 228.593 558.988 228.811 558.81 228.989C558.632 229.167 558.414 229.256 558.154 229.256ZM563.736 237.178C563.018 237.178 562.377 237.022 561.814 236.711C561.251 236.4 560.81 235.974 560.492 235.433C560.181 234.893 560.025 234.281 560.025 233.6C560.025 232.948 560.177 232.363 560.481 231.844C560.792 231.326 561.206 230.915 561.725 230.611C562.251 230.307 562.829 230.156 563.458 230.156C564.095 230.156 564.669 230.304 565.181 230.6C565.699 230.896 566.11 231.3 566.414 231.811C566.718 232.315 566.869 232.889 566.869 233.533V234.122H562.658C562.473 234.122 562.288 234.115 562.103 234.1C561.918 234.078 561.732 234.052 561.547 234.022C561.636 234.533 561.881 234.959 562.281 235.3C562.688 235.641 563.184 235.811 563.769 235.811C564.192 235.811 564.577 235.722 564.925 235.544C565.273 235.359 565.558 235.122 565.781 234.833L566.158 236.389C565.832 236.648 565.462 236.844 565.047 236.978C564.632 237.111 564.195 237.178 563.736 237.178ZM561.514 233.022C561.899 232.948 562.281 232.911 562.658 232.911H564.347C564.532 232.911 564.71 232.919 564.881 232.933C565.058 232.948 565.229 232.967 565.392 232.989C565.281 232.537 565.047 232.17 564.692 231.889C564.344 231.6 563.929 231.456 563.447 231.456C562.981 231.456 562.569 231.604 562.214 231.9C561.858 232.196 561.625 232.57 561.514 233.022ZM569.842 237.178C569.442 237.178 569.027 237.111 568.597 236.978C568.175 236.837 567.831 236.626 567.564 236.344L567.964 234.778C568.179 235.096 568.464 235.363 568.82 235.578C569.175 235.793 569.546 235.9 569.931 235.9C570.249 235.9 570.483 235.83 570.631 235.689C570.779 235.548 570.853 235.378 570.853 235.178C570.853 234.956 570.775 234.793 570.62 234.689C570.464 234.578 570.316 234.496 570.175 234.444L569.253 234.1C569.068 234.026 568.849 233.922 568.597 233.789C568.353 233.648 568.138 233.452 567.953 233.2C567.768 232.948 567.675 232.619 567.675 232.211C567.675 231.841 567.764 231.5 567.942 231.189C568.127 230.878 568.39 230.63 568.731 230.444C569.071 230.252 569.479 230.156 569.953 230.156C570.36 230.156 570.757 230.226 571.142 230.367C571.534 230.507 571.842 230.696 572.064 230.933L571.675 232.478C571.46 232.152 571.19 231.896 570.864 231.711C570.546 231.526 570.227 231.433 569.908 231.433C569.634 231.433 569.427 231.5 569.286 231.633C569.146 231.767 569.075 231.922 569.075 232.1C569.075 232.233 569.123 232.359 569.22 232.478C569.316 232.589 569.471 232.685 569.686 232.767L570.564 233.1C570.771 233.174 571.005 233.281 571.264 233.422C571.531 233.563 571.76 233.763 571.953 234.022C572.146 234.281 572.242 234.633 572.242 235.078C572.242 235.7 572.016 236.207 571.564 236.6C571.12 236.985 570.546 237.178 569.842 237.178Z" fill="#9A9AB8"/>
<rect x="8" y="80" width="243" height="192" rx="32" fill="#14141F"/>
<path d="M39.2 213V209H48.4444V179.311L39.2 184.022V179.222L53.3333 172.111V209H60.8V213H39.2ZM68.7525 213.533C67.7747 213.533 66.9451 213.207 66.2636 212.556C65.6118 211.874 65.2858 211.044 65.2858 210.067C65.2858 209.089 65.6118 208.274 66.2636 207.622C66.9451 206.941 67.7747 206.6 68.7525 206.6C69.7599 206.6 70.5895 206.941 71.2414 207.622C71.8932 208.274 72.2192 209.089 72.2192 210.067C72.2192 211.044 71.8932 211.874 71.2414 212.556C70.5895 213.207 69.7599 213.533 68.7525 213.533ZM87.3925 213.533C84.8444 213.533 82.5036 212.941 80.3703 211.756C78.2666 210.57 76.6073 208.941 75.3925 206.867L78.3258 201.044C78.6518 203.326 79.6592 205.222 81.3481 206.733C83.0666 208.244 85.0814 209 87.3925 209C89.0518 209 90.5629 208.6 91.9258 207.8C93.3184 206.97 94.4147 205.874 95.2147 204.511C96.0444 203.148 96.4592 201.637 96.4592 199.978C96.4592 198.319 96.0444 196.807 95.2147 195.444C94.3851 194.081 93.274 193 91.8814 192.2C90.5184 191.37 88.9777 190.956 87.2592 190.956C85.7777 190.956 84.3851 191.296 83.0814 191.978C81.8073 192.63 80.7555 193.519 79.9258 194.644V173H97.9703V177.533H84.2814V187.4C84.874 187.133 85.4814 186.956 86.1036 186.867C86.7555 186.748 87.3777 186.689 87.9703 186.689C90.3703 186.689 92.5777 187.267 94.5925 188.422C96.6073 189.578 98.2221 191.163 99.4369 193.178C100.652 195.163 101.259 197.43 101.259 199.978C101.259 202.526 100.622 204.822 99.3481 206.867C98.074 208.911 96.3851 210.541 94.2814 211.756C92.2073 212.941 89.911 213.533 87.3925 213.533ZM104.012 213L113.389 198.867L105.034 186.333H110.634L113.212 190.422C113.775 191.281 114.323 192.185 114.856 193.133C115.419 194.052 115.908 195 116.323 195.978C116.767 195 117.256 194.052 117.789 193.133C118.352 192.215 118.915 191.311 119.478 190.422L122.012 186.333H127.523L119.167 198.867L128.545 213H122.856L119.212 207.178C118.678 206.319 118.145 205.459 117.612 204.6C117.078 203.711 116.604 202.793 116.189 201.844C115.775 202.793 115.301 203.711 114.767 204.6C114.234 205.459 113.701 206.319 113.167 207.178L109.523 213H104.012Z" fill="#F1E6FA"/>
<path d="M36.2333 237V227H39.5667C40.4185 227 41.1741 227.141 41.8333 227.422C42.5 227.696 43.063 228.07 43.5222 228.544C43.9815 229.011 44.3296 229.544 44.5667 230.144C44.8037 230.744 44.9222 231.363 44.9222 232C44.9222 232.637 44.8037 233.256 44.5667 233.856C44.3296 234.456 43.9815 234.993 43.5222 235.467C43.063 235.933 42.5 236.307 41.8333 236.589C41.1741 236.863 40.4185 237 39.5667 237H36.2333ZM37.8333 235.533H39.4111C40.0778 235.533 40.6481 235.433 41.1222 235.233C41.6037 235.026 42 234.752 42.3111 234.411C42.6222 234.07 42.8519 233.693 43 233.278C43.1481 232.856 43.2222 232.43 43.2222 232C43.2222 231.57 43.1481 231.148 43 230.733C42.8519 230.311 42.6222 229.93 42.3111 229.589C42 229.248 41.6037 228.978 41.1222 228.778C40.6481 228.57 40.0778 228.467 39.4111 228.467H37.8333V235.533ZM46.1425 237V230.333H47.5647V231.511C47.8018 231.126 48.1055 230.822 48.4758 230.6C48.8462 230.378 49.2869 230.267 49.7981 230.267L50.1536 231.722C50.0129 231.678 49.8536 231.656 49.6758 231.656C49.0832 231.656 48.6055 231.844 48.2425 232.222C47.8869 232.6 47.7092 233.141 47.7092 233.844V237H46.1425ZM53.9774 237.178C53.2588 237.178 52.6181 237.022 52.0551 236.711C51.4922 236.4 51.0514 235.974 50.7329 235.433C50.4218 234.893 50.2662 234.281 50.2662 233.6C50.2662 232.948 50.4181 232.363 50.7218 231.844C51.0329 231.326 51.4477 230.915 51.9662 230.611C52.4922 230.307 53.07 230.156 53.6996 230.156C54.3366 230.156 54.9107 230.304 55.4218 230.6C55.9403 230.896 56.3514 231.3 56.6551 231.811C56.9588 232.315 57.1107 232.889 57.1107 233.533V234.122H52.8996C52.7144 234.122 52.5292 234.115 52.344 234.1C52.1588 234.078 51.9737 234.052 51.7885 234.022C51.8774 234.533 52.1218 234.959 52.5218 235.3C52.9292 235.641 53.4255 235.811 54.0107 235.811C54.4329 235.811 54.8181 235.722 55.1662 235.544C55.5144 235.359 55.7996 235.122 56.0218 234.833L56.3996 236.389C56.0737 236.648 55.7033 236.844 55.2885 236.978C54.8737 237.111 54.4366 237.178 53.9774 237.178ZM51.7551 233.022C52.1403 232.948 52.5218 232.911 52.8996 232.911H54.5885C54.7737 232.911 54.9514 232.919 55.1218 232.933C55.2996 232.948 55.47 232.967 55.6329 232.989C55.5218 232.537 55.2885 232.17 54.9329 231.889C54.5848 231.6 54.17 231.456 53.6885 231.456C53.2218 231.456 52.8107 231.604 52.4551 231.9C52.0996 232.196 51.8662 232.57 51.7551 233.022ZM61.0497 237.133C60.4423 237.133 59.8868 236.978 59.3831 236.667C58.8794 236.356 58.4756 235.937 58.1719 235.411C57.8756 234.885 57.7275 234.304 57.7275 233.667C57.7275 233.03 57.8756 232.448 58.1719 231.922C58.4756 231.396 58.8794 230.978 59.3831 230.667C59.8868 230.356 60.4423 230.2 61.0497 230.2C61.4942 230.2 61.9053 230.281 62.2831 230.444C62.6682 230.6 62.9979 230.822 63.2719 231.111V230.333H64.6608V237H63.2719V236.222C62.9979 236.504 62.6682 236.726 62.2831 236.889C61.9053 237.052 61.4942 237.133 61.0497 237.133ZM61.2497 235.733C61.6201 235.733 61.9571 235.641 62.2608 235.456C62.5719 235.27 62.8164 235.022 62.9942 234.711C63.1794 234.4 63.2719 234.052 63.2719 233.667C63.2719 233.289 63.1794 232.944 62.9942 232.633C62.8164 232.315 62.5756 232.063 62.2719 231.878C61.9682 231.693 61.6275 231.6 61.2497 231.6C60.8794 231.6 60.5386 231.693 60.2275 231.878C59.9238 232.063 59.6794 232.311 59.4942 232.622C59.3164 232.933 59.2275 233.281 59.2275 233.667C59.2275 234.044 59.3164 234.393 59.4942 234.711C59.6794 235.022 59.9238 235.27 60.2275 235.456C60.5312 235.641 60.8719 235.733 61.2497 235.733ZM66.1356 237V230.333H67.5578V231.178C67.8023 230.837 68.106 230.581 68.469 230.411C68.8319 230.241 69.2134 230.156 69.6134 230.156C70.0356 230.156 70.4245 230.248 70.7801 230.433C71.143 230.619 71.443 230.885 71.6801 231.233C71.9393 230.878 72.2653 230.611 72.6578 230.433C73.0578 230.248 73.4875 230.156 73.9467 230.156C74.4356 230.156 74.8875 230.27 75.3023 230.5C75.7171 230.722 76.0504 231.044 76.3023 231.467C76.5616 231.889 76.6912 232.396 76.6912 232.989V237H75.1245V233.2C75.1245 232.719 74.9838 232.333 74.7023 232.044C74.4282 231.748 74.0801 231.6 73.6578 231.6C73.4134 231.6 73.1764 231.656 72.9467 231.767C72.7245 231.878 72.543 232.052 72.4023 232.289C72.269 232.519 72.2023 232.815 72.2023 233.178V237H70.6245V233.2C70.6245 232.874 70.5578 232.593 70.4245 232.356C70.2986 232.111 70.1245 231.922 69.9023 231.789C69.6801 231.656 69.4356 231.589 69.169 231.589C68.9319 231.589 68.6986 231.648 68.469 231.767C68.2467 231.878 68.0616 232.048 67.9134 232.278C67.7727 232.507 67.7023 232.807 67.7023 233.178V237H66.1356ZM81.4092 237V227H84.1981C84.8721 227 85.4499 227.137 85.9314 227.411C86.4203 227.678 86.7944 228.033 87.0536 228.478C87.3129 228.922 87.4425 229.411 87.4425 229.944C87.4425 230.478 87.3092 230.959 87.0425 231.389C86.7758 231.819 86.4018 232.152 85.9203 232.389L88.9203 237H87.0869L84.3869 232.8H83.0092V237H81.4092ZM83.0092 231.433H84.1758C84.5684 231.433 84.8869 231.359 85.1314 231.211C85.3832 231.063 85.5684 230.874 85.6869 230.644C85.8129 230.415 85.8758 230.181 85.8758 229.944C85.8758 229.515 85.7203 229.163 85.4092 228.889C85.0981 228.607 84.6869 228.467 84.1758 228.467H83.0092V231.433ZM92.3774 237.178C91.6588 237.178 91.0181 237.022 90.4551 236.711C89.8922 236.4 89.4514 235.974 89.1329 235.433C88.8218 234.893 88.6662 234.281 88.6662 233.6C88.6662 232.948 88.8181 232.363 89.1218 231.844C89.4329 231.326 89.8477 230.915 90.3662 230.611C90.8922 230.307 91.47 230.156 92.0996 230.156C92.7366 230.156 93.3107 230.304 93.8218 230.6C94.3403 230.896 94.7514 231.3 95.0551 231.811C95.3588 232.315 95.5107 232.889 95.5107 233.533V234.122H91.2996C91.1144 234.122 90.9292 234.115 90.744 234.1C90.5588 234.078 90.3737 234.052 90.1885 234.022C90.2774 234.533 90.5218 234.959 90.9218 235.3C91.3292 235.641 91.8255 235.811 92.4107 235.811C92.8329 235.811 93.2181 235.722 93.5662 235.544C93.9144 235.359 94.1996 235.122 94.4218 234.833L94.7996 236.389C94.4737 236.648 94.1033 236.844 93.6885 236.978C93.2737 237.111 92.8366 237.178 92.3774 237.178ZM90.1551 233.022C90.5403 232.948 90.9218 232.911 91.2996 232.911H92.9885C93.1737 232.911 93.3514 232.919 93.5218 232.933C93.6996 232.948 93.87 232.967 94.0329 232.989C93.9218 232.537 93.6885 232.17 93.3329 231.889C92.9848 231.6 92.57 231.456 92.0885 231.456C91.6218 231.456 91.2107 231.604 90.8551 231.9C90.4996 232.196 90.2662 232.57 90.1551 233.022ZM98.8532 237.333L95.5087 230.333H97.231L98.4199 232.844C98.531 233.074 98.6384 233.311 98.7421 233.556C98.8458 233.793 98.9495 234.078 99.0532 234.411C99.1643 234.085 99.2754 233.807 99.3865 233.578C99.4976 233.348 99.605 233.119 99.7087 232.889L101.009 230.067L102.32 232.889C102.424 233.111 102.527 233.337 102.631 233.567C102.742 233.796 102.849 234.078 102.953 234.411C103.057 234.063 103.161 233.774 103.264 233.544C103.375 233.307 103.483 233.074 103.587 232.844L104.787 230.333H106.42L103.075 237.333L101.631 234.567C101.512 234.337 101.398 234.107 101.287 233.878C101.183 233.641 101.075 233.374 100.964 233.078C100.861 233.374 100.753 233.641 100.642 233.878C100.531 234.107 100.412 234.337 100.287 234.567L98.8532 237.333ZM109.692 237.133C109.085 237.133 108.529 236.978 108.026 236.667C107.522 236.356 107.118 235.937 106.814 235.411C106.518 234.885 106.37 234.304 106.37 233.667C106.37 233.03 106.518 232.448 106.814 231.922C107.118 231.396 107.522 230.978 108.026 230.667C108.529 230.356 109.085 230.2 109.692 230.2C110.137 230.2 110.548 230.281 110.926 230.444C111.311 230.6 111.64 230.822 111.914 231.111V230.333H113.303V237H111.914V236.222C111.64 236.504 111.311 236.726 110.926 236.889C110.548 237.052 110.137 237.133 109.692 237.133ZM109.892 235.733C110.263 235.733 110.6 235.641 110.903 235.456C111.214 235.27 111.459 235.022 111.637 234.711C111.822 234.4 111.914 234.052 111.914 233.667C111.914 233.289 111.822 232.944 111.637 232.633C111.459 232.315 111.218 232.063 110.914 231.878C110.611 231.693 110.27 231.6 109.892 231.6C109.522 231.6 109.181 231.693 108.87 231.878C108.566 232.063 108.322 232.311 108.137 232.622C107.959 232.933 107.87 233.281 107.87 233.667C107.87 234.044 107.959 234.393 108.137 234.711C108.322 235.022 108.566 235.27 108.87 235.456C109.174 235.641 109.514 235.733 109.892 235.733ZM114.778 237V230.333H116.2V231.511C116.437 231.126 116.741 230.822 117.111 230.6C117.482 230.378 117.923 230.267 118.434 230.267L118.789 231.722C118.648 231.678 118.489 231.656 118.311 231.656C117.719 231.656 117.241 231.844 116.878 232.222C116.523 232.6 116.345 233.141 116.345 233.844V237H114.778ZM122.235 237.133C121.62 237.133 121.061 236.978 120.557 236.667C120.054 236.356 119.65 235.937 119.346 235.411C119.05 234.885 118.902 234.304 118.902 233.667C118.902 233.03 119.05 232.448 119.346 231.922C119.65 231.396 120.054 230.978 120.557 230.667C121.061 230.356 121.62 230.2 122.235 230.2C122.628 230.2 122.994 230.267 123.335 230.4C123.683 230.526 123.994 230.704 124.269 230.933V226.333H125.835V237H124.446V236.233C124.172 236.515 123.843 236.737 123.457 236.9C123.08 237.056 122.672 237.133 122.235 237.133ZM122.424 235.733C122.794 235.733 123.132 235.641 123.435 235.456C123.746 235.27 123.991 235.022 124.169 234.711C124.354 234.4 124.446 234.052 124.446 233.667C124.446 233.289 124.354 232.944 124.169 232.633C123.991 232.315 123.75 232.063 123.446 231.878C123.143 231.693 122.802 231.6 122.424 231.6C122.054 231.6 121.713 231.693 121.402 231.878C121.098 232.063 120.854 232.311 120.669 232.622C120.491 232.933 120.402 233.281 120.402 233.667C120.402 234.044 120.491 234.393 120.669 234.711C120.854 235.022 121.098 235.27 121.402 235.456C121.706 235.641 122.046 235.733 122.424 235.733Z" fill="#9A9AB8"/>
<rect x="179" y="96" width="56" height="56" rx="28" fill="#262638"/>
<path d="M32.625 44.3333V42.5H41.0972V44.3333H37.9028V55H35.8194V44.3333H32.625ZM40.5914 55V46.6667H42.3692V48.1389C42.6655 47.6574 43.0451 47.2778 43.5081 47C43.971 46.7222 44.522 46.5833 45.1609 46.5833L45.6053 48.4028C45.4294 48.3472 45.2303 48.3194 45.0081 48.3194C44.2673 48.3194 43.6701 48.5556 43.2164 49.0278C42.772 49.5 42.5497 50.1759 42.5497 51.0556V55H40.5914ZM49.6989 55.1667C48.9396 55.1667 48.2452 54.9722 47.6155 54.5833C46.9859 54.1944 46.4813 53.6713 46.1016 53.0139C45.7313 52.3565 45.5461 51.6296 45.5461 50.8333C45.5461 50.037 45.7313 49.3102 46.1016 48.6528C46.4813 47.9954 46.9859 47.4722 47.6155 47.0833C48.2452 46.6944 48.9396 46.5 49.6989 46.5C50.2544 46.5 50.7683 46.6019 51.2405 46.8056C51.722 47 52.1341 47.2778 52.4766 47.6389V46.6667H54.2128V55H52.4766V54.0278C52.1341 54.3796 51.722 54.6574 51.2405 54.8611C50.7683 55.0648 50.2544 55.1667 49.6989 55.1667ZM49.9489 53.4167C50.4118 53.4167 50.8331 53.3009 51.2128 53.0694C51.6016 52.838 51.9072 52.5278 52.1294 52.1389C52.3609 51.75 52.4766 51.3148 52.4766 50.8333C52.4766 50.3611 52.3609 49.9306 52.1294 49.5417C51.9072 49.1435 51.6063 48.8287 51.2266 48.5972C50.847 48.3657 50.4211 48.25 49.9489 48.25C49.4859 48.25 49.06 48.3657 48.6711 48.5972C48.2915 48.8287 47.9859 49.1389 47.7544 49.5278C47.5322 49.9167 47.4211 50.3519 47.4211 50.8333C47.4211 51.3056 47.5322 51.7407 47.7544 52.1389C47.9859 52.5278 48.2915 52.838 48.6711 53.0694C49.0507 53.3009 49.4766 53.4167 49.9489 53.4167ZM59.5229 55.1667C58.7544 55.1667 58.0553 54.9722 57.4257 54.5833C56.7961 54.1944 56.2914 53.6713 55.9118 53.0139C55.5414 52.3565 55.3563 51.6296 55.3563 50.8333C55.3563 50.037 55.5414 49.3102 55.9118 48.6528C56.2914 47.9954 56.7961 47.4722 57.4257 47.0833C58.0553 46.6944 58.7544 46.5 59.5229 46.5C60.0137 46.5 60.472 46.5833 60.8979 46.75C61.3331 46.9074 61.722 47.1296 62.0646 47.4167V41.6667H64.0229V55H62.2868V54.0417C61.9442 54.3935 61.5322 54.6713 61.0507 54.875C60.5785 55.0694 60.0692 55.1667 59.5229 55.1667ZM59.759 53.4167C60.222 53.4167 60.6433 53.3009 61.0229 53.0694C61.4118 52.838 61.7174 52.5278 61.9396 52.1389C62.1711 51.75 62.2868 51.3148 62.2868 50.8333C62.2868 50.3611 62.1711 49.9306 61.9396 49.5417C61.7174 49.1435 61.4164 48.8287 61.0368 48.5972C60.6572 48.3657 60.2313 48.25 59.759 48.25C59.2961 48.25 58.8701 48.3657 58.4813 48.5972C58.1016 48.8287 57.7961 49.1389 57.5646 49.5278C57.3424 49.9167 57.2313 50.3519 57.2313 50.8333C57.2313 51.3056 57.3424 51.7407 57.5646 52.1389C57.7961 52.5278 58.1016 52.838 58.4813 53.0694C58.8609 53.3009 59.2868 53.4167 59.759 53.4167ZM65.6803 55V46.6667H67.6386V55H65.6803ZM66.6664 45.3194C66.3423 45.3194 66.0692 45.2083 65.847 44.9861C65.6247 44.7546 65.5136 44.4815 65.5136 44.1667C65.5136 43.8333 65.6247 43.5602 65.847 43.3472C66.0784 43.125 66.3516 43.0139 66.6664 43.0139C66.9997 43.0139 67.2729 43.125 67.4858 43.3472C67.7081 43.5694 67.8192 43.8426 67.8192 44.1667C67.8192 44.4907 67.7081 44.7639 67.4858 44.9861C67.2636 45.2083 66.9905 45.3194 66.6664 45.3194ZM69.3047 55V46.6667H71.0825V47.7917C71.388 47.3565 71.7677 47.0231 72.2214 46.7917C72.6843 46.5602 73.1843 46.4444 73.7214 46.4444C74.3139 46.4444 74.8649 46.588 75.3741 46.875C75.8834 47.162 76.2954 47.5787 76.6102 48.125C76.9251 48.6713 77.0825 49.3333 77.0825 50.1111V55H75.1241V50.375C75.1241 49.8194 74.9528 49.3241 74.6102 48.8889C74.2769 48.4537 73.8047 48.2361 73.1936 48.2361C72.6936 48.2361 72.2445 48.412 71.8464 48.7639C71.4575 49.1157 71.263 49.6389 71.263 50.3333V55H69.3047ZM82.068 59.3889C81.4291 59.3889 80.8319 59.2963 80.2763 59.1111C79.7207 58.9259 79.2346 58.6713 78.818 58.3472L79.318 56.2917C79.605 56.6898 79.9846 57.0139 80.4569 57.2639C80.9291 57.5231 81.4661 57.6528 82.068 57.6528C82.9569 57.6528 83.6652 57.3889 84.193 56.8611C84.7207 56.3426 84.9846 55.6667 84.9846 54.8333V54.0417C84.642 54.3935 84.2346 54.6713 83.7624 54.875C83.2902 55.0694 82.7763 55.1667 82.2207 55.1667C81.4615 55.1667 80.767 54.9722 80.1374 54.5833C79.5078 54.1944 79.0032 53.6713 78.6235 53.0139C78.2532 52.3565 78.068 51.6296 78.068 50.8333C78.068 50.037 78.2532 49.3102 78.6235 48.6528C79.0032 47.9954 79.5078 47.4722 80.1374 47.0833C80.767 46.6944 81.4615 46.5 82.2207 46.5C82.7763 46.5 83.2902 46.6019 83.7624 46.8056C84.2439 47 84.6559 47.2778 84.9985 47.6389V46.6667H86.7346V55.0556C86.7346 55.963 86.517 56.7407 86.0819 57.3889C85.6559 58.037 85.0865 58.5324 84.3735 58.875C83.6606 59.2176 82.892 59.3889 82.068 59.3889ZM82.4707 53.4167C82.9337 53.4167 83.355 53.3009 83.7346 53.0694C84.1235 52.838 84.4291 52.5278 84.6513 52.1389C84.8828 51.75 84.9985 51.3148 84.9985 50.8333C84.9985 50.3611 84.8828 49.9306 84.6513 49.5417C84.4291 49.1435 84.1282 48.8287 83.7485 48.5972C83.3689 48.3657 82.943 48.25 82.4707 48.25C82.0078 48.25 81.5819 48.3657 81.193 48.5972C80.8133 48.8287 80.5078 49.1389 80.2763 49.5278C80.0541 49.9167 79.943 50.3519 79.943 50.8333C79.943 51.3056 80.0541 51.7407 80.2763 52.1389C80.5078 52.5278 80.8133 52.838 81.193 53.0694C81.5726 53.3009 81.9985 53.4167 82.4707 53.4167ZM92.3549 55V42.5H96.0633C96.8781 42.5 97.5262 42.662 98.0077 42.9861C98.4892 43.3009 98.8318 43.6852 99.0355 44.1389C99.2485 44.5833 99.3549 45.0046 99.3549 45.4028C99.3549 45.8102 99.267 46.1898 99.0911 46.5417C98.9244 46.8843 98.6883 47.1759 98.3827 47.4167C99.0124 47.75 99.517 48.2176 99.8966 48.8194C100.286 49.4213 100.48 50.1019 100.48 50.8611C100.48 51.5463 100.309 52.2083 99.9661 52.8472C99.6327 53.4769 99.1281 53.9954 98.4522 54.4028C97.7855 54.8009 96.9614 55 95.9799 55H92.3549ZM94.3549 53.1667H95.7994C96.4198 53.1667 96.9151 53.0463 97.2855 52.8056C97.6651 52.5556 97.9429 52.25 98.1188 51.8889C98.2948 51.5185 98.3827 51.1528 98.3827 50.7917C98.3827 50.4398 98.2994 50.0787 98.1327 49.7083C97.9661 49.338 97.6929 49.0324 97.3133 48.7917C96.9429 48.5417 96.4383 48.4167 95.7994 48.4167H94.3549V53.1667ZM94.3549 46.875H95.7855C96.2762 46.875 96.6744 46.7593 96.9799 46.5278C97.2855 46.287 97.4383 45.9491 97.4383 45.5139C97.4383 45.0602 97.2901 44.7176 96.9938 44.4861C96.6975 44.2454 96.3133 44.125 95.8411 44.125H94.3549V46.875ZM105.693 55.2222C104.878 55.2222 104.133 55.0278 103.457 54.6389C102.781 54.2407 102.244 53.7083 101.846 53.0417C101.448 52.375 101.248 51.6389 101.248 50.8333C101.248 50.0185 101.448 49.2824 101.846 48.625C102.244 47.9583 102.781 47.4306 103.457 47.0417C104.133 46.6435 104.878 46.4444 105.693 46.4444C106.517 46.4444 107.262 46.6435 107.929 47.0417C108.605 47.4306 109.142 47.9583 109.54 48.625C109.938 49.2824 110.137 50.0185 110.137 50.8333C110.137 51.6389 109.938 52.375 109.54 53.0417C109.142 53.7083 108.605 54.2407 107.929 54.6389C107.262 55.0278 106.517 55.2222 105.693 55.2222ZM105.693 53.4306C106.165 53.4306 106.596 53.3148 106.985 53.0833C107.373 52.8426 107.679 52.5278 107.901 52.1389C108.133 51.75 108.248 51.3148 108.248 50.8333C108.248 50.3519 108.133 49.9167 107.901 49.5278C107.679 49.1389 107.373 48.8287 106.985 48.5972C106.596 48.3565 106.165 48.2361 105.693 48.2361C105.221 48.2361 104.79 48.3565 104.401 48.5972C104.012 48.8287 103.702 49.1389 103.471 49.5278C103.248 49.9167 103.137 50.3519 103.137 50.8333C103.137 51.3148 103.248 51.75 103.471 52.1389C103.702 52.5278 104.008 52.8426 104.387 53.0833C104.776 53.3148 105.211 53.4306 105.693 53.4306ZM115.23 55.2222C114.415 55.2222 113.669 55.0278 112.993 54.6389C112.318 54.2407 111.781 53.7083 111.382 53.0417C110.984 52.375 110.785 51.6389 110.785 50.8333C110.785 50.0185 110.984 49.2824 111.382 48.625C111.781 47.9583 112.318 47.4306 112.993 47.0417C113.669 46.6435 114.415 46.4444 115.23 46.4444C116.054 46.4444 116.799 46.6435 117.466 47.0417C118.142 47.4306 118.679 47.9583 119.077 48.625C119.475 49.2824 119.674 50.0185 119.674 50.8333C119.674 51.6389 119.475 52.375 119.077 53.0417C118.679 53.7083 118.142 54.2407 117.466 54.6389C116.799 55.0278 116.054 55.2222 115.23 55.2222ZM115.23 53.4306C115.702 53.4306 116.132 53.3148 116.521 53.0833C116.91 52.8426 117.216 52.5278 117.438 52.1389C117.669 51.75 117.785 51.3148 117.785 50.8333C117.785 50.3519 117.669 49.9167 117.438 49.5278C117.216 49.1389 116.91 48.8287 116.521 48.5972C116.132 48.3565 115.702 48.2361 115.23 48.2361C114.757 48.2361 114.327 48.3565 113.938 48.5972C113.549 48.8287 113.239 49.1389 113.007 49.5278C112.785 49.9167 112.674 50.3519 112.674 50.8333C112.674 51.3148 112.785 51.75 113.007 52.1389C113.239 52.5278 113.544 52.8426 113.924 53.0833C114.313 53.3148 114.748 53.4306 115.23 53.4306ZM123.266 55.2222C122.766 55.2222 122.248 55.1389 121.711 54.9722C121.183 54.7963 120.752 54.5324 120.419 54.1806L120.919 52.2222C121.188 52.6204 121.544 52.9537 121.989 53.2222C122.433 53.4907 122.896 53.625 123.377 53.625C123.776 53.625 124.067 53.537 124.252 53.3611C124.438 53.1852 124.53 52.9722 124.53 52.7222C124.53 52.4444 124.433 52.2407 124.239 52.1111C124.044 51.9722 123.859 51.8704 123.683 51.8056L122.53 51.375C122.299 51.2824 122.026 51.1528 121.711 50.9861C121.405 50.8102 121.137 50.5648 120.905 50.25C120.674 49.9352 120.558 49.5231 120.558 49.0139C120.558 48.5509 120.669 48.125 120.891 47.7361C121.123 47.3472 121.452 47.037 121.877 46.8056C122.303 46.5648 122.813 46.4444 123.405 46.4444C123.914 46.4444 124.41 46.5324 124.891 46.7083C125.382 46.8843 125.766 47.1204 126.044 47.4167L125.558 49.3472C125.289 48.9398 124.952 48.6204 124.544 48.3889C124.146 48.1574 123.748 48.0417 123.35 48.0417C123.007 48.0417 122.748 48.125 122.572 48.2917C122.396 48.4583 122.308 48.6528 122.308 48.875C122.308 49.0417 122.368 49.1991 122.489 49.3472C122.609 49.4861 122.803 49.6065 123.072 49.7083L124.169 50.125C124.428 50.2176 124.72 50.3519 125.044 50.5278C125.377 50.7037 125.664 50.9537 125.905 51.2778C126.146 51.6019 126.266 52.0417 126.266 52.5972C126.266 53.375 125.984 54.0093 125.419 54.5C124.864 54.9815 124.146 55.2222 123.266 55.2222ZM128.421 55V48.25H126.698V46.6667H128.462V43.8889H130.337V46.6667H132.198V48.25H130.379V55H128.421ZM135.543 55.2222C135.043 55.2222 134.524 55.1389 133.987 54.9722C133.46 54.7963 133.029 54.5324 132.696 54.1806L133.196 52.2222C133.464 52.6204 133.821 52.9537 134.265 53.2222C134.71 53.4907 135.173 53.625 135.654 53.625C136.052 53.625 136.344 53.537 136.529 53.3611C136.714 53.1852 136.807 52.9722 136.807 52.7222C136.807 52.4444 136.71 52.2407 136.515 52.1111C136.321 51.9722 136.135 51.8704 135.96 51.8056L134.807 51.375C134.575 51.2824 134.302 51.1528 133.987 50.9861C133.682 50.8102 133.413 50.5648 133.182 50.25C132.95 49.9352 132.835 49.5231 132.835 49.0139C132.835 48.5509 132.946 48.125 133.168 47.7361C133.399 47.3472 133.728 47.037 134.154 46.8056C134.58 46.5648 135.089 46.4444 135.682 46.4444C136.191 46.4444 136.686 46.5324 137.168 46.7083C137.659 46.8843 138.043 47.1204 138.321 47.4167L137.835 49.3472C137.566 48.9398 137.228 48.6204 136.821 48.3889C136.423 48.1574 136.024 48.0417 135.626 48.0417C135.284 48.0417 135.024 48.125 134.848 48.2917C134.673 48.4583 134.585 48.6528 134.585 48.875C134.585 49.0417 134.645 49.1991 134.765 49.3472C134.885 49.4861 135.08 49.6065 135.348 49.7083L136.446 50.125C136.705 50.2176 136.997 50.3519 137.321 50.5278C137.654 50.7037 137.941 50.9537 138.182 51.2778C138.423 51.6019 138.543 52.0417 138.543 52.5972C138.543 53.375 138.26 54.0093 137.696 54.5C137.14 54.9815 136.423 55.2222 135.543 55.2222Z" fill="#F1E6FA"/>
</svg>
