<svg width="144" height="128" viewBox="0 0 144 128" fill="none" xmlns="http://www.w3.org/2000/svg">
<g style="mix-blend-mode:plus-lighter" filter="url(#filter0_f_6002_4)">
<ellipse cx="32" cy="16" rx="32" ry="16" transform="matrix(-1 0 0 1 136 24)" fill="var(--fill-primary)"/>
</g>
<g style="mix-blend-mode:plus-lighter" opacity="0.8" filter="url(#filter1_f_6002_4)">
<ellipse cx="32" cy="16" rx="32" ry="16" transform="matrix(-1 0 0 1 136 24)" fill="var(--fill-primary-support)"/>
</g>
<g style="mix-blend-mode:plus-lighter" opacity="0.88" filter="url(#filter2_f_6002_4)">
<ellipse cx="32" cy="16" rx="32" ry="16" transform="matrix(-1 0 0 1 144 -16)" fill="var(--fill-secondary)"/>
</g>
<g style="mix-blend-mode:plus-lighter" filter="url(#filter3_f_6002_4)">
<ellipse cx="20" cy="12" rx="20" ry="12" transform="matrix(-1 0 0 1 152 -8)" fill="var(--fill-tertiary)"/>
</g>
<g style="mix-blend-mode:plus-lighter" opacity="0.8" filter="url(#filter4_f_6002_4)">
<ellipse cx="12" cy="4" rx="12" ry="4" transform="matrix(-1 0 0 1 152 0)" fill="#F1E6FA"/>
</g>
<defs>
<filter id="filter0_f_6002_4" x="0" y="-48" width="208" height="176" filterUnits="userSpaceOnUse" color-interpolation-filters="sRGB">
<feFlood flood-opacity="0" result="BackgroundImageFix"/>
<feBlend mode="normal" in="SourceGraphic" in2="BackgroundImageFix" result="shape"/>
<feGaussianBlur stdDeviation="36" result="effect1_foregroundBlur_6002_4"/>
</filter>
<filter id="filter1_f_6002_4" x="0" y="-48" width="208" height="176" filterUnits="userSpaceOnUse" color-interpolation-filters="sRGB">
<feFlood flood-opacity="0" result="BackgroundImageFix"/>
<feBlend mode="normal" in="SourceGraphic" in2="BackgroundImageFix" result="shape"/>
<feGaussianBlur stdDeviation="36" result="effect1_foregroundBlur_6002_4"/>
</filter>
<filter id="filter2_f_6002_4" x="24" y="-72" width="176" height="144" filterUnits="userSpaceOnUse" color-interpolation-filters="sRGB">
<feFlood flood-opacity="0" result="BackgroundImageFix"/>
<feBlend mode="normal" in="SourceGraphic" in2="BackgroundImageFix" result="shape"/>
<feGaussianBlur stdDeviation="28" result="effect1_foregroundBlur_6002_4"/>
</filter>
<filter id="filter3_f_6002_4" x="80" y="-40" width="104" height="88" filterUnits="userSpaceOnUse" color-interpolation-filters="sRGB">
<feFlood flood-opacity="0" result="BackgroundImageFix"/>
<feBlend mode="normal" in="SourceGraphic" in2="BackgroundImageFix" result="shape"/>
<feGaussianBlur stdDeviation="16" result="effect1_foregroundBlur_6002_4"/>
</filter>
<filter id="filter4_f_6002_4" x="114" y="-14" width="52" height="36" filterUnits="userSpaceOnUse" color-interpolation-filters="sRGB">
<feFlood flood-opacity="0" result="BackgroundImageFix"/>
<feBlend mode="normal" in="SourceGraphic" in2="BackgroundImageFix" result="shape"/>
<feGaussianBlur stdDeviation="7" result="effect1_foregroundBlur_6002_4"/>
</filter>
</defs>
</svg>
