<svg width="330" height="56" viewBox="0 0 330 56" fill="none" xmlns="http://www.w3.org/2000/svg">
<path d="M134.447 5.8192C134.447 4.8208 135.269 4 136.268 4H143.272C144.271 4 145.093 4.8208 145.095 5.8192V11.5192C145.095 12.5176 145.919 13.3408 146.919 13.3408H152.438C152.919 13.3446 153.38 13.5374 153.721 13.8778C154.062 14.2181 154.255 14.6787 154.259 15.16V40.8448C154.256 41.3252 154.064 41.7853 153.724 42.125C153.384 42.4647 152.923 42.6567 152.442 42.6592H146.919C146.436 42.6617 145.974 42.8545 145.632 43.1955C145.291 43.5366 145.098 43.9985 145.095 44.4808V50.1808C145.093 50.6627 144.901 51.1243 144.56 51.4651C144.219 51.8058 143.756 51.9981 143.274 52H136.268C135.786 51.9981 135.324 51.8058 134.982 51.4651C134.641 51.1243 134.449 50.6627 134.447 50.1808V43.1776C134.447 42.1792 135.269 41.3584 136.268 41.3584H141.794C142.276 41.3559 142.738 41.1635 143.08 40.8229C143.421 40.4824 143.614 40.0211 143.618 39.5392V16.4488C143.615 15.9677 143.423 15.5071 143.082 15.1669C142.742 14.8267 142.28 14.6345 141.799 14.632H136.266C135.784 14.6295 135.323 14.4373 134.982 14.0971C134.642 13.7569 134.449 13.2963 134.447 12.8152V5.8192ZM83.6393 5.8192C83.6374 5.3373 83.445 4.87568 83.1038 4.53493C82.7627 4.19417 82.3006 4.0019 81.8182 4H74.805C74.3232 4.00377 73.8621 4.19664 73.5214 4.53699C73.1807 4.87735 72.9876 5.33788 72.9838 5.8192V11.5192C72.9813 12.0015 72.7884 12.4634 72.4469 12.8045C72.1055 13.1456 71.6431 13.3383 71.1603 13.3408H65.6415C65.1597 13.3446 64.6987 13.5374 64.3579 13.8778C64.0172 14.2181 63.8241 14.6787 63.8204 15.16V40.8448C63.8229 41.3252 64.0151 41.7853 64.3551 42.125C64.6952 42.4647 65.1558 42.6567 65.6367 42.6592H71.1603C72.1598 42.6592 72.9838 43.4824 72.9838 44.4808V50.1784C72.987 50.6601 73.1798 51.1213 73.5206 51.4622C73.8614 51.803 74.3228 51.9962 74.805 52H81.8182C82.3006 51.9981 82.7627 51.8058 83.1038 51.4651C83.445 51.1243 83.6374 50.6627 83.6393 50.1808V43.1776C83.6374 42.6957 83.445 42.2341 83.1038 41.8933C82.7627 41.5526 82.3006 41.3603 81.8182 41.3584H76.2946C75.8122 41.3559 75.3502 41.1635 75.0088 40.8229C74.6674 40.4824 74.4742 40.0211 74.471 39.5392V16.4536C74.471 15.4552 75.2951 14.632 76.2946 14.632H81.8206C82.3022 14.6295 82.7633 14.4373 83.1038 14.0971C83.4444 13.7569 83.6368 13.2963 83.6393 12.8152V5.8192ZM102.553 16.5928C102.556 16.1909 102.717 15.8063 103.001 15.522C103.286 15.2378 103.671 15.0767 104.073 15.0736H119.46C119.755 15.0757 120.044 15.1634 120.29 15.3261C120.537 15.4889 120.731 15.7197 120.848 15.9904L123.342 21.7456C123.459 22.0172 123.653 22.2488 123.899 22.412C124.146 22.5753 124.435 22.6631 124.731 22.6648H129.894C130.725 22.6648 131.41 23.3488 131.41 24.1792V41.1688C131.408 41.5711 131.247 41.9565 130.963 42.2409C130.678 42.5254 130.292 42.6861 129.889 42.688H123.361C122.959 42.6861 122.573 42.5254 122.288 42.2409C122.003 41.9565 121.842 41.5711 121.841 41.1688V25.3936C121.838 24.9923 121.678 24.608 121.394 24.3238C121.11 24.0396 120.726 23.8782 120.324 23.8744H113.638C113.236 23.8782 112.852 24.0396 112.569 24.3238C112.285 24.608 112.125 24.9923 112.122 25.3936V41.1688C112.12 41.5711 111.959 41.9565 111.675 42.2409C111.39 42.5254 111.004 42.6861 110.601 42.688H104.073C103.671 42.6861 103.285 42.5254 103 42.2409C102.715 41.9565 102.554 41.5711 102.553 41.1688V16.5928ZM87.0606 16.5928C87.0638 16.1909 87.225 15.8063 87.5095 15.522C87.7941 15.2378 88.1791 15.0767 88.5815 15.0736H95.1117C95.5139 15.0767 95.8986 15.2379 96.1828 15.5222C96.4669 15.8065 96.6276 16.1911 96.6301 16.5928V41.1688C96.6283 41.5707 96.4677 41.9557 96.1835 42.2401C95.8992 42.5245 95.5141 42.6855 95.1117 42.688H88.5815C88.1787 42.6861 87.793 42.5254 87.5082 42.2409C87.2234 41.9565 87.0625 41.5711 87.0606 41.1688V16.5928Z" fill="#6D6D8F"/>
<path d="M23.2688 28.1102V28.271C24.5662 28.7198 25.6978 29.5358 26.5339 30.623C27.4084 31.799 27.8601 33.239 27.8097 34.7054C27.8367 35.7826 27.6294 36.8529 27.2022 37.8423C26.7749 38.8318 26.1379 39.7169 25.335 40.4366C23.7034 41.9225 21.5597 42.7205 19.3526 42.6638H4V15.0398H18.8552C21.1953 15.0398 23.1486 15.7142 24.7151 17.063C25.4805 17.7079 26.0898 18.5175 26.4976 19.431C26.9053 20.3446 27.1009 21.3384 27.0697 22.3382C27.0768 23.5723 26.7136 24.7802 26.0269 25.8062C25.3427 26.817 24.3854 27.6154 23.2688 28.1102ZM17.4954 21.1022H10.8089V26.0102H17.4954C18.1921 26.0414 18.8696 25.7678 19.3526 25.2662C19.8187 24.8102 20.0853 24.1862 20.095 23.5334C20.095 22.8998 19.8451 22.2926 19.4006 21.8414C19.1529 21.5914 18.8552 21.3965 18.5268 21.2696C18.1985 21.1426 17.847 21.084 17.4954 21.1022ZM10.8089 36.6446H18.072C18.4418 36.655 18.8097 36.5871 19.1514 36.4452C19.493 36.3033 19.8007 36.0907 20.0541 35.8214C20.549 35.3294 20.8325 34.6622 20.8374 33.9638C20.8353 33.6488 20.7641 33.3381 20.6288 33.0537C20.4935 32.7692 20.2973 32.5179 20.0541 32.3174C19.5178 31.8174 18.8052 31.5499 18.072 31.5734H10.8089V36.6446ZM52.5924 42.6638H31.0412V15.0398H52.5924V21.6278H37.8477V25.5902H50.5093V31.7774H37.8477V36.0662H52.5924V42.6638ZM185.374 31.127H192.344C192.063 34.4827 190.491 37.5992 187.959 39.8222C185.4 42.1022 182.162 43.2422 178.241 43.2422C173.954 43.2422 170.49 41.8694 167.849 39.1238C165.209 36.3758 163.888 32.9702 163.885 28.8998C163.885 24.815 165.207 21.383 167.847 18.6038C170.488 15.8246 173.95 14.4254 178.241 14.4014C182.066 14.4014 185.256 15.527 187.81 17.7782C190.323 19.9199 191.916 22.9443 192.26 26.2262H185.211C184.848 24.7305 183.98 23.4056 182.753 22.475C181.436 21.4939 179.817 21.0032 178.176 21.0878C175.893 21.1142 174.091 21.8702 172.77 23.3558C171.465 24.8771 170.774 26.8299 170.833 28.8326C170.781 30.8548 171.487 32.8236 172.813 34.3526C174.118 35.8262 175.927 36.5654 178.243 36.5654C179.915 36.6192 181.556 36.1113 182.904 35.123C184.174 34.1231 185.049 32.7068 185.374 31.1246V31.127ZM201.399 42.6206H194.593V15.0206H208.864C211.834 15.0206 214.198 15.6926 215.957 17.0366C217.715 18.3806 218.609 20.2766 218.635 22.7246C218.635 25.3334 217.73 27.2846 215.916 28.5758V28.739C218.28 29.315 219.462 31.0862 219.462 34.0502V42.6206H212.655V35.2478C212.655 34.2302 212.134 33.7238 211.091 33.7262H201.397V42.623L201.399 42.6206ZM201.399 21.6134V27.7094H208.287C209.22 27.7574 210.137 27.4646 210.868 26.8838C211.541 26.3126 211.908 25.4582 211.86 24.5774C211.881 24.161 211.802 23.7455 211.63 23.3659C211.457 22.9863 211.196 22.6536 210.868 22.3958C210.132 21.8487 209.23 21.5724 208.314 21.6134H201.399ZM238.601 15.023H246.15L235.343 32.5694V42.6254H228.539V32.6078L217.694 15.0206H225.406L231.999 26.1398L238.601 15.023ZM261.969 15.023C263.255 14.991 264.535 15.2226 265.729 15.7035C266.922 16.1843 268.005 16.9043 268.91 17.819C270.781 19.6574 271.716 21.971 271.713 24.755C271.713 27.611 270.764 29.963 268.869 31.8038C267.966 32.7032 266.89 33.4109 265.706 33.8844C264.523 34.3579 263.255 34.5873 261.981 34.559H254.501V42.635H247.7V15.023H261.969ZM254.501 28.1174H261.351C262.247 28.1414 263.117 27.8174 263.78 27.2126C264.45 26.5886 264.813 25.7006 264.77 24.7862C264.781 24.354 264.693 23.9249 264.513 23.5321C264.332 23.1393 264.063 22.7932 263.727 22.5206C263.078 21.9209 262.221 21.5965 261.337 21.6158H254.501V28.1198V28.1174ZM272.401 15.023H297.109V21.6086H288.157V42.6182H281.353V21.6134H272.401V15.023ZM321.959 39.1214C319.266 41.8646 315.734 43.2374 311.359 43.2422C306.986 43.247 303.454 41.8742 300.766 39.1238C298.07 36.3494 296.722 32.9414 296.722 28.8998C296.722 24.8606 298.07 21.4286 300.766 18.6038C303.456 15.803 306.988 14.4014 311.359 14.4014C315.731 14.4014 319.263 15.803 321.959 18.6014C324.652 21.4046 326 24.8366 326 28.9022C326 32.9654 324.652 36.371 321.959 39.1214ZM311.359 36.5678C313.699 36.5678 315.568 35.8118 316.969 34.2998C318.36 32.8183 319.114 30.8513 319.071 28.8206C319.098 27.8144 318.926 26.8128 318.566 25.8731C318.205 24.9333 317.662 24.0738 316.969 23.3438C315.594 21.8294 313.725 21.0734 311.359 21.0758C308.994 21.0758 307.111 21.8342 305.708 23.3438C304.331 24.8304 303.591 26.7961 303.646 28.8206C303.601 30.844 304.34 32.8067 305.708 34.2998C307.111 35.8118 308.994 36.5678 311.359 36.5678Z" fill="#6D6D8F"/>
<g style="mix-blend-mode:plus-lighter" filter="url(#filter0_f_10101_2194)">
<path d="M134.447 5.8192C134.447 4.8208 135.269 4 136.268 4H143.272C144.271 4 145.093 4.8208 145.095 5.8192V11.5192C145.095 12.5176 145.919 13.3408 146.919 13.3408H152.438C152.919 13.3446 153.38 13.5374 153.721 13.8778C154.062 14.2181 154.255 14.6787 154.259 15.16V40.8448C154.256 41.3252 154.064 41.7853 153.724 42.125C153.384 42.4647 152.923 42.6567 152.442 42.6592H146.919C146.436 42.6617 145.974 42.8545 145.632 43.1955C145.291 43.5366 145.098 43.9985 145.095 44.4808V50.1808C145.093 50.6627 144.901 51.1243 144.56 51.4651C144.219 51.8058 143.756 51.9981 143.274 52H136.268C135.786 51.9981 135.324 51.8058 134.982 51.4651C134.641 51.1243 134.449 50.6627 134.447 50.1808V43.1776C134.447 42.1792 135.269 41.3584 136.268 41.3584H141.794C142.276 41.3559 142.738 41.1635 143.08 40.8229C143.421 40.4824 143.614 40.0211 143.618 39.5392V16.4488C143.615 15.9677 143.423 15.5071 143.082 15.1669C142.742 14.8267 142.28 14.6345 141.799 14.632H136.266C135.784 14.6295 135.323 14.4373 134.982 14.0971C134.642 13.7569 134.449 13.2963 134.447 12.8152V5.8192ZM83.6393 5.8192C83.6374 5.3373 83.445 4.87568 83.1038 4.53493C82.7627 4.19417 82.3006 4.0019 81.8182 4H74.805C74.3232 4.00377 73.8621 4.19664 73.5214 4.53699C73.1807 4.87735 72.9876 5.33788 72.9838 5.8192V11.5192C72.9813 12.0015 72.7884 12.4634 72.4469 12.8045C72.1055 13.1456 71.6431 13.3383 71.1603 13.3408H65.6415C65.1597 13.3446 64.6987 13.5374 64.3579 13.8778C64.0172 14.2181 63.8241 14.6787 63.8204 15.16V40.8448C63.8229 41.3252 64.0151 41.7853 64.3551 42.125C64.6952 42.4647 65.1558 42.6567 65.6367 42.6592H71.1603C72.1598 42.6592 72.9838 43.4824 72.9838 44.4808V50.1784C72.987 50.6601 73.1798 51.1213 73.5206 51.4622C73.8614 51.803 74.3228 51.9962 74.805 52H81.8182C82.3006 51.9981 82.7627 51.8058 83.1038 51.4651C83.445 51.1243 83.6374 50.6627 83.6393 50.1808V43.1776C83.6374 42.6957 83.445 42.2341 83.1038 41.8933C82.7627 41.5526 82.3006 41.3603 81.8182 41.3584H76.2946C75.8122 41.3559 75.3502 41.1635 75.0088 40.8229C74.6674 40.4824 74.4742 40.0211 74.471 39.5392V16.4536C74.471 15.4552 75.2951 14.632 76.2946 14.632H81.8206C82.3022 14.6295 82.7633 14.4373 83.1038 14.0971C83.4444 13.7569 83.6368 13.2963 83.6393 12.8152V5.8192ZM102.553 16.5928C102.556 16.1909 102.717 15.8063 103.001 15.522C103.286 15.2378 103.671 15.0767 104.073 15.0736H119.46C119.755 15.0757 120.044 15.1634 120.29 15.3261C120.537 15.4889 120.731 15.7197 120.848 15.9904L123.342 21.7456C123.459 22.0172 123.653 22.2488 123.899 22.412C124.146 22.5753 124.435 22.6631 124.731 22.6648H129.894C130.725 22.6648 131.41 23.3488 131.41 24.1792V41.1688C131.408 41.5711 131.247 41.9565 130.963 42.2409C130.678 42.5254 130.292 42.6861 129.889 42.688H123.361C122.959 42.6861 122.573 42.5254 122.288 42.2409C122.003 41.9565 121.842 41.5711 121.841 41.1688V25.3936C121.838 24.9923 121.678 24.608 121.394 24.3238C121.11 24.0396 120.726 23.8782 120.324 23.8744H113.638C113.236 23.8782 112.852 24.0396 112.569 24.3238C112.285 24.608 112.125 24.9923 112.122 25.3936V41.1688C112.12 41.5711 111.959 41.9565 111.675 42.2409C111.39 42.5254 111.004 42.6861 110.601 42.688H104.073C103.671 42.6861 103.285 42.5254 103 42.2409C102.715 41.9565 102.554 41.5711 102.553 41.1688V16.5928ZM87.0606 16.5928C87.0638 16.1909 87.225 15.8063 87.5095 15.522C87.7941 15.2378 88.1791 15.0767 88.5815 15.0736H95.1117C95.5139 15.0767 95.8986 15.2379 96.1828 15.5222C96.4669 15.8065 96.6276 16.1911 96.6301 16.5928V41.1688C96.6283 41.5707 96.4677 41.9557 96.1835 42.2401C95.8992 42.5245 95.5141 42.6855 95.1117 42.688H88.5815C88.1787 42.6861 87.793 42.5254 87.5082 42.2409C87.2234 41.9565 87.0625 41.5711 87.0606 41.1688V16.5928Z" fill="url(#paint0_linear_10101_2194)"/>
<path d="M23.2688 28.1102V28.271C24.5662 28.7198 25.6978 29.5358 26.5339 30.623C27.4084 31.799 27.8601 33.239 27.8097 34.7054C27.8367 35.7826 27.6294 36.8529 27.2022 37.8423C26.7749 38.8318 26.1379 39.7169 25.335 40.4366C23.7034 41.9225 21.5597 42.7205 19.3526 42.6638H4V15.0398H18.8552C21.1953 15.0398 23.1486 15.7142 24.7151 17.063C25.4805 17.7079 26.0898 18.5175 26.4976 19.431C26.9053 20.3446 27.1009 21.3384 27.0697 22.3382C27.0768 23.5723 26.7136 24.7802 26.0269 25.8062C25.3427 26.817 24.3854 27.6154 23.2688 28.1102ZM17.4954 21.1022H10.8089V26.0102H17.4954C18.1921 26.0414 18.8696 25.7678 19.3526 25.2662C19.8187 24.8102 20.0853 24.1862 20.095 23.5334C20.095 22.8998 19.8451 22.2926 19.4006 21.8414C19.1529 21.5914 18.8552 21.3965 18.5268 21.2696C18.1985 21.1426 17.847 21.084 17.4954 21.1022ZM10.8089 36.6446H18.072C18.4418 36.655 18.8097 36.5871 19.1514 36.4452C19.493 36.3033 19.8007 36.0907 20.0541 35.8214C20.549 35.3294 20.8325 34.6622 20.8374 33.9638C20.8353 33.6488 20.7641 33.3381 20.6288 33.0537C20.4935 32.7692 20.2973 32.5179 20.0541 32.3174C19.5178 31.8174 18.8052 31.5499 18.072 31.5734H10.8089V36.6446ZM52.5924 42.6638H31.0412V15.0398H52.5924V21.6278H37.8477V25.5902H50.5093V31.7774H37.8477V36.0662H52.5924V42.6638ZM185.374 31.127H192.344C192.063 34.4827 190.491 37.5992 187.959 39.8222C185.4 42.1022 182.162 43.2422 178.241 43.2422C173.954 43.2422 170.49 41.8694 167.849 39.1238C165.209 36.3758 163.888 32.9702 163.885 28.8998C163.885 24.815 165.207 21.383 167.847 18.6038C170.488 15.8246 173.95 14.4254 178.241 14.4014C182.066 14.4014 185.256 15.527 187.81 17.7782C190.323 19.9199 191.916 22.9443 192.26 26.2262H185.211C184.848 24.7305 183.98 23.4056 182.753 22.475C181.436 21.4939 179.817 21.0032 178.176 21.0878C175.893 21.1142 174.091 21.8702 172.77 23.3558C171.465 24.8771 170.774 26.8299 170.833 28.8326C170.781 30.8548 171.487 32.8236 172.813 34.3526C174.118 35.8262 175.927 36.5654 178.243 36.5654C179.915 36.6192 181.556 36.1113 182.904 35.123C184.174 34.1231 185.049 32.7068 185.374 31.1246V31.127ZM201.399 42.6206H194.593V15.0206H208.864C211.834 15.0206 214.198 15.6926 215.957 17.0366C217.715 18.3806 218.609 20.2766 218.635 22.7246C218.635 25.3334 217.73 27.2846 215.916 28.5758V28.739C218.28 29.315 219.462 31.0862 219.462 34.0502V42.6206H212.655V35.2478C212.655 34.2302 212.134 33.7238 211.091 33.7262H201.397V42.623L201.399 42.6206ZM201.399 21.6134V27.7094H208.287C209.22 27.7574 210.137 27.4646 210.868 26.8838C211.541 26.3126 211.908 25.4582 211.86 24.5774C211.881 24.161 211.802 23.7455 211.63 23.3659C211.457 22.9863 211.196 22.6536 210.868 22.3958C210.132 21.8487 209.23 21.5724 208.314 21.6134H201.399ZM238.601 15.023H246.15L235.343 32.5694V42.6254H228.539V32.6078L217.694 15.0206H225.406L231.999 26.1398L238.601 15.023ZM261.969 15.023C263.255 14.991 264.535 15.2226 265.729 15.7035C266.922 16.1843 268.005 16.9043 268.91 17.819C270.781 19.6574 271.716 21.971 271.713 24.755C271.713 27.611 270.764 29.963 268.869 31.8038C267.966 32.7032 266.89 33.4109 265.706 33.8844C264.523 34.3579 263.255 34.5873 261.981 34.559H254.501V42.635H247.7V15.023H261.969ZM254.501 28.1174H261.351C262.247 28.1414 263.117 27.8174 263.78 27.2126C264.45 26.5886 264.813 25.7006 264.77 24.7862C264.781 24.354 264.693 23.9249 264.513 23.5321C264.332 23.1393 264.063 22.7932 263.727 22.5206C263.078 21.9209 262.221 21.5965 261.337 21.6158H254.501V28.1198V28.1174ZM272.401 15.023H297.109V21.6086H288.157V42.6182H281.353V21.6134H272.401V15.023ZM321.959 39.1214C319.266 41.8646 315.734 43.2374 311.359 43.2422C306.986 43.247 303.454 41.8742 300.766 39.1238C298.07 36.3494 296.722 32.9414 296.722 28.8998C296.722 24.8606 298.07 21.4286 300.766 18.6038C303.456 15.803 306.988 14.4014 311.359 14.4014C315.731 14.4014 319.263 15.803 321.959 18.6014C324.652 21.4046 326 24.8366 326 28.9022C326 32.9654 324.652 36.371 321.959 39.1214ZM311.359 36.5678C313.699 36.5678 315.568 35.8118 316.969 34.2998C318.36 32.8183 319.114 30.8513 319.071 28.8206C319.098 27.8144 318.926 26.8128 318.566 25.8731C318.205 24.9333 317.662 24.0738 316.969 23.3438C315.594 21.8294 313.725 21.0734 311.359 21.0758C308.994 21.0758 307.111 21.8342 305.708 23.3438C304.331 24.8304 303.591 26.7961 303.646 28.8206C303.601 30.844 304.34 32.8067 305.708 34.2998C307.111 35.8118 308.994 36.5678 311.359 36.5678Z" fill="url(#paint1_linear_10101_2194)"/>
</g>
<defs>
<filter id="filter0_f_10101_2194" x="0" y="0" width="330" height="56" filterUnits="userSpaceOnUse" color-interpolation-filters="sRGB">
<feFlood flood-opacity="0" result="BackgroundImageFix"/>
<feBlend mode="normal" in="SourceGraphic" in2="BackgroundImageFix" result="shape"/>
<feGaussianBlur stdDeviation="2" result="effect1_foregroundBlur_10101_2194"/>
</filter>
<linearGradient id="paint0_linear_10101_2194" x1="165" y1="4" x2="165" y2="52" gradientUnits="userSpaceOnUse">
<stop stop-color="white"/>
<stop offset="0.798077" stop-color="#6D6D8F" stop-opacity="0"/>
</linearGradient>
<linearGradient id="paint1_linear_10101_2194" x1="165" y1="4" x2="165" y2="52" gradientUnits="userSpaceOnUse">
<stop stop-color="white"/>
<stop offset="0.798077" stop-color="#6D6D8F" stop-opacity="0"/>
</linearGradient>
</defs>
</svg>
