<svg width="379" height="72" viewBox="0 0 379 72" fill="none" xmlns="http://www.w3.org/2000/svg">
<path d="M43.3243 50.5539L32.0372 55.519V55.0179C29.8701 55.5645 27.4321 55.8834 25.1746 56.02C14.5196 55.9289 6.12198 50.2805 5.98653 43.63V41.1702C9.46297 46.272 16.5964 49.7339 25.1746 49.5973C28.0641 49.7339 31.0439 49.2784 33.5271 48.5951L34.5204 46.1353C31.5857 47.0464 28.335 47.6386 25.1746 47.6386C14.5196 47.6386 6.12198 42.0357 5.98653 35.2485V33.2443C9.46297 37.9816 16.5964 41.398 25.1746 41.1702C29.0574 41.398 32.8047 40.5781 36.0103 39.166L36.5069 36.7062C33.3917 38.3461 29.3734 39.3026 25.2198 39.166C14.5647 39.3026 6.16713 33.6998 6.03168 26.776V24.7717C9.50812 29.6002 16.6416 33.0621 25.2198 33.1987C30.0958 33.0621 34.701 31.7411 38.4934 29.7368L38.9901 26.776C35.5588 29.3269 30.5473 31.0123 25.2198 31.24C14.5647 31.0123 6.16713 25.3639 6.03168 18.3489C6.12198 11.6529 14.5647 6.05006 25.2198 5.95895C31.5406 6.05006 37.455 8.28208 40.9315 11.9262L41.2926 12.5184H43.7758L43.4146 11.9262C39.9382 7.14329 32.9402 4.00024 25.2198 4.00024C13.3909 3.95469 4 10.4686 4 18.3034V44.0855C4.40634 51.7382 13.5715 57.9787 25.1295 57.9787C32.7596 58.0243 39.6673 54.9723 43.3243 50.5539Z" fill="#6D6D8F"/>
<path d="M38.7188 68L42.6919 50.9638L31.2693 55.9744L38.2222 26.4571H24.8582L28.3347 11.9261H71L67.5236 26.4571H53.6178L50.638 34.4741L66.0337 27.9603L38.7188 68ZM45.6717 47.5018L43.6852 57.5232L60.0741 32.5154L46.665 38.5282L52.6246 24.4983H66.0337L68.5168 13.976H29.7794L27.2963 24.4983H40.7054L34.2491 52.5125L45.6717 47.5018Z" fill="#6D6D8F"/>
<path d="M43.3243 50.5539L32.0372 55.519V55.0179C29.8701 55.5645 27.4321 55.8834 25.1746 56.02C14.5196 55.9289 6.12198 50.2805 5.98653 43.63V41.1702C9.46297 46.272 16.5964 49.7339 25.1746 49.5973C28.0641 49.7339 31.0439 49.2784 33.5271 48.5951L34.5204 46.1353C31.5857 47.0464 28.335 47.6386 25.1746 47.6386C14.5196 47.6386 6.12198 42.0357 5.98653 35.2485V33.2443C9.46297 37.9816 16.5964 41.398 25.1746 41.1702C29.0574 41.398 32.8047 40.5781 36.0103 39.166L36.5069 36.7062C33.3917 38.3461 29.3734 39.3026 25.2198 39.166C14.5647 39.3026 6.16713 33.6998 6.03168 26.776V24.7717C9.50812 29.6002 16.6416 33.0621 25.2198 33.1987C30.0958 33.0621 34.701 31.7411 38.4934 29.7368L38.9901 26.776C35.5588 29.3269 30.5473 31.0123 25.2198 31.24C14.5647 31.0123 6.16713 25.3639 6.03168 18.3489C6.12198 11.6529 14.5647 6.05006 25.2198 5.95895C31.5406 6.05006 37.455 8.28208 40.9315 11.9262L41.2926 12.5184H43.7758L43.4146 11.9262C39.9382 7.14329 32.9402 4.00024 25.2198 4.00024C13.3909 3.95469 4 10.4686 4 18.3034V44.0855C4.40634 51.7382 13.5715 57.9787 25.1295 57.9787C32.7596 58.0243 39.6673 54.9723 43.3243 50.5539Z" stroke="#6D6D8F"/>
<path d="M38.7188 68L42.6919 50.9638L31.2693 55.9744L38.2222 26.4571H24.8582L28.3347 11.9261H71L67.5236 26.4571H53.6178L50.638 34.4741L66.0337 27.9603L38.7188 68ZM45.6717 47.5018L43.6852 57.5232L60.0741 32.5154L46.665 38.5282L52.6246 24.4983H66.0337L68.5168 13.976H29.7794L27.2963 24.4983H40.7054L34.2491 52.5125L45.6717 47.5018Z" stroke="#6D6D8F"/>
<path d="M99.9633 41C100.034 43.4779 99.2561 45.3894 97.7002 46.8053C96.1443 48.2212 94.0227 48.9292 91.2645 48.9292C88.5064 48.9292 86.2433 48.0089 84.546 46.2389C82.8487 44.469 82 42.1327 82 39.3009V34.6991C82 31.8672 82.8487 29.531 84.4753 27.7611C86.1726 25.9911 88.365 25.0708 91.0524 25.0708C93.8812 25.0708 96.0736 25.7788 97.7002 27.1239C99.3268 28.5398 100.105 30.4513 100.034 32.9292V33H95.5078C95.5078 31.5133 95.1542 30.3805 94.447 29.6726C93.7398 28.9646 92.6083 28.6106 91.1231 28.6106C89.7087 28.6106 88.6478 29.177 87.8699 30.3097C87.092 31.4425 86.6676 32.8584 86.6676 34.6283V39.3009C86.6676 41.0708 87.092 42.5575 87.8699 43.6903C88.7186 44.823 89.8501 45.3894 91.3353 45.3894C92.7497 45.3894 93.7398 45.0354 94.447 44.3274C95.1542 43.6195 95.5078 42.4867 95.5078 41H99.9633ZM125.565 39.0885C125.565 41.9204 124.645 44.3274 122.877 46.1681C121.109 48.0088 118.775 48.9292 115.876 48.9292C112.976 48.9292 110.713 48.0088 108.874 46.1681C107.106 44.3274 106.187 41.9204 106.187 39.0885V34.9115C106.187 32.0796 107.106 29.7434 108.874 27.8319C110.642 25.9912 112.976 25 115.805 25C118.705 25 121.038 25.9204 122.806 27.8319C124.645 29.6726 125.494 32.0796 125.494 34.9115V39.0885H125.565ZM120.897 34.8407C120.897 33 120.473 31.5841 119.553 30.3805C118.634 29.2478 117.432 28.6106 115.805 28.6106C114.249 28.6106 112.976 29.177 112.127 30.3805C111.279 31.5133 110.784 33 110.784 34.8407V39.0177C110.784 40.8584 111.208 42.3451 112.127 43.5487C112.976 44.6814 114.249 45.3186 115.805 45.3186C117.432 45.3186 118.634 44.7522 119.553 43.5487C120.473 42.4159 120.897 40.8584 120.897 39.0177V34.8407ZM137.587 48.5752H132.92V25.354H137.587V48.5752ZM164.391 48.5752H159.723L150.388 32.9292H150.317V48.5752H145.65V25.354H150.317L159.652 41H159.723V25.354H164.391V48.5752ZM187.8 28.9646H181.152V48.5752H176.484V28.9646H169.978V25.354H187.8V28.9646ZM207.036 38.3805H198.408V45.0354H208.663V48.5752H193.811V25.354H208.663V28.9646H198.479V34.7699H207.107V38.3805H207.036ZM219.978 45.0354H230.374V48.5752H215.31V25.354H219.978V45.0354ZM250.176 38.3805H241.548V45.0354H251.803V48.5752H236.951V25.354H251.803V28.9646H241.619V34.7699H250.247V38.3805H250.176ZM276.273 45.4602C275.565 46.3805 274.504 47.2301 273.019 47.9381C271.605 48.646 269.766 49 267.503 49C264.674 49 262.411 48.1504 260.643 46.3805C258.875 44.6106 257.956 42.3451 257.956 39.5133V34.6283C257.956 31.7965 258.804 29.531 260.572 27.7611C262.27 25.9911 264.533 25.0708 267.22 25.0708C270.049 25.0708 272.241 25.7788 273.727 27.1239C275.212 28.469 275.99 30.2389 275.919 32.5044V32.5752H271.534C271.534 31.3717 271.181 30.3805 270.473 29.6726C269.766 28.9646 268.705 28.6106 267.362 28.6106C265.947 28.6106 264.816 29.177 263.896 30.2389C263.048 31.3717 262.623 32.7876 262.623 34.4867V39.3717C262.623 41.1416 263.048 42.5575 263.967 43.6903C264.886 44.823 266.089 45.3186 267.574 45.3186C268.705 45.3186 269.554 45.177 270.19 44.9646C270.827 44.7522 271.322 44.469 271.676 44.115V39.5841H267.22V36.3274H276.343V45.4602H276.273ZM288.295 39.3009V48.5752H283.628V25.354H291.69C294.307 25.354 296.428 25.9912 297.913 27.1947C299.399 28.3982 300.176 30.0973 300.176 32.2212C300.176 33.4248 299.894 34.4159 299.257 35.3363C298.621 36.1858 297.701 36.8938 296.499 37.4602C297.843 37.885 298.833 38.5221 299.469 39.5133C300.035 40.4336 300.389 41.6372 300.389 43.0531V44.7522C300.389 45.3894 300.459 46.0973 300.672 46.8053C300.813 47.5133 301.167 48.0089 301.591 48.3628V48.7168H296.782C296.357 48.3628 296.075 47.7965 295.933 47.0177C295.792 46.2389 295.721 45.4602 295.721 44.7522V43.1239C295.721 41.9912 295.438 41.0708 294.802 40.4336C294.165 39.7965 293.246 39.4425 292.114 39.4425H288.295V39.3009ZM288.295 35.7611H291.619C292.892 35.7611 293.882 35.4779 294.519 34.9115C295.155 34.3451 295.509 33.5664 295.509 32.4336C295.509 31.3717 295.155 30.5221 294.519 29.885C293.882 29.2478 292.963 28.9646 291.69 28.9646H288.295V35.7611ZM319.908 43.6195H312.411L310.855 48.646H305.976L313.826 25.4248H318.564L326.343 48.646H321.464L319.908 43.6195ZM313.543 39.9381H318.776L316.23 31.7257H316.16L313.543 39.9381ZM336.669 40.1504V48.5752H332.001V25.354H340.912C343.6 25.354 345.651 26.0619 347.206 27.4071C348.762 28.7522 349.469 30.5929 349.469 32.7876C349.469 34.9823 348.692 36.823 347.206 38.1681C345.651 39.5133 343.6 40.2212 340.912 40.2212H336.669V40.1504ZM336.669 36.6106H340.912C342.185 36.6106 343.175 36.2566 343.882 35.5487C344.519 34.8407 344.873 33.9204 344.873 32.8584C344.873 31.7257 344.519 30.8053 343.882 30.0973C343.246 29.3894 342.256 29.0354 340.912 29.0354H336.669V36.6106ZM375 48.5752H370.332V38.9469H360.856V48.5752H356.188V25.354H360.856V35.3363H370.332V25.354H375V48.5752Z" fill="#6D6D8F"/>
<g style="mix-blend-mode:plus-lighter" filter="url(#filter0_f_10101_2197)">
<path d="M43.3243 50.5539L32.0372 55.519V55.0179C29.8701 55.5645 27.4321 55.8834 25.1746 56.02C14.5196 55.9289 6.12198 50.2805 5.98653 43.63V41.1702C9.46297 46.272 16.5964 49.7339 25.1746 49.5973C28.0641 49.7339 31.0439 49.2784 33.5271 48.5951L34.5204 46.1353C31.5857 47.0464 28.335 47.6386 25.1746 47.6386C14.5196 47.6386 6.12198 42.0357 5.98653 35.2485V33.2443C9.46297 37.9816 16.5964 41.398 25.1746 41.1702C29.0574 41.398 32.8047 40.5781 36.0103 39.166L36.5069 36.7062C33.3917 38.3461 29.3734 39.3026 25.2198 39.166C14.5647 39.3026 6.16713 33.6998 6.03168 26.776V24.7717C9.50812 29.6002 16.6416 33.0621 25.2198 33.1987C30.0958 33.0621 34.701 31.7411 38.4934 29.7368L38.9901 26.776C35.5588 29.3269 30.5473 31.0123 25.2198 31.24C14.5647 31.0123 6.16713 25.3639 6.03168 18.3489C6.12198 11.6529 14.5647 6.05006 25.2198 5.95895C31.5406 6.05006 37.455 8.28208 40.9315 11.9262L41.2926 12.5184H43.7758L43.4146 11.9262C39.9382 7.14329 32.9402 4.00024 25.2198 4.00024C13.3909 3.95469 4 10.4686 4 18.3034V44.0855C4.40634 51.7382 13.5715 57.9787 25.1295 57.9787C32.7596 58.0243 39.6673 54.9723 43.3243 50.5539Z" fill="url(#paint0_linear_10101_2197)"/>
<path d="M38.7188 68L42.6919 50.9638L31.2693 55.9744L38.2222 26.4571H24.8582L28.3347 11.9261H71L67.5236 26.4571H53.6178L50.638 34.4741L66.0337 27.9603L38.7188 68ZM45.6717 47.5018L43.6852 57.5232L60.0741 32.5154L46.665 38.5282L52.6246 24.4983H66.0337L68.5168 13.976H29.7794L27.2963 24.4983H40.7054L34.2491 52.5125L45.6717 47.5018Z" fill="url(#paint1_linear_10101_2197)"/>
<path d="M99.9633 41C100.034 43.4779 99.2561 45.3894 97.7002 46.8053C96.1443 48.2212 94.0227 48.9292 91.2645 48.9292C88.5064 48.9292 86.2433 48.0089 84.546 46.2389C82.8487 44.469 82 42.1327 82 39.3009V34.6991C82 31.8672 82.8487 29.531 84.4753 27.7611C86.1726 25.9911 88.365 25.0708 91.0524 25.0708C93.8812 25.0708 96.0736 25.7788 97.7002 27.1239C99.3268 28.5398 100.105 30.4513 100.034 32.9292V33H95.5078C95.5078 31.5133 95.1542 30.3805 94.447 29.6726C93.7398 28.9646 92.6083 28.6106 91.1231 28.6106C89.7087 28.6106 88.6478 29.177 87.8699 30.3097C87.092 31.4425 86.6676 32.8584 86.6676 34.6283V39.3009C86.6676 41.0708 87.092 42.5575 87.8699 43.6903C88.7186 44.823 89.8501 45.3894 91.3353 45.3894C92.7497 45.3894 93.7398 45.0354 94.447 44.3274C95.1542 43.6195 95.5078 42.4867 95.5078 41H99.9633ZM125.565 39.0885C125.565 41.9204 124.645 44.3274 122.877 46.1681C121.109 48.0088 118.775 48.9292 115.876 48.9292C112.976 48.9292 110.713 48.0088 108.874 46.1681C107.106 44.3274 106.187 41.9204 106.187 39.0885V34.9115C106.187 32.0796 107.106 29.7434 108.874 27.8319C110.642 25.9912 112.976 25 115.805 25C118.705 25 121.038 25.9204 122.806 27.8319C124.645 29.6726 125.494 32.0796 125.494 34.9115V39.0885H125.565ZM120.897 34.8407C120.897 33 120.473 31.5841 119.553 30.3805C118.634 29.2478 117.432 28.6106 115.805 28.6106C114.249 28.6106 112.976 29.177 112.127 30.3805C111.279 31.5133 110.784 33 110.784 34.8407V39.0177C110.784 40.8584 111.208 42.3451 112.127 43.5487C112.976 44.6814 114.249 45.3186 115.805 45.3186C117.432 45.3186 118.634 44.7522 119.553 43.5487C120.473 42.4159 120.897 40.8584 120.897 39.0177V34.8407ZM137.587 48.5752H132.92V25.354H137.587V48.5752ZM164.391 48.5752H159.723L150.388 32.9292H150.317V48.5752H145.65V25.354H150.317L159.652 41H159.723V25.354H164.391V48.5752ZM187.8 28.9646H181.152V48.5752H176.484V28.9646H169.978V25.354H187.8V28.9646ZM207.036 38.3805H198.408V45.0354H208.663V48.5752H193.811V25.354H208.663V28.9646H198.479V34.7699H207.107V38.3805H207.036ZM219.978 45.0354H230.374V48.5752H215.31V25.354H219.978V45.0354ZM250.176 38.3805H241.548V45.0354H251.803V48.5752H236.951V25.354H251.803V28.9646H241.619V34.7699H250.247V38.3805H250.176ZM276.273 45.4602C275.565 46.3805 274.504 47.2301 273.019 47.9381C271.605 48.646 269.766 49 267.503 49C264.674 49 262.411 48.1504 260.643 46.3805C258.875 44.6106 257.956 42.3451 257.956 39.5133V34.6283C257.956 31.7965 258.804 29.531 260.572 27.7611C262.27 25.9911 264.533 25.0708 267.22 25.0708C270.049 25.0708 272.241 25.7788 273.727 27.1239C275.212 28.469 275.99 30.2389 275.919 32.5044V32.5752H271.534C271.534 31.3717 271.181 30.3805 270.473 29.6726C269.766 28.9646 268.705 28.6106 267.362 28.6106C265.947 28.6106 264.816 29.177 263.896 30.2389C263.048 31.3717 262.623 32.7876 262.623 34.4867V39.3717C262.623 41.1416 263.048 42.5575 263.967 43.6903C264.886 44.823 266.089 45.3186 267.574 45.3186C268.705 45.3186 269.554 45.177 270.19 44.9646C270.827 44.7522 271.322 44.469 271.676 44.115V39.5841H267.22V36.3274H276.343V45.4602H276.273ZM288.295 39.3009V48.5752H283.628V25.354H291.69C294.307 25.354 296.428 25.9912 297.913 27.1947C299.399 28.3982 300.176 30.0973 300.176 32.2212C300.176 33.4248 299.894 34.4159 299.257 35.3363C298.621 36.1858 297.701 36.8938 296.499 37.4602C297.843 37.885 298.833 38.5221 299.469 39.5133C300.035 40.4336 300.389 41.6372 300.389 43.0531V44.7522C300.389 45.3894 300.459 46.0973 300.672 46.8053C300.813 47.5133 301.167 48.0089 301.591 48.3628V48.7168H296.782C296.357 48.3628 296.075 47.7965 295.933 47.0177C295.792 46.2389 295.721 45.4602 295.721 44.7522V43.1239C295.721 41.9912 295.438 41.0708 294.802 40.4336C294.165 39.7965 293.246 39.4425 292.114 39.4425H288.295V39.3009ZM288.295 35.7611H291.619C292.892 35.7611 293.882 35.4779 294.519 34.9115C295.155 34.3451 295.509 33.5664 295.509 32.4336C295.509 31.3717 295.155 30.5221 294.519 29.885C293.882 29.2478 292.963 28.9646 291.69 28.9646H288.295V35.7611ZM319.908 43.6195H312.411L310.855 48.646H305.976L313.826 25.4248H318.564L326.343 48.646H321.464L319.908 43.6195ZM313.543 39.9381H318.776L316.23 31.7257H316.16L313.543 39.9381ZM336.669 40.1504V48.5752H332.001V25.354H340.912C343.6 25.354 345.651 26.0619 347.206 27.4071C348.762 28.7522 349.469 30.5929 349.469 32.7876C349.469 34.9823 348.692 36.823 347.206 38.1681C345.651 39.5133 343.6 40.2212 340.912 40.2212H336.669V40.1504ZM336.669 36.6106H340.912C342.185 36.6106 343.175 36.2566 343.882 35.5487C344.519 34.8407 344.873 33.9204 344.873 32.8584C344.873 31.7257 344.519 30.8053 343.882 30.0973C343.246 29.3894 342.256 29.0354 340.912 29.0354H336.669V36.6106ZM375 48.5752H370.332V38.9469H360.856V48.5752H356.188V25.354H360.856V35.3363H370.332V25.354H375V48.5752Z" fill="url(#paint2_linear_10101_2197)"/>
</g>
<defs>
<filter id="filter0_f_10101_2197" x="0" y="0" width="379" height="72" filterUnits="userSpaceOnUse" color-interpolation-filters="sRGB">
<feFlood flood-opacity="0" result="BackgroundImageFix"/>
<feBlend mode="normal" in="SourceGraphic" in2="BackgroundImageFix" result="shape"/>
<feGaussianBlur stdDeviation="2" result="effect1_foregroundBlur_10101_2197"/>
</filter>
<linearGradient id="paint0_linear_10101_2197" x1="37.5" y1="4" x2="37.5" y2="68" gradientUnits="userSpaceOnUse">
<stop stop-color="white"/>
<stop offset="0.798077" stop-color="#6D6D8F" stop-opacity="0"/>
</linearGradient>
<linearGradient id="paint1_linear_10101_2197" x1="37.5" y1="4" x2="37.5" y2="68" gradientUnits="userSpaceOnUse">
<stop stop-color="white"/>
<stop offset="0.798077" stop-color="#6D6D8F" stop-opacity="0"/>
</linearGradient>
<linearGradient id="paint2_linear_10101_2197" x1="228.5" y1="25" x2="228.5" y2="49" gradientUnits="userSpaceOnUse">
<stop stop-color="white"/>
<stop offset="0.798077" stop-color="#6D6D8F" stop-opacity="0"/>
</linearGradient>
</defs>
</svg>
