<svg width="294" height="64" viewBox="0 0 294 64" fill="none" xmlns="http://www.w3.org/2000/svg">
<path d="M4.4192 42.013L8.03481 41.4378V8.13071L4 7.60784L4.2096 4H29.4665L28.8377 14.0915L23.8073 13.9346L23.4929 7.60784H15.6852V22.6143H19.0913L19.8773 19.1634L23.3881 19.2679V29.6209H19.8773L19.0389 26.0653H15.6328V41.9607H23.4929L24.2265 35.0588L29.5189 35.2156L29.9381 45.7254H4.262L4.4192 42.013Z" fill="#6D6D8F"/>
<path d="M32.2971 45.7778L32.4543 42.6928L35.2839 42.1177V21.0981L31.9827 20.7844V17.6471L40.2619 16.4445L40.8907 18.2223V19.4249C42.8819 17.3334 45.2923 16.0785 48.3839 16.0785C52.8904 16.0785 56.244 18.7975 56.244 24.1831V42.0654L59.2308 42.6406L59.0736 45.7255H49.2224V25.7517C49.2224 22.8759 48.1743 21.255 45.5543 21.255C44.6635 21.255 44.0347 21.4118 43.3535 21.6733C42.9343 22.0393 42.5151 22.5622 42.1483 23.0328V42.17L45.1351 42.7451L44.9255 45.8301H32.2971V45.7778Z" fill="#6D6D8F"/>
<path d="M190.598 45.7778L190.702 42.6928L193.532 42.1177V21.0981L190.231 20.7844V17.6471L198.51 16.4445L199.139 18.2223V19.4249C201.13 17.3334 203.54 16.0785 206.632 16.0785C211.138 16.0785 214.492 18.7975 214.492 24.1831V42.0654L217.479 42.6406L217.322 45.7255H207.523V25.7517C207.523 22.8759 206.475 21.255 203.855 21.255C202.964 21.255 202.335 21.4118 201.654 21.6733C201.235 22.0393 200.816 22.5622 200.449 23.0328V42.17L203.436 42.7451L203.226 45.8301H190.598V45.7778Z" fill="#6D6D8F"/>
<path d="M74.8445 45.2021C73.6917 45.6727 71.6481 46.1956 68.9757 46.1956C65.4648 46.1956 62.216 44.627 62.216 39.5028V21.0976L58.8624 20.5747L59.0196 16.9146L62.7924 16.7578L64.4168 11.163L69.2377 10.9538V16.9669H74.4253L74.0585 20.627L69.2901 21.1499V39.5551C69.2901 41.0714 70.1285 42.0649 71.7005 42.0649H74.5301L74.8445 45.2021Z" fill="#6D6D8F"/>
<path d="M270.979 45.778L271.084 42.7453L273.756 42.1178V21.0983L270.612 20.7845V17.6473L279.206 16.4447L279.782 18.4839V19.1636C282.035 17.4904 285.074 16.3924 288.742 16.3924L290 17.4904L289.109 25.4381L284.393 25.2813L283.922 21.046C282.821 21.2028 281.773 21.5166 280.882 22.144V42.1701L283.869 42.7976L283.66 45.8302H270.979V45.778Z" fill="#6D6D8F"/>
<path d="M147.578 45.778L147.735 42.7453L150.407 42.1178V21.0983L147.263 20.7845V17.6473L155.857 16.4447L156.433 18.4839V19.1636C158.687 17.4904 161.726 16.3924 165.394 16.3924L166.651 17.4904L165.656 25.4381L160.94 25.2813L160.468 21.046C159.368 21.2028 158.32 21.5166 157.429 22.144V42.1701L160.416 42.7976L160.206 45.8302H147.578V45.778Z" fill="#6D6D8F"/>
<path d="M76.9406 45.778L77.0978 42.7453L79.7702 42.1178V21.0983L76.6262 20.7845V17.6473L85.2198 16.4447L85.7962 18.4839V19.1636C88.0494 17.4904 91.0886 16.3924 94.7043 16.3924L95.9619 17.4904L95.0711 25.4381L90.355 25.2813L89.8834 21.046C88.783 21.2028 87.735 21.5166 86.8442 22.144V42.1701L89.831 42.7976L89.6214 45.8302H76.9406V45.778Z" fill="#6D6D8F"/>
<path d="M104.085 32.9673C104.085 37.9869 106.286 41.8561 110.635 41.8561C112.888 41.8561 114.67 41.3855 116.766 40.3921L117.971 43.1633C115.822 44.8888 112.678 46.196 108.748 46.196C101.098 46.196 96.6964 39.6078 96.6964 31.1372C96.6964 23.9215 99.8928 16.0261 108.644 16.0261C116.294 16.0261 119.176 23.0849 119.176 30.928L118.442 32.8104L104.085 32.9673ZM103.98 29.6209L112.783 29.2026C112.626 25.6993 111.892 20.1568 108.434 20.1568C107.596 20.1568 107.019 20.3137 105.971 20.8366C104.556 23.2418 103.98 27.5816 103.98 29.6209Z" fill="#6D6D8F"/>
<path d="M225.862 32.9673C225.862 37.9869 228.063 41.8561 232.412 41.8561C234.665 41.8561 236.447 41.3855 238.543 40.3921L239.748 43.1633C237.6 44.8888 234.456 46.196 230.526 46.196C222.875 46.196 218.474 39.6078 218.474 31.1372C218.474 23.9215 221.67 16.0261 230.421 16.0261C238.071 16.0261 240.953 23.0849 240.953 30.928L240.22 32.8104L225.862 32.9673ZM225.757 29.6209L234.561 29.2026C234.403 25.6993 233.67 20.1568 230.211 20.1568C229.373 20.1568 228.797 20.3137 227.749 20.8366C226.334 23.2418 225.757 27.5816 225.757 29.6209Z" fill="#6D6D8F"/>
<path d="M174.72 32.9673C174.72 37.9869 176.921 41.8561 181.27 41.8561C183.523 41.8561 185.305 41.3855 187.401 40.3921L188.606 43.1633C186.457 44.8888 183.313 46.196 179.383 46.196C171.733 46.196 167.331 39.6078 167.331 31.1372C167.331 23.9215 170.528 16.0261 179.279 16.0261C186.929 16.0261 189.811 23.0849 189.811 30.928L189.077 32.8104L174.72 32.9673ZM174.615 29.6209L183.418 29.2026C183.261 25.6993 182.527 20.1568 179.069 20.1568C178.231 20.1568 177.654 20.3137 176.606 20.8366C175.191 23.2418 174.563 27.5816 174.615 29.6209Z" fill="#6D6D8F"/>
<path d="M260.761 45.7775L260.028 43.2677C258.089 45.0977 256.203 46.1958 253.268 46.1958C248.762 46.1958 244.727 43.9474 244.727 37.7252V20.3658L241.426 20.052V17.2808L250.963 16.1828L251.696 18.6926V36.8886C251.696 40.0781 253.006 41.7513 255.574 41.7513C256.307 41.7513 257.251 41.6468 258.089 41.333C258.561 40.8625 259.032 40.2873 259.399 39.7121V20.3658L255.993 20.052V17.2808L265.635 16.1828L266.368 18.6926V42.1174L269.355 42.6925L268.988 45.7775H260.761Z" fill="#6D6D8F"/>
<path d="M133.482 42.0131C131.962 42.0131 130.757 41.7517 129.814 41.2288V22.7713C130.233 22.1439 130.705 21.5687 131.176 21.0458C132.067 20.7321 132.853 20.6275 133.796 20.6275C137.726 20.6275 138.407 24.6014 138.407 31.7125C138.407 38.5621 137.359 40.4445 137.097 41.2288C135.997 41.7517 134.844 42.0131 133.482 42.0131ZM145.219 30.4576C145.219 21.621 142.599 16.0785 136.049 16.0785C131.7 16.0785 129.657 18.5883 128.818 19.6341V18.6406L128.085 16.1308L119.543 17.3334V20.3661L122.845 20.7844V56.4445L120.015 57.0196L119.858 60H132.486L132.696 57.0196L129.709 56.4445V45.1504C130.914 45.8301 132.591 46.2484 134.425 46.2484C145.115 46.2484 145.219 35.4249 145.219 30.4576Z" fill="#6D6D8F"/>
<g style="mix-blend-mode:plus-lighter" filter="url(#filter0_f_10101_2191)">
<path d="M4.4192 42.013L8.03481 41.4378V8.13071L4 7.60784L4.2096 4H29.4665L28.8377 14.0915L23.8073 13.9346L23.4929 7.60784H15.6852V22.6143H19.0913L19.8773 19.1634L23.3881 19.2679V29.6209H19.8773L19.0389 26.0653H15.6328V41.9607H23.4929L24.2265 35.0588L29.5189 35.2156L29.9381 45.7254H4.262L4.4192 42.013Z" fill="url(#paint0_linear_10101_2191)"/>
<path d="M32.2971 45.7778L32.4543 42.6928L35.2839 42.1177V21.0981L31.9827 20.7844V17.6471L40.2619 16.4445L40.8907 18.2223V19.4249C42.8819 17.3334 45.2923 16.0785 48.3839 16.0785C52.8904 16.0785 56.244 18.7975 56.244 24.1831V42.0654L59.2308 42.6406L59.0736 45.7255H49.2224V25.7517C49.2224 22.8759 48.1743 21.255 45.5543 21.255C44.6635 21.255 44.0347 21.4118 43.3535 21.6733C42.9343 22.0393 42.5151 22.5622 42.1483 23.0328V42.17L45.1351 42.7451L44.9255 45.8301H32.2971V45.7778Z" fill="url(#paint1_linear_10101_2191)"/>
<path d="M190.598 45.7778L190.702 42.6928L193.532 42.1177V21.0981L190.231 20.7844V17.6471L198.51 16.4445L199.139 18.2223V19.4249C201.13 17.3334 203.54 16.0785 206.632 16.0785C211.138 16.0785 214.492 18.7975 214.492 24.1831V42.0654L217.479 42.6406L217.322 45.7255H207.523V25.7517C207.523 22.8759 206.475 21.255 203.855 21.255C202.964 21.255 202.335 21.4118 201.654 21.6733C201.235 22.0393 200.816 22.5622 200.449 23.0328V42.17L203.436 42.7451L203.226 45.8301H190.598V45.7778Z" fill="url(#paint2_linear_10101_2191)"/>
<path d="M74.8445 45.2021C73.6917 45.6727 71.6481 46.1956 68.9757 46.1956C65.4648 46.1956 62.216 44.627 62.216 39.5028V21.0976L58.8624 20.5747L59.0196 16.9146L62.7924 16.7578L64.4168 11.163L69.2377 10.9538V16.9669H74.4253L74.0585 20.627L69.2901 21.1499V39.5551C69.2901 41.0714 70.1285 42.0649 71.7005 42.0649H74.5301L74.8445 45.2021Z" fill="url(#paint3_linear_10101_2191)"/>
<path d="M270.979 45.778L271.084 42.7453L273.756 42.1178V21.0983L270.612 20.7845V17.6473L279.206 16.4447L279.782 18.4839V19.1636C282.035 17.4904 285.074 16.3924 288.742 16.3924L290 17.4904L289.109 25.4381L284.393 25.2813L283.922 21.046C282.821 21.2028 281.773 21.5166 280.882 22.144V42.1701L283.869 42.7976L283.66 45.8302H270.979V45.778Z" fill="url(#paint4_linear_10101_2191)"/>
<path d="M147.578 45.778L147.735 42.7453L150.407 42.1178V21.0983L147.263 20.7845V17.6473L155.857 16.4447L156.433 18.4839V19.1636C158.687 17.4904 161.726 16.3924 165.394 16.3924L166.651 17.4904L165.656 25.4381L160.94 25.2813L160.468 21.046C159.368 21.2028 158.32 21.5166 157.429 22.144V42.1701L160.416 42.7976L160.206 45.8302H147.578V45.778Z" fill="url(#paint5_linear_10101_2191)"/>
<path d="M76.9406 45.778L77.0978 42.7453L79.7702 42.1178V21.0983L76.6262 20.7845V17.6473L85.2198 16.4447L85.7962 18.4839V19.1636C88.0494 17.4904 91.0886 16.3924 94.7043 16.3924L95.9619 17.4904L95.0711 25.4381L90.355 25.2813L89.8834 21.046C88.783 21.2028 87.735 21.5166 86.8442 22.144V42.1701L89.831 42.7976L89.6214 45.8302H76.9406V45.778Z" fill="url(#paint6_linear_10101_2191)"/>
<path d="M104.085 32.9673C104.085 37.9869 106.286 41.8561 110.635 41.8561C112.888 41.8561 114.67 41.3855 116.766 40.3921L117.971 43.1633C115.822 44.8888 112.678 46.196 108.748 46.196C101.098 46.196 96.6964 39.6078 96.6964 31.1372C96.6964 23.9215 99.8928 16.0261 108.644 16.0261C116.294 16.0261 119.176 23.0849 119.176 30.928L118.442 32.8104L104.085 32.9673ZM103.98 29.6209L112.783 29.2026C112.626 25.6993 111.892 20.1568 108.434 20.1568C107.596 20.1568 107.019 20.3137 105.971 20.8366C104.556 23.2418 103.98 27.5816 103.98 29.6209Z" fill="url(#paint7_linear_10101_2191)"/>
<path d="M225.862 32.9673C225.862 37.9869 228.063 41.8561 232.412 41.8561C234.665 41.8561 236.447 41.3855 238.543 40.3921L239.748 43.1633C237.6 44.8888 234.456 46.196 230.526 46.196C222.875 46.196 218.474 39.6078 218.474 31.1372C218.474 23.9215 221.67 16.0261 230.421 16.0261C238.071 16.0261 240.953 23.0849 240.953 30.928L240.22 32.8104L225.862 32.9673ZM225.757 29.6209L234.561 29.2026C234.403 25.6993 233.67 20.1568 230.211 20.1568C229.373 20.1568 228.797 20.3137 227.749 20.8366C226.334 23.2418 225.757 27.5816 225.757 29.6209Z" fill="url(#paint8_linear_10101_2191)"/>
<path d="M174.72 32.9673C174.72 37.9869 176.921 41.8561 181.27 41.8561C183.523 41.8561 185.305 41.3855 187.401 40.3921L188.606 43.1633C186.457 44.8888 183.313 46.196 179.383 46.196C171.733 46.196 167.331 39.6078 167.331 31.1372C167.331 23.9215 170.528 16.0261 179.279 16.0261C186.929 16.0261 189.811 23.0849 189.811 30.928L189.077 32.8104L174.72 32.9673ZM174.615 29.6209L183.418 29.2026C183.261 25.6993 182.527 20.1568 179.069 20.1568C178.231 20.1568 177.654 20.3137 176.606 20.8366C175.191 23.2418 174.563 27.5816 174.615 29.6209Z" fill="url(#paint9_linear_10101_2191)"/>
<path d="M260.761 45.7775L260.028 43.2677C258.089 45.0977 256.203 46.1958 253.268 46.1958C248.762 46.1958 244.727 43.9474 244.727 37.7252V20.3658L241.426 20.052V17.2808L250.963 16.1828L251.696 18.6926V36.8886C251.696 40.0781 253.006 41.7513 255.574 41.7513C256.307 41.7513 257.251 41.6468 258.089 41.333C258.561 40.8625 259.032 40.2873 259.399 39.7121V20.3658L255.993 20.052V17.2808L265.635 16.1828L266.368 18.6926V42.1174L269.355 42.6925L268.988 45.7775H260.761Z" fill="url(#paint10_linear_10101_2191)"/>
<path d="M133.482 42.0131C131.962 42.0131 130.757 41.7517 129.814 41.2288V22.7713C130.233 22.1439 130.705 21.5687 131.176 21.0458C132.067 20.7321 132.853 20.6275 133.796 20.6275C137.726 20.6275 138.407 24.6014 138.407 31.7125C138.407 38.5621 137.359 40.4445 137.097 41.2288C135.997 41.7517 134.844 42.0131 133.482 42.0131ZM145.219 30.4576C145.219 21.621 142.599 16.0785 136.049 16.0785C131.7 16.0785 129.657 18.5883 128.818 19.6341V18.6406L128.085 16.1308L119.543 17.3334V20.3661L122.845 20.7844V56.4445L120.015 57.0196L119.858 60H132.486L132.696 57.0196L129.709 56.4445V45.1504C130.914 45.8301 132.591 46.2484 134.425 46.2484C145.115 46.2484 145.219 35.4249 145.219 30.4576Z" fill="url(#paint11_linear_10101_2191)"/>
</g>
<defs>
<filter id="filter0_f_10101_2191" x="0" y="0" width="294" height="64" filterUnits="userSpaceOnUse" color-interpolation-filters="sRGB">
<feFlood flood-opacity="0" result="BackgroundImageFix"/>
<feBlend mode="normal" in="SourceGraphic" in2="BackgroundImageFix" result="shape"/>
<feGaussianBlur stdDeviation="2" result="effect1_foregroundBlur_10101_2191"/>
</filter>
<linearGradient id="paint0_linear_10101_2191" x1="147" y1="4" x2="147" y2="60" gradientUnits="userSpaceOnUse">
<stop stop-color="white"/>
<stop offset="0.798077" stop-color="#6D6D8F" stop-opacity="0"/>
</linearGradient>
<linearGradient id="paint1_linear_10101_2191" x1="147" y1="4" x2="147" y2="60" gradientUnits="userSpaceOnUse">
<stop stop-color="white"/>
<stop offset="0.798077" stop-color="#6D6D8F" stop-opacity="0"/>
</linearGradient>
<linearGradient id="paint2_linear_10101_2191" x1="147" y1="4" x2="147" y2="60" gradientUnits="userSpaceOnUse">
<stop stop-color="white"/>
<stop offset="0.798077" stop-color="#6D6D8F" stop-opacity="0"/>
</linearGradient>
<linearGradient id="paint3_linear_10101_2191" x1="147" y1="4" x2="147" y2="60" gradientUnits="userSpaceOnUse">
<stop stop-color="white"/>
<stop offset="0.798077" stop-color="#6D6D8F" stop-opacity="0"/>
</linearGradient>
<linearGradient id="paint4_linear_10101_2191" x1="147" y1="4" x2="147" y2="60" gradientUnits="userSpaceOnUse">
<stop stop-color="white"/>
<stop offset="0.798077" stop-color="#6D6D8F" stop-opacity="0"/>
</linearGradient>
<linearGradient id="paint5_linear_10101_2191" x1="147" y1="4" x2="147" y2="60" gradientUnits="userSpaceOnUse">
<stop stop-color="white"/>
<stop offset="0.798077" stop-color="#6D6D8F" stop-opacity="0"/>
</linearGradient>
<linearGradient id="paint6_linear_10101_2191" x1="147" y1="4" x2="147" y2="60" gradientUnits="userSpaceOnUse">
<stop stop-color="white"/>
<stop offset="0.798077" stop-color="#6D6D8F" stop-opacity="0"/>
</linearGradient>
<linearGradient id="paint7_linear_10101_2191" x1="147" y1="4" x2="147" y2="60" gradientUnits="userSpaceOnUse">
<stop stop-color="white"/>
<stop offset="0.798077" stop-color="#6D6D8F" stop-opacity="0"/>
</linearGradient>
<linearGradient id="paint8_linear_10101_2191" x1="147" y1="4" x2="147" y2="60" gradientUnits="userSpaceOnUse">
<stop stop-color="white"/>
<stop offset="0.798077" stop-color="#6D6D8F" stop-opacity="0"/>
</linearGradient>
<linearGradient id="paint9_linear_10101_2191" x1="147" y1="4" x2="147" y2="60" gradientUnits="userSpaceOnUse">
<stop stop-color="white"/>
<stop offset="0.798077" stop-color="#6D6D8F" stop-opacity="0"/>
</linearGradient>
<linearGradient id="paint10_linear_10101_2191" x1="147" y1="4" x2="147" y2="60" gradientUnits="userSpaceOnUse">
<stop stop-color="white"/>
<stop offset="0.798077" stop-color="#6D6D8F" stop-opacity="0"/>
</linearGradient>
<linearGradient id="paint11_linear_10101_2191" x1="147" y1="4" x2="147" y2="60" gradientUnits="userSpaceOnUse">
<stop stop-color="white"/>
<stop offset="0.798077" stop-color="#6D6D8F" stop-opacity="0"/>
</linearGradient>
</defs>
</svg>
