<svg width="176" height="50" viewBox="0 0 176 50" fill="none" xmlns="http://www.w3.org/2000/svg">
<path d="M99.2367 17.6901C99.2367 12.7887 99.3215 8.22535 99.576 4L86.6007 6.4507V7.6338L87.8728 7.80282C88.8056 7.88732 89.3993 8.22535 89.7385 8.73239C90.0777 9.32394 90.3322 10.169 90.5018 11.4366C90.6714 13.8873 90.841 19.4648 90.7562 28.2535C90.7562 36.9577 90.6714 42.4507 90.5018 44.5634C95.1661 45.5775 98.8127 46 101.526 46C106.615 46 110.601 44.5634 113.484 41.6056C116.367 38.7324 117.894 34.6761 117.894 29.6901C117.894 25.7183 116.792 22.4225 114.587 19.8028C112.382 17.1831 109.583 15.9155 106.276 15.9155C104.071 15.9155 101.781 16.507 99.2367 17.6901ZM99.4912 43.7183C99.3215 41.0141 99.1519 32.9014 99.1519 19.6338C99.9152 19.3803 100.933 19.2113 102.205 19.2113C104.24 19.2113 105.852 20.2254 107.039 22.338C108.226 24.4507 108.82 26.9859 108.82 30.1972C108.82 34.169 108.141 37.3803 106.784 40.0845C105.428 42.7042 103.731 44.0563 101.611 44.0563C100.933 43.8873 100.254 43.8028 99.4912 43.7183ZM37.9223 4.84507H4V6.53521L5.78092 6.70423C7.13781 6.95775 8.07067 7.46479 8.66431 8.22535C9.25795 9.07042 9.59717 10.4225 9.68198 12.2817C10.3604 21.4085 10.3604 29.9437 9.68198 37.8028C9.51237 39.662 9.17314 41.0141 8.66431 41.8592C8.07067 42.7042 7.13781 43.2113 5.78092 43.3803L4 43.6338V45.3239H25.8799V43.6338L23.5901 43.4648C23.0314 43.4182 22.4879 43.2594 21.9923 42.998C21.4968 42.7366 21.0595 42.3779 20.7067 41.9437C20.1131 41.0986 19.7739 39.7465 19.689 37.8873C19.4346 34.507 19.265 30.6197 19.265 26.3099L23.8445 26.3944C26.3039 26.4789 28 28.338 28.8481 32.0563H30.5442V18.2817H28.8481C28 21.9155 26.3887 23.7746 23.8445 23.8592L19.265 23.9437C19.265 16.338 19.4346 10.9296 19.689 7.6338H26.3887C31.1378 7.6338 34.3604 10.6761 36.2261 16.7606L38.2615 16.169L37.9223 4.84507ZM33.9364 30.8732C33.9364 35.2676 35.2085 38.9014 37.6678 41.7746C40.1272 44.6479 43.7738 46 48.3534 46C52.9329 46 56.6643 44.5634 59.3781 41.6056C62.0919 38.7324 63.364 35.0986 63.364 30.7042C63.364 26.3099 62.0919 22.6761 59.6325 19.8028C57.1731 16.9296 53.5265 15.5775 48.947 15.5775C44.3675 15.5775 40.636 17.0141 37.9223 19.9718C35.2085 22.8451 33.9364 26.4789 33.9364 30.8732ZM52.8481 21.2394C53.8657 23.6901 54.2897 26.9014 54.2897 30.7887C54.2897 39.7465 52.424 44.1408 48.7774 44.1408C46.9117 44.1408 45.47 42.8732 44.4523 40.338C43.4346 37.8028 43.0106 34.5916 43.0106 30.7887C43.0106 21.9155 44.8763 17.5211 48.523 17.5211C50.3887 17.4366 51.8304 18.7042 52.8481 21.2394ZM124.509 41.7746C127.307 44.5634 130.869 46 135.11 46C137.739 46 140.028 45.493 142.064 44.3944C144.099 43.3803 145.71 42.1127 146.813 40.5915L145.965 39.5775C144.099 41.0141 141.979 41.6901 139.519 41.6901C136.127 41.6901 133.498 40.5915 131.717 38.3099C129.852 36.0282 129.004 33.1549 129.173 29.4366H147.322C147.322 25.3803 146.304 22.0845 144.184 19.4648C142.064 16.9296 139.095 15.662 135.279 15.662C130.53 15.662 126.883 17.1831 124.254 20.1408C121.625 23.0986 120.353 26.7324 120.353 31.0423C120.353 35.4366 121.71 38.9859 124.509 41.7746ZM130.784 20.5634C131.717 18.5352 132.905 17.5211 134.516 17.5211C137.06 17.5211 138.332 20.7324 138.332 27.2394L129.343 27.4085C129.428 24.8732 129.852 22.5915 130.784 20.5634ZM170.134 17.1831C167.845 16.169 164.961 15.5775 161.484 15.5775C157.922 15.5775 155.124 16.507 153.004 18.2817C150.883 20.0563 149.781 22.2535 149.781 24.8732C149.781 27.1549 150.459 28.9296 151.731 30.1972C153.004 31.4648 155.039 32.5634 157.668 33.493C160.042 34.338 161.739 35.1831 162.587 35.9437C163.435 36.7887 163.943 37.7183 163.943 38.9859C163.943 40.169 163.519 41.2676 162.587 42.1127C161.739 43.0423 160.551 43.4648 159.025 43.4648C155.293 43.4648 152.495 40.7606 150.544 35.3521L149.102 35.7746L149.442 44.2253C152.495 45.4085 155.887 46 159.618 46C163.519 46 166.488 45.1549 168.693 43.3803C170.898 41.6901 172 39.2394 172 36.1972C172 34.169 171.491 32.4789 170.389 31.2113C169.286 29.9437 167.505 28.8451 164.961 27.831C162.163 26.8169 160.212 25.8873 159.194 25.0423C158.177 24.1972 157.668 23.1831 157.668 21.9155C157.668 20.6479 158.007 19.6338 158.77 18.7887C159.534 17.9437 160.466 17.6056 161.654 17.6056C165.046 17.6056 167.505 20.0563 169.032 24.8732L170.473 24.4507L170.134 17.1831ZM88.5512 16.4225C87.364 15.831 86.0919 15.5775 84.6502 15.5775C83.2085 15.5775 81.7668 16.169 80.1555 17.3521C78.5442 18.5352 77.3569 20.1408 76.424 22.338L76.5088 15.5775L63.6184 18.1127V19.2958L64.8905 19.3803C66.5018 19.5493 67.4346 20.8169 67.6042 23.0986C68.1131 28.338 68.1131 33.9155 67.6042 39.831C67.4346 42.1127 66.5018 43.2958 64.8905 43.5493L63.6184 43.7183V45.3239H81.5972V43.7183L79.3074 43.5493C77.6961 43.3803 76.7632 42.1127 76.5936 39.831C76.0848 34.9296 76 29.6901 76.424 24.2817C76.9329 23.4366 78.0353 22.9296 79.7314 22.7606C81.4276 22.5916 83.3781 23.0986 85.4134 24.2817L88.5512 16.4225Z" fill="#6D6D8F"/>
<g style="mix-blend-mode:plus-lighter" filter="url(#filter0_f_9237_1699)">
<path d="M99.2367 17.6901C99.2367 12.7887 99.3215 8.22535 99.576 4L86.6007 6.4507V7.6338L87.8728 7.80282C88.8056 7.88732 89.3993 8.22535 89.7385 8.73239C90.0777 9.32394 90.3322 10.169 90.5018 11.4366C90.6714 13.8873 90.841 19.4648 90.7562 28.2535C90.7562 36.9577 90.6714 42.4507 90.5018 44.5634C95.1661 45.5775 98.8127 46 101.526 46C106.615 46 110.601 44.5634 113.484 41.6056C116.367 38.7324 117.894 34.6761 117.894 29.6901C117.894 25.7183 116.792 22.4225 114.587 19.8028C112.382 17.1831 109.583 15.9155 106.276 15.9155C104.071 15.9155 101.781 16.507 99.2367 17.6901ZM99.4912 43.7183C99.3215 41.0141 99.1519 32.9014 99.1519 19.6338C99.9152 19.3803 100.933 19.2113 102.205 19.2113C104.24 19.2113 105.852 20.2254 107.039 22.338C108.226 24.4507 108.82 26.9859 108.82 30.1972C108.82 34.169 108.141 37.3803 106.784 40.0845C105.428 42.7042 103.731 44.0563 101.611 44.0563C100.933 43.8873 100.254 43.8028 99.4912 43.7183ZM37.9223 4.84507H4V6.53521L5.78092 6.70423C7.13781 6.95775 8.07067 7.46479 8.66431 8.22535C9.25795 9.07042 9.59717 10.4225 9.68198 12.2817C10.3604 21.4085 10.3604 29.9437 9.68198 37.8028C9.51237 39.662 9.17314 41.0141 8.66431 41.8592C8.07067 42.7042 7.13781 43.2113 5.78092 43.3803L4 43.6338V45.3239H25.8799V43.6338L23.5901 43.4648C23.0314 43.4182 22.4879 43.2594 21.9923 42.998C21.4968 42.7366 21.0595 42.3779 20.7067 41.9437C20.1131 41.0986 19.7739 39.7465 19.689 37.8873C19.4346 34.507 19.265 30.6197 19.265 26.3099L23.8445 26.3944C26.3039 26.4789 28 28.338 28.8481 32.0563H30.5442V18.2817H28.8481C28 21.9155 26.3887 23.7746 23.8445 23.8592L19.265 23.9437C19.265 16.338 19.4346 10.9296 19.689 7.6338H26.3887C31.1378 7.6338 34.3604 10.6761 36.2261 16.7606L38.2615 16.169L37.9223 4.84507ZM33.9364 30.8732C33.9364 35.2676 35.2085 38.9014 37.6678 41.7746C40.1272 44.6479 43.7738 46 48.3534 46C52.9329 46 56.6643 44.5634 59.3781 41.6056C62.0919 38.7324 63.364 35.0986 63.364 30.7042C63.364 26.3099 62.0919 22.6761 59.6325 19.8028C57.1731 16.9296 53.5265 15.5775 48.947 15.5775C44.3675 15.5775 40.636 17.0141 37.9223 19.9718C35.2085 22.8451 33.9364 26.4789 33.9364 30.8732ZM52.8481 21.2394C53.8657 23.6901 54.2897 26.9014 54.2897 30.7887C54.2897 39.7465 52.424 44.1408 48.7774 44.1408C46.9117 44.1408 45.47 42.8732 44.4523 40.338C43.4346 37.8028 43.0106 34.5916 43.0106 30.7887C43.0106 21.9155 44.8763 17.5211 48.523 17.5211C50.3887 17.4366 51.8304 18.7042 52.8481 21.2394ZM124.509 41.7746C127.307 44.5634 130.869 46 135.11 46C137.739 46 140.028 45.493 142.064 44.3944C144.099 43.3803 145.71 42.1127 146.813 40.5915L145.965 39.5775C144.099 41.0141 141.979 41.6901 139.519 41.6901C136.127 41.6901 133.498 40.5915 131.717 38.3099C129.852 36.0282 129.004 33.1549 129.173 29.4366H147.322C147.322 25.3803 146.304 22.0845 144.184 19.4648C142.064 16.9296 139.095 15.662 135.279 15.662C130.53 15.662 126.883 17.1831 124.254 20.1408C121.625 23.0986 120.353 26.7324 120.353 31.0423C120.353 35.4366 121.71 38.9859 124.509 41.7746ZM130.784 20.5634C131.717 18.5352 132.905 17.5211 134.516 17.5211C137.06 17.5211 138.332 20.7324 138.332 27.2394L129.343 27.4085C129.428 24.8732 129.852 22.5915 130.784 20.5634ZM170.134 17.1831C167.845 16.169 164.961 15.5775 161.484 15.5775C157.922 15.5775 155.124 16.507 153.004 18.2817C150.883 20.0563 149.781 22.2535 149.781 24.8732C149.781 27.1549 150.459 28.9296 151.731 30.1972C153.004 31.4648 155.039 32.5634 157.668 33.493C160.042 34.338 161.739 35.1831 162.587 35.9437C163.435 36.7887 163.943 37.7183 163.943 38.9859C163.943 40.169 163.519 41.2676 162.587 42.1127C161.739 43.0423 160.551 43.4648 159.025 43.4648C155.293 43.4648 152.495 40.7606 150.544 35.3521L149.102 35.7746L149.442 44.2253C152.495 45.4085 155.887 46 159.618 46C163.519 46 166.488 45.1549 168.693 43.3803C170.898 41.6901 172 39.2394 172 36.1972C172 34.169 171.491 32.4789 170.389 31.2113C169.286 29.9437 167.505 28.8451 164.961 27.831C162.163 26.8169 160.212 25.8873 159.194 25.0423C158.177 24.1972 157.668 23.1831 157.668 21.9155C157.668 20.6479 158.007 19.6338 158.77 18.7887C159.534 17.9437 160.466 17.6056 161.654 17.6056C165.046 17.6056 167.505 20.0563 169.032 24.8732L170.473 24.4507L170.134 17.1831ZM88.5512 16.4225C87.364 15.831 86.0919 15.5775 84.6502 15.5775C83.2085 15.5775 81.7668 16.169 80.1555 17.3521C78.5442 18.5352 77.3569 20.1408 76.424 22.338L76.5088 15.5775L63.6184 18.1127V19.2958L64.8905 19.3803C66.5018 19.5493 67.4346 20.8169 67.6042 23.0986C68.1131 28.338 68.1131 33.9155 67.6042 39.831C67.4346 42.1127 66.5018 43.2958 64.8905 43.5493L63.6184 43.7183V45.3239H81.5972V43.7183L79.3074 43.5493C77.6961 43.3803 76.7632 42.1127 76.5936 39.831C76.0848 34.9296 76 29.6901 76.424 24.2817C76.9329 23.4366 78.0353 22.9296 79.7314 22.7606C81.4276 22.5916 83.3781 23.0986 85.4134 24.2817L88.5512 16.4225Z" fill="url(#paint0_linear_9237_1699)"/>
</g>
<defs>
<filter id="filter0_f_9237_1699" x="0" y="0" width="176" height="50" filterUnits="userSpaceOnUse" color-interpolation-filters="sRGB">
<feFlood flood-opacity="0" result="BackgroundImageFix"/>
<feBlend mode="normal" in="SourceGraphic" in2="BackgroundImageFix" result="shape"/>
<feGaussianBlur stdDeviation="2" result="effect1_foregroundBlur_9237_1699"/>
</filter>
<linearGradient id="paint0_linear_9237_1699" x1="88" y1="4" x2="88" y2="46" gradientUnits="userSpaceOnUse">
<stop stop-color="white"/>
<stop offset="0.798077" stop-color="#6D6D8F" stop-opacity="0"/>
</linearGradient>
</defs>
</svg>
