<svg width="165" height="52" viewBox="0 0 165 52" fill="none" xmlns="http://www.w3.org/2000/svg">
<g id="Group 752" opacity="0.7" filter="url(#filter0_i_6667_2371)">
<g id="Vector">
<path d="M26.4303 37.4948L27.1906 43.2421H9.24904V8.72754H27.1906L26.4303 14.4749H13.7496V37.4948H26.4303ZM26.4303 14.4749H33.8198V37.4948H26.4303V14.4749Z" fill="white"/>
<path d="M26.4303 37.4948L27.1906 43.2421H9.24904V8.72754H27.1906L26.4303 14.4749H13.7496V37.4948H26.4303ZM26.4303 14.4749H33.8198V37.4948H26.4303V14.4749Z" fill="url(#paint0_linear_6667_2371)" fill-opacity="0.16"/>
<path d="M15.0572 0H9.24904V52H15.0572V0Z" fill="white"/>
<path d="M15.0572 0H9.24904V52H15.0572V0Z" fill="url(#paint1_linear_6667_2371)" fill-opacity="0.16"/>
<path d="M17.9766 12.3158H12.1684V38.8936H17.9766V12.3158Z" fill="white"/>
<path d="M17.9766 12.3158H12.1684V38.8936H17.9766V12.3158Z" fill="url(#paint2_linear_6667_2371)" fill-opacity="0.16"/>
<path d="M22.4467 0H17.8853V13.8058H22.4467V0Z" fill="white"/>
<path d="M22.4467 0H17.8853V13.8058H22.4467V0Z" fill="url(#paint3_linear_6667_2371)" fill-opacity="0.16"/>
<path d="M22.4467 37.4947H17.8853V52H22.4467V37.4947Z" fill="white"/>
<path d="M22.4467 37.4947H17.8853V52H22.4467V37.4947Z" fill="url(#paint4_linear_6667_2371)" fill-opacity="0.16"/>
<path d="M30.8701 8.72754H0.491211V14.5053H30.8701V8.72754Z" fill="white"/>
<path d="M30.8701 8.72754H0.491211V14.5053H30.8701V8.72754Z" fill="url(#paint5_linear_6667_2371)" fill-opacity="0.16"/>
<path d="M30.8701 37.4947H0.491211V43.2725H30.8701V37.4947Z" fill="white"/>
<path d="M30.8701 37.4947H0.491211V43.2725H30.8701V37.4947Z" fill="url(#paint6_linear_6667_2371)" fill-opacity="0.16"/>
<path d="M30.8396 31.717H22.4467V37.4947H30.8396V31.717Z" fill="white"/>
<path d="M30.8396 31.717H22.4467V37.4947H30.8396V31.717Z" fill="url(#paint7_linear_6667_2371)" fill-opacity="0.16"/>
</g>
<path id="Vector_2" d="M47.4737 12.6809H57.3871C65.1415 12.6809 69.2772 16.6341 69.2772 24.3885V29.8318C69.2772 37.5862 65.1415 41.5394 57.3871 41.5394H47.4737V12.6809ZM52.9474 17.6376V36.6131H57.4784C61.8573 36.6131 63.8339 34.2107 63.8339 30.0142V24.2365C63.8339 20.04 61.8573 17.6376 57.4784 17.6376H52.9474ZM75.4807 21.1043V23.9932H75.9064C76.6971 21.8037 78.4304 21.0131 81.0152 21.0131H83.1743V25.392H80.1333C77.4877 25.392 75.6023 26.7908 75.6023 29.6797V41.5698H70.3719V21.1043H75.4807ZM81.4713 31.3218C81.4713 24.6318 86.0936 20.4961 92.2058 20.4961C98.3181 20.4961 102.94 24.6318 102.94 31.3218C102.94 38.0119 98.3181 42.1476 92.2058 42.1476C86.0936 42.1476 81.4713 38.0119 81.4713 31.3218ZM86.6713 31.3218C86.6713 35.2751 88.9824 37.5862 92.2058 37.5862C95.4292 37.5862 97.7403 35.2751 97.7403 31.3218C97.7403 27.3686 95.4292 25.0575 92.2058 25.0575C88.9824 25.0575 86.6713 27.3686 86.6713 31.3218ZM103.853 49.8107V21.1043H108.961V23.8715H109.387C110.634 22.1078 112.611 20.5265 116.168 20.5265C121.034 20.5265 125.413 24.6622 125.413 31.3523C125.413 38.0423 121.034 42.178 116.168 42.178C112.611 42.178 110.634 40.5967 109.478 38.9546H109.053V49.8411H103.853V49.8107ZM114.587 37.6774C117.811 37.6774 120.213 35.3663 120.213 31.3218C120.213 27.2774 117.811 24.9663 114.587 24.9663C111.364 24.9663 108.961 27.2774 108.961 31.3218C108.961 35.3663 111.364 37.6774 114.587 37.6774ZM125.048 31.3218C125.048 24.8142 129.305 20.4961 135.326 20.4961C141.347 20.4961 145.27 24.7838 145.27 31.0482V32.8119H130.37C130.491 35.6096 132.681 37.647 135.57 37.647C138.458 37.647 139.644 36.0657 140.344 34.5148L144.601 36.7347C143.446 38.9242 141.013 42.0867 135.387 42.0867C129.305 42.1476 125.048 37.8598 125.048 31.3218ZM130.43 28.9803H140.009C139.766 26.6388 137.972 24.9663 135.296 24.9663C132.498 24.9663 130.765 26.6996 130.43 28.9803ZM144.784 31.3218C144.784 24.8142 149.041 20.4961 155.062 20.4961C161.083 20.4961 165.006 24.7838 165.006 31.0482V32.8119H150.105C150.227 35.6096 152.416 37.647 155.305 37.647C158.194 37.647 159.38 36.0657 160.08 34.5148L164.337 36.7347C163.181 38.9242 160.748 42.0867 155.123 42.0867C149.041 42.1476 144.784 37.8598 144.784 31.3218ZM150.166 28.9803H159.745C159.502 26.6388 157.708 24.9663 155.032 24.9663C152.234 24.9663 150.501 26.6996 150.166 28.9803Z" fill="white"/>
</g>
<defs>
<filter id="filter0_i_6667_2371" x="0.491211" y="0" width="164.515" height="56" filterUnits="userSpaceOnUse" color-interpolation-filters="sRGB">
<feFlood flood-opacity="0" result="BackgroundImageFix"/>
<feBlend mode="normal" in="SourceGraphic" in2="BackgroundImageFix" result="shape"/>
<feColorMatrix in="SourceAlpha" type="matrix" values="0 0 0 0 0 0 0 0 0 0 0 0 0 0 0 0 0 0 127 0" result="hardAlpha"/>
<feOffset dy="4"/>
<feGaussianBlur stdDeviation="4"/>
<feComposite in2="hardAlpha" operator="arithmetic" k2="-1" k3="1"/>
<feColorMatrix type="matrix" values="0 0 0 0 1 0 0 0 0 1 0 0 0 0 1 0 0 0 0.2 0"/>
<feBlend mode="normal" in2="shape" result="effect1_innerShadow_6667_2371"/>
</filter>
<linearGradient id="paint0_linear_6667_2371" x1="26.037" y1="32.9881" x2="26.826" y2="36.2964" gradientUnits="userSpaceOnUse">
<stop stop-color="white" stop-opacity="0"/>
<stop offset="0.50208" stop-color="white"/>
<stop offset="1" stop-color="white" stop-opacity="0"/>
</linearGradient>
<linearGradient id="paint1_linear_6667_2371" x1="26.037" y1="32.9881" x2="26.826" y2="36.2964" gradientUnits="userSpaceOnUse">
<stop stop-color="white" stop-opacity="0"/>
<stop offset="0.50208" stop-color="white"/>
<stop offset="1" stop-color="white" stop-opacity="0"/>
</linearGradient>
<linearGradient id="paint2_linear_6667_2371" x1="26.037" y1="32.9881" x2="26.826" y2="36.2964" gradientUnits="userSpaceOnUse">
<stop stop-color="white" stop-opacity="0"/>
<stop offset="0.50208" stop-color="white"/>
<stop offset="1" stop-color="white" stop-opacity="0"/>
</linearGradient>
<linearGradient id="paint3_linear_6667_2371" x1="26.037" y1="32.9881" x2="26.826" y2="36.2964" gradientUnits="userSpaceOnUse">
<stop stop-color="white" stop-opacity="0"/>
<stop offset="0.50208" stop-color="white"/>
<stop offset="1" stop-color="white" stop-opacity="0"/>
</linearGradient>
<linearGradient id="paint4_linear_6667_2371" x1="26.037" y1="32.9881" x2="26.826" y2="36.2964" gradientUnits="userSpaceOnUse">
<stop stop-color="white" stop-opacity="0"/>
<stop offset="0.50208" stop-color="white"/>
<stop offset="1" stop-color="white" stop-opacity="0"/>
</linearGradient>
<linearGradient id="paint5_linear_6667_2371" x1="26.037" y1="32.9881" x2="26.826" y2="36.2964" gradientUnits="userSpaceOnUse">
<stop stop-color="white" stop-opacity="0"/>
<stop offset="0.50208" stop-color="white"/>
<stop offset="1" stop-color="white" stop-opacity="0"/>
</linearGradient>
<linearGradient id="paint6_linear_6667_2371" x1="26.037" y1="32.9881" x2="26.826" y2="36.2964" gradientUnits="userSpaceOnUse">
<stop stop-color="white" stop-opacity="0"/>
<stop offset="0.50208" stop-color="white"/>
<stop offset="1" stop-color="white" stop-opacity="0"/>
</linearGradient>
<linearGradient id="paint7_linear_6667_2371" x1="26.037" y1="32.9881" x2="26.826" y2="36.2964" gradientUnits="userSpaceOnUse">
<stop stop-color="white" stop-opacity="0"/>
<stop offset="0.50208" stop-color="white"/>
<stop offset="1" stop-color="white" stop-opacity="0"/>
</linearGradient>
</defs>
</svg>
