<svg xmlns="http://www.w3.org/2000/svg" width="130" height="76" viewBox="0 0 130 76" fill="none">
  <path d="M13.3445 74.5827L8.24638 66.8625H4.74721V74.484C4.74721 74.5827 4.66921 74.6617 4.57171 74.6617H1.25887C1.16137 74.6617 1.08337 74.5827 1.08337 74.484V52.9753C1.08337 52.8766 1.16137 52.7976 1.25887 52.7976H9.64171C10.6405 52.7976 11.5484 52.9139 12.3652 53.1442C13.182 53.3746 13.8775 53.6993 14.4495 54.1205C15.0237 54.5417 15.5025 55.0463 15.8882 55.6387C16.2739 56.2288 16.5577 56.8804 16.7419 57.5934C16.9239 58.3042 17.017 59.0721 17.017 59.8926C17.017 61.6455 16.6032 63.0759 15.7777 64.1838C14.9522 65.2917 13.7865 66.0552 12.2829 66.4764V66.5356L17.615 74.3853C17.6952 74.5037 17.6107 74.6661 17.4699 74.6661H13.4919C13.4334 74.6661 13.377 74.6354 13.3445 74.5871V74.5827ZM4.74937 63.5256H8.84221C10.2765 63.5256 11.3664 63.19 12.1074 62.5186C12.8505 61.8473 13.221 60.9456 13.221 59.8136C13.221 58.6816 12.8614 57.7601 12.1442 57.1086C11.427 56.457 10.4109 56.1323 9.09354 56.1323H4.74937V63.5256Z" fill="#040C16"/>
  <path d="M68.5576 59.8268V74.4818C68.5576 74.5805 68.4796 74.6595 68.3821 74.6595H65.4853C65.3878 74.6595 65.3098 74.5805 65.3098 74.4818V72.6477H65.2643C64.1376 74.1505 62.5625 74.9008 60.5453 74.9008C59.7328 74.9008 58.9593 74.7846 58.2226 74.5542C57.486 74.3238 56.823 73.9838 56.2336 73.5319C55.6443 73.0821 55.1351 72.5468 54.7061 71.9325C54.275 71.3161 53.9435 70.6052 53.7116 69.7979C53.4798 68.9906 53.3628 68.1327 53.3628 67.2201C53.3628 66.1078 53.5448 65.0657 53.911 64.0938C54.2771 63.122 54.7776 62.2949 55.4103 61.6148C56.043 60.9325 56.8013 60.3972 57.681 60.0067C58.5606 59.6161 59.5075 59.4209 60.515 59.4209C62.4455 59.4209 63.973 60.0966 65.1018 61.4502H65.1603V59.8246C65.1603 59.7258 65.2383 59.6469 65.3358 59.6469H68.3821C68.4796 59.6469 68.5576 59.7258 68.5576 59.8246V59.8268ZM64.0683 70.5065C64.8851 69.6597 65.2925 68.5693 65.2925 67.2377C65.2925 65.906 64.8938 64.7915 64.0986 63.8942C63.3013 62.9969 62.3003 62.5494 61.0935 62.5494C60.4998 62.5494 59.943 62.659 59.423 62.8806C58.903 63.1022 58.4501 63.4093 58.0645 63.8042C57.6788 64.1991 57.3755 64.695 57.1523 65.2917C56.9291 65.8884 56.8186 66.5356 56.8186 67.2377C56.8186 68.5693 57.2151 69.6597 58.006 70.5065C58.7968 71.3533 59.8216 71.7768 61.0783 71.7768C62.2548 71.7768 63.2536 71.3533 64.0683 70.5065Z" fill="#040C16"/>
  <path d="M33.0937 68.3499H22.4402C22.659 69.4118 23.1443 70.2476 23.9027 70.8597C24.6588 71.4718 25.5818 71.7768 26.6695 71.7768C28.1407 71.7768 29.3345 71.2327 30.251 70.1445C30.3138 70.0677 30.4265 70.0568 30.5002 70.1226L32.6083 71.9501C32.6798 72.0137 32.6928 72.1234 32.6322 72.198C31.9757 73.0053 31.148 73.6525 30.1492 74.1352C29.0962 74.6463 27.8763 74.9008 26.4897 74.9008C25.103 74.9008 23.764 74.5849 22.6157 73.9531C21.4673 73.3212 20.5617 72.413 19.8987 71.2261C19.2357 70.0392 18.9042 68.679 18.9042 67.1455C18.9042 66.0135 19.0883 64.967 19.4545 64.0039C19.8207 63.043 20.3255 62.2247 20.969 61.5533C21.6125 60.882 22.3795 60.3577 23.27 59.9825C24.1605 59.6074 25.116 59.4187 26.1343 59.4187C27.5687 59.4187 28.8362 59.7434 29.9347 60.395C31.0332 61.0466 31.8738 61.9438 32.4588 63.0847C33.0417 64.2277 33.3342 65.5242 33.3342 66.9766C33.3342 67.4505 33.3125 67.8541 33.2692 68.1876C33.2583 68.2775 33.1825 68.3434 33.0937 68.3434V68.3499ZM23.881 63.3391C23.1985 63.8657 22.7392 64.6094 22.5008 65.5703H29.9217C29.7743 64.9582 29.5425 64.4317 29.2305 63.9841C28.9185 63.5388 28.5133 63.1878 28.0128 62.9333C27.5123 62.6788 26.9468 62.5493 26.3142 62.5493C25.3738 62.5493 24.5635 62.8126 23.881 63.3391Z" fill="#040C16"/>
  <path d="M50.7564 52.1789V74.484C50.7564 74.5827 50.6784 74.6617 50.5809 74.6617H47.6841C47.5866 74.6617 47.5086 74.5827 47.5086 74.484V72.6499H47.4501C46.3212 74.1527 44.7136 74.903 42.6271 74.903C41.8167 74.903 41.0411 74.7867 40.3044 74.5564C39.5677 74.326 38.9047 73.986 38.3154 73.534C37.726 73.0843 37.2169 72.549 36.7857 71.9347C36.3545 71.3182 36.023 70.6074 35.7912 69.8001C35.5594 68.9927 35.4424 68.1349 35.4424 67.2223C35.4424 66.11 35.6244 65.0679 35.9905 64.096C36.3567 63.1241 36.8572 62.297 37.4899 61.6169C38.1225 60.9347 38.8809 60.3994 39.7605 60.0088C40.6402 59.6183 41.587 59.4231 42.5945 59.4231C44.5922 59.4231 46.1566 60.0988 47.2854 61.4524H47.3591V52.1789C47.3591 52.0802 47.437 52.0012 47.5345 52.0012H50.5809C50.6784 52.0012 50.7564 52.0802 50.7564 52.1789ZM46.2432 70.5131C47.0752 69.6706 47.489 68.5803 47.489 67.2376C47.489 65.895 47.0861 64.7783 46.2801 63.8854C45.4741 62.9947 44.4362 62.5471 43.1709 62.5471C42.5772 62.5471 42.0204 62.6568 41.5004 62.8784C40.9804 63.1 40.5276 63.4071 40.1419 63.802C39.7562 64.1969 39.4529 64.6928 39.2297 65.2895C39.0065 65.8862 38.8961 66.5334 38.8961 67.2354C38.8961 68.5671 39.2925 69.6575 40.0834 70.5043C40.8742 71.3511 41.899 71.7746 43.1557 71.7746C44.4124 71.7746 45.4112 71.3533 46.2432 70.5131Z" fill="#040C16"/>
  <path d="M74.8303 73.9399C73.682 73.2993 72.785 72.3889 72.1371 71.213C71.4893 70.0348 71.1643 68.69 71.1643 67.1784C71.1643 65.6668 71.4915 64.3198 72.1436 63.1439C72.7958 61.9658 73.7036 61.0531 74.8671 60.4016C76.0306 59.75 77.3523 59.4253 78.8365 59.4253C80.0346 59.4253 81.1916 59.6666 82.3096 60.1471C83.3713 60.6034 84.2531 61.2506 84.9595 62.0865C85.0223 62.161 85.0115 62.2729 84.94 62.3366L82.8881 64.1355C82.8145 64.1992 82.7061 64.1904 82.6411 64.118C82.2186 63.6507 81.7181 63.2777 81.1396 63.0035C80.507 62.7029 79.7985 62.5538 79.0163 62.5538C78.1453 62.5538 77.3783 62.7468 76.7153 63.1329C76.0523 63.5191 75.5388 64.0587 75.1726 64.7564C74.8065 65.4519 74.6245 66.2526 74.6245 67.1543C74.6245 68.056 74.8108 68.8721 75.1813 69.5741C75.5518 70.2762 76.0718 70.8181 76.7391 71.2042C77.4065 71.5903 78.1713 71.7834 79.0315 71.7834C79.3478 71.7834 79.662 71.7548 79.974 71.7C80.286 71.6451 80.5741 71.5662 80.8428 71.4674C81.1093 71.3665 81.3628 71.2502 81.599 71.1142C81.8373 70.9782 82.054 70.8312 82.2511 70.6711L82.7148 70.2959C82.782 70.2411 82.8773 70.2433 82.9423 70.3025L84.9963 72.1453C85.07 72.2112 85.0765 72.3274 85.0093 72.3998C84.342 73.1194 83.484 73.7118 82.4353 74.1747C81.3216 74.6661 80.0823 74.9118 78.7173 74.9118C77.2721 74.9118 75.9765 74.5915 74.8281 73.9509L74.8303 73.9399Z" fill="#040C16"/>
  <path d="M111.254 68.3499H100.6C100.819 69.4118 101.305 70.2476 102.063 70.8597C102.819 71.4718 103.742 71.7768 104.83 71.7768C106.301 71.7768 107.495 71.2327 108.411 70.1445C108.474 70.0677 108.587 70.0568 108.66 70.1226L110.769 71.9501C110.84 72.0137 110.853 72.1234 110.792 72.198C110.136 73.0053 109.308 73.6525 108.309 74.1352C107.256 74.6463 106.037 74.9008 104.65 74.9008C103.263 74.9008 101.924 74.5849 100.776 73.9531C99.6276 73.3212 98.722 72.413 98.059 71.2261C97.396 70.0392 97.0645 68.679 97.0645 67.1455C97.0645 66.0135 97.2486 64.967 97.6148 64.0039C97.981 63.043 98.4858 62.2247 99.1293 61.5533C99.7728 60.882 100.54 60.3577 101.43 59.9825C102.321 59.6074 103.276 59.4187 104.295 59.4187C105.729 59.4187 106.996 59.7434 108.095 60.395C109.193 61.0466 110.034 61.9438 110.619 63.0847C111.202 64.2277 111.494 65.5242 111.494 66.9766C111.494 67.4505 111.473 67.8541 111.429 68.1876C111.419 68.2775 111.343 68.3434 111.254 68.3434V68.3499ZM102.041 63.3391C101.359 63.8657 100.899 64.6094 100.661 65.5703H108.082C107.935 64.9582 107.703 64.4317 107.391 63.9841C107.079 63.5388 106.674 63.1878 106.173 62.9333C105.673 62.6788 105.107 62.5493 104.474 62.5493C103.534 62.5493 102.724 62.8126 102.041 63.3391Z" fill="#040C16"/>
  <path d="M128.917 52.1789V74.484C128.917 74.5827 128.839 74.6617 128.741 74.6617H125.844C125.747 74.6617 125.669 74.5827 125.669 74.484V72.6499H125.61C124.482 74.1527 122.874 74.903 120.787 74.903C119.977 74.903 119.201 74.7867 118.465 74.5564C117.728 74.326 117.065 73.986 116.476 73.534C115.886 73.0843 115.377 72.549 114.946 71.9347C114.515 71.3182 114.183 70.6074 113.952 69.8001C113.72 68.9927 113.603 68.1349 113.603 67.2223C113.603 66.11 113.785 65.0679 114.151 64.096C114.517 63.1241 115.018 62.297 115.65 61.6169C116.283 60.9347 117.041 60.3994 117.921 60.0088C118.801 59.6183 119.747 59.4231 120.755 59.4231C122.753 59.4231 124.317 60.0988 125.446 61.4524H125.519V52.1789C125.519 52.0802 125.597 52.0012 125.695 52.0012H128.741C128.839 52.0012 128.917 52.0802 128.917 52.1789ZM124.406 70.5131C125.238 69.6706 125.652 68.5803 125.652 67.2376C125.652 65.895 125.249 64.7783 124.443 63.8854C123.637 62.9947 122.599 62.5471 121.333 62.5471C120.74 62.5471 120.183 62.6568 119.663 62.8784C119.143 63.1 118.69 63.4071 118.304 63.802C117.919 64.1969 117.615 64.6928 117.392 65.2895C117.169 65.8862 117.059 66.5334 117.059 67.2354C117.059 68.5671 117.455 69.6575 118.246 70.5043C119.037 71.3511 120.062 71.7746 121.318 71.7746C122.575 71.7746 123.574 71.3533 124.406 70.5131Z" fill="#040C16"/>
  <path d="M87.1584 54.8203C87.1584 54.7281 87.2256 54.6535 87.3166 54.6426L90.3629 54.3069C90.4669 54.2959 90.5579 54.3771 90.5579 54.4846V59.6512H95.3355C95.433 59.6512 95.511 59.7301 95.511 59.8289V62.4023C95.511 62.501 95.433 62.58 95.3355 62.58H90.5579V69.5982C90.5579 71.0856 90.9999 71.6867 92.1288 71.6867C93.1319 71.6867 94.0376 71.4059 94.5836 71.1383C94.6811 71.09 94.8003 71.1383 94.8306 71.2458L95.5954 73.7972C95.6193 73.8806 95.5824 73.9684 95.5066 74.0078C95.0061 74.2645 93.5609 74.9008 91.7019 74.9008C88.0359 74.9008 87.1606 72.029 87.1606 69.9119V54.8181L87.1584 54.8203Z" fill="#040C16"/>
  <path d="M77.6881 1.09692H44.1719C43.9075 1.09692 43.6931 1.314 43.6931 1.58177V4.49084C43.6931 4.75861 43.9075 4.97568 44.1719 4.97568H77.6881C77.9526 4.97568 78.1669 4.75861 78.1669 4.49084V1.58177C78.1669 1.314 77.9526 1.09692 77.6881 1.09692Z" fill="url(#paint0_linear_6342_1703)"/>
  <path d="M83.9129 7.3999H44.1719C43.9075 7.3999 43.6931 7.61697 43.6931 7.88475V10.7938C43.6931 11.0616 43.9075 11.2787 44.1719 11.2787H83.9129C84.1774 11.2787 84.3918 11.0616 84.3918 10.7938V7.88475C84.3918 7.61697 84.1774 7.3999 83.9129 7.3999Z" fill="url(#paint1_linear_6342_1703)"/>
  <path d="M71.4676 20.0037H44.1719C43.9075 20.0037 43.6931 20.2207 43.6931 20.4885V23.3976C43.6931 23.6653 43.9075 23.8824 44.1719 23.8824H71.4676C71.7321 23.8824 71.9464 23.6653 71.9464 23.3976V20.4885C71.9464 20.2207 71.7321 20.0037 71.4676 20.0037Z" fill="url(#paint2_linear_6342_1703)"/>
  <path d="M85.8283 32.6074H44.1719C43.9075 32.6074 43.6931 32.8245 43.6931 33.0923V36.0013C43.6931 36.2691 43.9075 36.4862 44.1719 36.4862H85.8283C86.0927 36.4862 86.3071 36.2691 86.3071 36.0013V33.0923C86.3071 32.8245 86.0927 32.6074 85.8283 32.6074Z" fill="url(#paint3_linear_6342_1703)"/>
  <path d="M77.6881 13.7007H44.1719C43.9075 13.7007 43.6931 13.9178 43.6931 14.1855V17.0946C43.6931 17.3624 43.9075 17.5794 44.1719 17.5794H77.6881C77.9526 17.5794 78.1669 17.3624 78.1669 17.0946V14.1855C78.1669 13.9178 77.9526 13.7007 77.6881 13.7007Z" fill="url(#paint4_linear_6342_1703)"/>
  <path d="M77.6881 26.3066H44.1719C43.9075 26.3066 43.6931 26.5237 43.6931 26.7915V29.7006C43.6931 29.9683 43.9075 30.1854 44.1719 30.1854H77.6881C77.9526 30.1854 78.1669 29.9683 78.1669 29.7006V26.7915C78.1669 26.5237 77.9526 26.3066 77.6881 26.3066Z" fill="url(#paint5_linear_6342_1703)"/>
  <defs>
    <linearGradient id="paint0_linear_6342_1703" x1="43.6931" y1="3.0363" x2="78.1669" y2="3.0363" gradientUnits="userSpaceOnUse">
      <stop stop-color="#040C16"/>
      <stop offset="0.8" stop-color="#040C16"/>
      <stop offset="1" stop-color="#040C16" stop-opacity="0"/>
    </linearGradient>
    <linearGradient id="paint1_linear_6342_1703" x1="43.6931" y1="9.33928" x2="84.3918" y2="9.33928" gradientUnits="userSpaceOnUse">
      <stop stop-color="#040C16"/>
      <stop offset="0.8" stop-color="#040C16"/>
      <stop offset="1" stop-color="#040C16" stop-opacity="0"/>
    </linearGradient>
    <linearGradient id="paint2_linear_6342_1703" x1="0.000117664" y1="21.943" x2="71.9464" y2="21.943" gradientUnits="userSpaceOnUse">
      <stop stop-color="#040C16"/>
      <stop offset="0.8" stop-color="#040C16"/>
      <stop offset="1" stop-color="#040C16" stop-opacity="0"/>
    </linearGradient>
    <linearGradient id="paint3_linear_6342_1703" x1="0.000118331" y1="34.5468" x2="86.3071" y2="34.5468" gradientUnits="userSpaceOnUse">
      <stop stop-color="#040C16"/>
      <stop offset="0.8" stop-color="#040C16"/>
      <stop offset="1" stop-color="#040C16" stop-opacity="0"/>
    </linearGradient>
    <linearGradient id="paint4_linear_6342_1703" x1="0.000114458" y1="15.6401" x2="78.0002" y2="16" gradientUnits="userSpaceOnUse">
      <stop stop-color="#040C16"/>
      <stop offset="0.8" stop-color="#040C16"/>
      <stop offset="1" stop-color="#040C16" stop-opacity="0"/>
    </linearGradient>
    <linearGradient id="paint5_linear_6342_1703" x1="0.000119819" y1="28.2438" x2="78.0002" y2="28.2438" gradientUnits="userSpaceOnUse">
      <stop stop-color="#040C16"/>
      <stop offset="0.8" stop-color="#040C16"/>
      <stop offset="1" stop-color="#040C16" stop-opacity="0"/>
    </linearGradient>
  </defs>
</svg>