<svg version="1.2" xmlns="http://www.w3.org/2000/svg" viewBox="0 0 88 24" width="88" height="24">
	<title>logo-svg</title>
	<style>
		.s0 { fill: #ffffff } 
	</style>
	<g id="Vector">
		<path id="Layer" fill-rule="evenodd" class="s0" d="m43.3 2.2v15.1c0 0.2-0.2 0.4-0.4 0.4h-1.5q-0.1 0-0.2-0.2l-5.9-7.6v13.8c0 0.1-0.2 0.3-0.4 0.3h-34.6c-0.1 0-0.3-0.2-0.3-0.3v-23.4c0-0.1 0.2-0.3 0.3-0.3h36.6c0.2 0 0.3 0.2 0.3 0.3v1.6c0 0.2-0.1 0.3-0.3 0.3h-34.7v19.6h30.8v-15.1c0-0.2 0.2-0.4 0.4-0.4h1.6q0.2 0 0.3 0.2l5.7 7.4v-13.6c0-0.1 0.2-0.3 0.4-0.3h46.5c0.2 0 0.3 0.2 0.3 0.3v23.4c0 0.1-0.1 0.3-0.3 0.3h-48.5c-0.2 0-0.4-0.2-0.4-0.3v-1.6c0-0.2 0.2-0.3 0.4-0.3h46.6v-19.6zm7.4 9.8c0-3.3 2.7-5.9 6.1-5.9 1.9 0 3.1 0.5 4.1 1.2 0.2 0.2 0.2 0.4 0.1 0.5l-1 1.2c-0.1 0.2-0.3 0.2-0.5 0.1-0.8-0.6-1.6-1-2.8-1-2 0-3.6 1.8-3.6 3.9 0 2.3 1.6 3.9 3.8 3.9 1 0 1.9-0.3 2.6-0.8v-2.8c0-0.2 0.2-0.4 0.4-0.4h1.5c0.2 0 0.3 0.2 0.3 0.4v3.6q0 0.2-0.1 0.3-2.1 1.7-4.8 1.7c-3.6 0-6.1-2.4-6.1-5.9zm-43.4-5.3c0-0.2 0.1-0.4 0.3-0.4h1.6c0.2 0 0.3 0.2 0.3 0.4v9h5.6c0.2 0 0.4 0.1 0.4 0.3v1.3c0 0.2-0.2 0.4-0.4 0.4h-7.5c-0.2 0-0.3-0.2-0.3-0.4v-10.6zm17.7 0v10.6c0 0.2-0.2 0.4-0.4 0.4h-1.6c-0.2 0-0.3-0.2-0.3-0.4v-10.6c0-0.2 0.1-0.4 0.3-0.4h1.6c0.2 0 0.4 0.2 0.4 0.4zm56.1 5.3c0 3.3-2.6 5.9-6.1 5.9-3.5 0-6.2-2.5-6.2-5.9 0-3.3 2.7-5.9 6.2-5.9 3.5 0 6.1 2.5 6.1 5.9zm-2.4 0c0-2.2-1.6-3.9-3.7-3.9-2.2 0-3.8 1.7-3.8 3.9 0 2.2 1.7 3.8 3.8 3.8 2.1 0 3.7-1.6 3.7-3.8z"/>
	</g>
</svg>