<svg width="48" height="48" viewBox="0 0 48 48" fill="none" xmlns="http://www.w3.org/2000/svg">
<g id="checked-changed">
<g id="bg">
<rect id="Rectangle 53" opacity="0.88" x="38" y="38" width="32" height="32" rx="16" transform="rotate(-180 38 38)" fill="#14141F"/>
<g id="Rectangle 56" style="mix-blend-mode:plus-lighter" opacity="0.64" filter="url(#filter0_f_3386_1077)">
<rect x="40" y="40" width="32" height="32" rx="16" transform="rotate(-180 40 40)" fill="url(#paint0_radial_3386_1077)"/>
</g>
<g id="Rectangle 55" style="mix-blend-mode:plus-lighter">
<rect x="38" y="38" width="32" height="32" rx="16" transform="rotate(-180 38 38)" fill="url(#paint1_radial_3386_1077)" fill-opacity="0.92"/>
<rect x="37.5" y="37.5" width="31" height="31" rx="15.5" transform="rotate(-180 37.5 37.5)" stroke="url(#paint2_linear_3386_1077)" stroke-opacity="0.6"/>
</g>
<g id="Rectangle 54" style="mix-blend-mode:plus-lighter">
<rect x="38" y="38" width="32" height="32" rx="16" transform="rotate(-180 38 38)" fill="url(#paint3_radial_3386_1077)"/>
</g>
</g>
<g id="icon">
<g id="Vector 19" style="mix-blend-mode:plus-darker" opacity="0.12" filter="url(#filter1_f_3386_1077)">
<path d="M17 27L20.6617 29.7463C20.8454 29.8841 21.1072 29.8392 21.2345 29.6482L27 21" stroke="#FF7847" stroke-width="2" stroke-linecap="round"/>
</g>
<path id="Vector 17" d="M17 24L20.6617 26.7463C20.8454 26.8841 21.1072 26.8392 21.2345 26.6482L27 18" stroke="#FF7847" stroke-width="2" stroke-linecap="round"/>
<g id="Vector 21" style="mix-blend-mode:plus-lighter" opacity="0.8" filter="url(#filter2_f_3386_1077)">
<path d="M17 23L20.6617 25.7463C20.8454 25.8841 21.1072 25.8392 21.2345 25.6482L27 17" stroke="#FFBC70" stroke-linecap="round"/>
</g>
<g id="Vector 20" style="mix-blend-mode:plus-lighter" opacity="0.32" filter="url(#filter3_f_3386_1077)">
<path d="M17 22L20.6617 24.7463C20.8454 24.8841 21.1072 24.8392 21.2345 24.6482L27 16" stroke="#F1E6FA" stroke-width="2" stroke-linecap="round"/>
</g>
</g>
</g>
<defs>
<filter id="filter0_f_3386_1077" x="0" y="0" width="48" height="48" filterUnits="userSpaceOnUse" color-interpolation-filters="sRGB">
<feFlood flood-opacity="0" result="BackgroundImageFix"/>
<feBlend mode="normal" in="SourceGraphic" in2="BackgroundImageFix" result="shape"/>
<feGaussianBlur stdDeviation="4" result="effect1_foregroundBlur_3386_1077"/>
</filter>
<filter id="filter1_f_3386_1077" x="14" y="18" width="16" height="14.8264" filterUnits="userSpaceOnUse" color-interpolation-filters="sRGB">
<feFlood flood-opacity="0" result="BackgroundImageFix"/>
<feBlend mode="normal" in="SourceGraphic" in2="BackgroundImageFix" result="shape"/>
<feGaussianBlur stdDeviation="1" result="effect1_foregroundBlur_3386_1077"/>
</filter>
<filter id="filter2_f_3386_1077" x="15.5" y="15.5" width="13" height="11.8264" filterUnits="userSpaceOnUse" color-interpolation-filters="sRGB">
<feFlood flood-opacity="0" result="BackgroundImageFix"/>
<feBlend mode="normal" in="SourceGraphic" in2="BackgroundImageFix" result="shape"/>
<feGaussianBlur stdDeviation="0.5" result="effect1_foregroundBlur_3386_1077"/>
</filter>
<filter id="filter3_f_3386_1077" x="14" y="13" width="16" height="14.8264" filterUnits="userSpaceOnUse" color-interpolation-filters="sRGB">
<feFlood flood-opacity="0" result="BackgroundImageFix"/>
<feBlend mode="normal" in="SourceGraphic" in2="BackgroundImageFix" result="shape"/>
<feGaussianBlur stdDeviation="1" result="effect1_foregroundBlur_3386_1077"/>
</filter>
<radialGradient id="paint0_radial_3386_1077" cx="0" cy="0" r="1" gradientUnits="userSpaceOnUse" gradientTransform="translate(40 40) scale(32)">
<stop stop-color="#3333FF"/>
<stop offset="0.96" stop-color="#3333FF" stop-opacity="0"/>
</radialGradient>
<radialGradient id="paint1_radial_3386_1077" cx="0" cy="0" r="1" gradientUnits="userSpaceOnUse" gradientTransform="translate(54 70) rotate(-90) scale(16 16)">
<stop stop-color="#D4C5EB"/>
<stop offset="1" stop-color="#0C0C14" stop-opacity="0"/>
</radialGradient>
<linearGradient id="paint2_linear_3386_1077" x1="54" y1="54" x2="54" y2="70" gradientUnits="userSpaceOnUse">
<stop stop-color="#0C0C14" stop-opacity="0"/>
<stop offset="1" stop-color="#F1E6FA" stop-opacity="0.48"/>
</linearGradient>
<radialGradient id="paint3_radial_3386_1077" cx="0" cy="0" r="1" gradientUnits="userSpaceOnUse" gradientTransform="translate(54 70) rotate(-90) scale(32 20.2233)">
<stop stop-color="#FF7847"/>
<stop offset="0.96" stop-color="#3333FF" stop-opacity="0"/>
</radialGradient>
</defs>
</svg>
